<svg width="82" height="40" viewBox="0 0 82 40" fill="none" xmlns="http://www.w3.org/2000/svg">
<path d="M4.89063 22.9187C4.65313 22.8 5.12813 22.8 4.89063 22.9187C5.06875 22.9781 5.36563 23.0375 5.72188 23.0375C5.72188 22.9781 5.78125 22.9187 5.9 22.9187V23.0375C6.43438 23.0375 6.67188 22.9187 6.67188 22.6812V22.6219L6.6125 22.5625L6.73125 22.3844V22.5625C6.96875 22.0875 7.0875 21.7906 7.0875 21.7313C7.0875 21.5531 7.02813 21.375 6.96875 21.2563C6.96875 21.3156 6.90938 21.375 6.85 21.375C6.19688 21.375 4.35625 21.0781 4.11875 20.6625H4.17813C4.2375 20.6625 4.35625 20.7219 4.53438 20.7812C4.59375 20.8406 4.65313 20.8406 4.7125 20.8406L4.65313 20.7219L4.83125 20.7812H4.95L4.89063 20.7219C4.83125 20.7219 4.77188 20.6625 4.65313 20.6031L4.475 20.5438L3.64375 20.0094H3.58438L3.525 20.0688H3.46563C3.46563 19.0594 4.17813 17.6344 4.59375 17.1C4.77188 16.8031 5.1875 16.3281 5.78125 15.6156L6.73125 14.4875L9.64063 11.8156C11.8375 10.5688 13.4406 9.38125 14.45 8.13437H14.3906C14.3313 8.13437 14.1531 8.3125 13.975 8.3125C13.975 8.25313 14.3313 7.95625 15.0438 7.42188H14.9844C14.9844 7.3625 15.0438 7.24375 15.1031 7.18437L15.1625 7.30313C15.1625 7.3625 15.1625 7.3625 15.1031 7.3625L15.6969 7.00625C15.6375 7.00625 15.6375 7.00625 15.6375 6.94687H15.6969V7.00625L16.1719 6.59063H16.2313C16.1719 6.76875 16.1125 6.82812 16.1125 6.8875C16.4094 6.8875 16.5875 6.8875 16.7656 6.82812L16.35 7.00625V7.06562H16.4688C16.9438 6.8875 18.1906 6.175 18.4281 6.11562L18.3094 6.05625C18.3688 6.05625 18.4281 5.99687 18.4875 5.9375V5.99687H18.5469L19.7344 5.40312H19.5562L18.8438 5.75937H18.7844C20.2687 4.86875 21.1594 4.33437 21.3375 4.275V4.21562H21.3969C21.3969 4.275 21.3969 4.275 21.3375 4.275L21.575 4.15625H21.5156C21.5156 4.09688 21.575 4.09688 21.6938 4.09688H21.7531C21.6938 4.09688 21.6938 4.09688 21.6938 4.15625C21.7531 4.09688 21.8125 4.09688 21.9313 4.09688C21.9313 4.0375 21.9313 3.97813 21.9906 3.97813V4.09688C22.2281 4.0375 22.4063 3.97813 22.5844 3.97813L22.4656 3.91875C22.4656 3.85937 22.525 3.85938 22.5844 3.85938H22.6438C22.9406 3.97813 22.8813 3.8 23.0594 3.8L23.1187 3.74062L23.2375 3.8H23.3563C23.5344 3.8 23.5938 3.74062 23.5938 3.68125C23.475 3.68125 23.4156 3.62187 23.3563 3.5625H23.5344C23.5938 3.5625 23.8313 3.62187 23.8906 3.62187C23.95 3.62187 24.1281 3.5625 24.3656 3.50313L24.3063 3.38437C25.1969 3.14687 26.1469 3.0875 27.275 3.14687C27.3344 3.0875 27.3938 3.02812 27.4531 3.02812V3.14687L27.8094 3.20625C27.8688 3.20625 28.0469 3.14687 28.1063 3.14687V3.26563H28.1656H28.2844L28.3438 3.325V3.14687C29.3531 3.14687 30.3031 4.21562 30.3031 5.225C30.3031 7.18437 29.175 9.20313 26.9188 11.2812L26.2063 11.9344C25.2563 12.825 25.0781 12.825 24.0688 13.7156L22.8813 14.6656C21.7531 15.3781 20.3875 16.0906 19.4969 16.0906C19.4969 15.6156 19.7938 14.5469 19.7938 14.1313H19.7344C19.7344 14.3688 19.0813 15.1406 19.1406 15.8531C19.0219 15.9719 18.9625 16.0313 19.0219 16.0906L18.6656 16.3875C18.6656 16.0906 18.9625 14.6062 19.1406 14.6062C19.1406 14.0125 19.4375 13.1812 19.9719 12.0531C20.5656 10.925 20.9219 10.1531 20.9813 9.85625V9.79688C21.0406 9.5 21.1 9.2625 21.1 9.14375C21.1 8.60937 20.8031 8.3125 20.15 8.3125L19.1406 7.95625L19.2 8.075C19.1406 8.075 19.0813 8.075 18.9625 8.01562L18.8438 7.95625H18.7844L18.0125 8.25312C17.9531 8.25312 17.8938 8.19375 17.8938 8.01562C17.7156 8.01562 17.6563 7.77812 17.5969 7.77812H17.5375L17.4188 8.13437H17.3594L17.3 8.01562H17.2406C16.9438 8.01562 16.7656 8.25313 16.7656 8.66875C16.7656 8.72812 16.7656 8.7875 16.825 8.7875C16.2313 9.14375 15.5781 10.8063 14.8063 13.8344L11.5406 20.8406C11.4813 21.0188 11.0063 21.1375 10.175 21.3156C9.34375 21.4938 8.92813 21.7313 8.92813 22.1469C8.92813 22.325 8.9875 22.5625 8.9875 22.6219C8.9875 22.6813 8.9875 22.7406 8.92813 22.8L8.80938 22.6219C8.69063 22.6813 8.63125 22.8594 8.63125 23.275V23.3344L8.75 23.3938C8.75 23.8094 8.63125 23.9875 8.33438 23.9875V24.4031L8.39375 24.2844C8.57188 24.3438 8.39375 25.175 8.57188 25.2344L8.75 25.1156C8.75 25.175 8.80938 25.175 8.86875 25.175C8.92813 25.175 8.9875 25.1156 9.04688 24.9969C9.16563 25.0562 9.225 25.1156 9.225 25.2938C9.225 25.4719 8.92813 25.5906 8.92813 25.65C8.75 25.65 8.69063 25.4719 8.63125 25.4125V25.4719C8.69063 25.7094 9.10625 26.3031 9.16563 26.3625V26.5406C9.16563 27.4312 8.80938 28.8562 8.15625 30.6969C7.50313 32.5375 7.20625 33.9625 7.20625 34.9719C7.20625 35.8031 7.20625 36.5156 7.26563 37.1094C7.325 37.2875 7.62188 38.2969 7.8 38.7125C8.0375 39.1281 8.45313 39.6031 9.10625 39.6031C9.58125 39.6031 9.81875 39.5438 9.81875 39.425L9.75937 39.3656V39.2469L10.0563 39.1281V39.3063C10.3531 39.3063 10.5906 39.0688 10.7094 38.5344V38.2969H10.175L10.1156 38.2375C10.0563 38.1781 10.0563 38 10.0563 37.7625C10.0563 37.5844 10.175 37.2875 10.175 37.1094V37.05L10.1156 37.1094V36.9906C10.1156 36.7531 10.1156 36.6344 10.175 36.6344H10.2344V36.9906C10.4125 36.6937 10.4719 36.4563 10.5313 36.2781H10.5906C10.5906 36.575 10.7094 36.8125 10.8875 36.8719C11.1844 36.9313 13.4406 37.05 14.2125 37.3469H15.3406L15.5188 37.4062H15.5781C15.7563 37.4062 16.2906 37.3469 16.5281 37.3469H16.825L16.9438 37.4062H17.3594C18.1313 37.4062 19.2594 37.1687 20.7438 36.6937C20.5063 36.575 20.9813 36.575 20.7438 36.6937C22.3469 36.1594 23.5344 35.8625 24.3063 35.8625H24.3656L24.425 35.9813C24.6031 35.8031 25.1375 35.5063 26.0281 35.15C26.9188 34.8531 27.4531 34.675 27.5125 34.6156L30.9563 32.3594C30.9563 32.3 30.9563 32.3 31.0156 32.3L31.1344 32.3594L31.1938 32.3C31.3719 32.1219 31.6094 31.9438 32.025 31.7656C32.3219 31.2313 33.925 30.0438 33.9844 29.9844H33.925C33.6875 29.9844 33.3906 30.4594 33.2125 30.4594L33.0938 30.3406L32.975 30.4594H32.9156L32.8563 30.4V30.3406C33.0938 30.1031 34.5187 29.1531 34.5187 28.5594V28.4406C34.2812 28.6781 33.9844 28.7969 33.9844 29.0938C33.9844 29.0344 33.925 29.0344 33.8656 29.0344C33.45 29.0344 32.3219 30.2813 32.1438 30.3406L32.0844 30.4V30.3406L32.025 30.2219C32.025 29.9844 32.4406 29.6281 33.3313 29.1531C34.2219 28.6781 34.6375 28.2625 34.6375 27.9656V27.9063C34.5781 27.9063 34.3406 28.1438 33.8063 28.5594C33.3313 28.975 33.0344 29.2125 32.8563 29.1531L32.7375 29.0344C32.6781 29.0938 32.5594 29.3313 32.3219 29.3906V29.45H32.3813L32.5594 29.3906L32.7375 29.3313H32.7969C32.7375 29.5094 32.3219 29.6281 32.2625 29.6875C32.2625 29.2125 31.7875 29.9844 31.3719 29.9844C31.3719 29.7469 31.7281 29.6281 31.7281 29.3313C31.3719 29.3313 31.1344 29.5688 31.0156 29.9844H31.1938C31.1938 30.1625 31.1344 30.2219 31.075 30.2219H31.0156L30.8969 30.1625V30.6375L30.7781 30.6969C30.7781 30.6375 30.7781 30.5781 30.7188 30.5188H30.6594C30.4219 30.5188 29.7094 31.1719 29.4125 31.1719H29.3531L29.2938 31.1125L29.175 31.0531V31.1719L29.2938 31.2313C29.2938 31.4094 29.1156 31.35 29.1156 31.5875H29.2938C28.8188 32.1812 28.4031 32.4781 27.9875 32.4781C27.9281 32.4781 27.75 32.4188 27.6906 32.4188C27.6906 32.1813 28.9969 31.9438 28.9969 31.6469C28.9969 31.4688 28.9375 31.4094 28.8781 31.4094C28.7 31.4094 28.3438 31.7656 28.1063 31.7656C28.1063 31.5875 28.1656 31.4688 28.3438 31.4688H28.4031L28.5219 31.5281C28.4625 31.4688 28.5813 31.35 28.7594 31.2906C29.175 31.1125 29.0563 31.0531 28.9969 31.0531C28.7594 31.2313 28.5813 31.2906 28.4031 31.2906C28.4031 30.9937 29.9469 30.5188 29.9469 29.8656C29.5313 29.6281 27.2156 31.7062 26.9188 31.8844C26.9781 31.9437 27.0375 31.9438 27.0969 31.9438C27.2156 31.9438 27.275 31.8844 27.3344 31.825C27.3344 31.9438 27.3938 32.0031 27.5125 32.0031L27.5719 31.9438H27.6313V32.0625H27.0969C27.0969 32.2406 27.3344 32.3 27.3344 32.3594C27.1563 32.3594 27.0375 32.4781 26.8594 32.4781H26.6813C26.7406 32.4188 26.7406 32.3594 26.7406 32.3C26.3844 32.3 26.2063 32.3594 26.2063 32.5375L26.2656 32.5969L26.2063 32.6562C26.1469 32.5969 26.0281 32.5375 25.9094 32.5375C25.85 32.5375 25.6719 32.6562 25.2563 32.8344C25.3156 32.775 25.3156 32.775 25.3156 32.7156C25.3156 32.6563 25.2563 32.5969 25.0781 32.5969C24.6031 32.775 23.7125 33.25 23.1781 33.25V33.0719H23.1187C22.9406 33.4875 22.4063 33.6656 21.5156 33.6656H21.2781L21.2188 33.6063H21.1594C21.1 33.6063 20.9813 33.6656 20.9219 33.8438H20.3281L20.2094 33.9031L20.15 33.8438H20.0313C19.4969 33.8438 18.725 33.9625 17.5969 34.2594C16.4688 34.5563 15.6375 34.675 15.1031 34.675H14.8063C15.2219 34.5563 16.2313 34.2 16.6469 34.2L16.7656 34.2594C17.0031 34.2594 17.2406 33.6656 17.5375 33.6656H17.6562L17.5375 33.725C17.4188 33.7844 17.3594 33.7844 17.3594 33.8438C17.3594 33.9031 17.3594 33.9031 17.4188 33.9625V34.0219C17.3594 34.0219 17.3 34.0812 17.3 34.1406C17.5375 34.1406 18.1906 33.6063 18.6063 33.6063L18.6656 33.6656H18.725C18.9031 33.6656 19.2 33.3094 19.4375 33.3094L19.4969 33.3688C19.5562 33.4281 19.5563 33.4281 19.6156 33.4281C19.7938 33.4281 19.9125 33.3094 19.9125 33.1312C19.9125 33.1312 19.9719 33.1906 20.0906 33.3094L20.2687 33.1312V33.0719C20.3281 33.0719 20.3281 33.1313 20.3281 33.1906C20.3281 33.3094 20.3281 33.4281 20.2687 33.4875H20.3281C20.3875 33.4875 20.4469 33.3688 20.4469 33.1906V33.1312L20.3875 33.0719H20.7438L20.8625 33.0125C20.9219 33.0125 21.1 33.1906 21.2781 33.1906V33.1312C21.2187 33.1312 21.2188 33.1313 21.1594 33.0719L21.1 33.0125V32.9531C21.1 32.8937 21.1594 32.8344 21.3375 32.8344L21.2781 32.7156C21.3375 32.5375 21.6344 32.4188 22.1094 32.4188H22.1688C22.1094 32.5969 21.5156 32.6562 21.5156 32.9531H21.575C22.1688 32.6562 22.3469 32.5969 22.4656 32.7156C22.2281 32.4781 22.5844 32.3594 22.8219 32.3594C22.8219 32.0625 23.7125 31.5875 24.0094 31.5875C24.0688 31.5875 24.0688 31.7656 24.1281 31.7656C24.1875 31.7656 24.2469 31.7656 24.3063 31.7063L24.1875 31.6469C24.1875 31.5281 24.2469 31.4688 24.425 31.4688C24.5438 31.4688 24.6031 31.4688 24.6625 31.5281C24.6031 31.35 24.9 31.2313 24.9594 31.2313H25.0188L24.9 31.4094C25.0781 31.4094 25.1969 31.35 25.375 31.1719L25.1969 31.1125C25.3156 30.9344 25.4938 30.8156 25.6719 30.8156V30.9937C26.0875 30.9937 26.325 30.875 26.325 30.6375L26.1469 30.5781C26.2063 30.5781 26.6219 30.1625 26.8594 30.1625H26.9188L26.8594 30.2219L26.4438 30.5188V30.5781C26.7406 30.5781 27.6313 29.6875 27.9281 29.8656C28.3438 29.7469 30.0063 28.1438 30.3625 28.2625C31.4906 27.2531 32.0844 26.7188 32.1438 26.6C32.2031 26.6594 32.2625 26.6594 32.3219 26.6594H32.3813C32.4406 26.6594 32.5594 26.6594 32.7375 26.6V26.2437C32.7969 26.4219 33.1531 26.9563 33.1531 27.0156V27.075L32.7969 27.3719L32.6187 27.3125C32.6187 27.2531 32.975 27.075 32.975 26.8375C32.6187 26.8375 32.4406 26.9563 32.5 27.1938L32.3813 27.075L32.3219 27.0156C32.2625 27.0156 32.2031 27.075 32.1438 27.1344L31.9656 27.1938C31.9063 27.1938 31.9063 27.1937 31.8469 27.1344H31.7875C31.7875 27.4312 30.8375 27.8469 31.0156 28.3813C31.0156 28.4406 31.075 28.4406 31.2531 28.4406H31.3125L31.6688 28.0844H31.8469C31.8469 28.5 31.3719 28.5594 31.1938 28.7375V28.7969C31.1938 28.975 31.3125 29.2125 31.3125 29.45C31.6094 29.3313 31.7875 29.1531 31.7875 28.975L31.7281 28.7969V28.7375C31.7281 28.5594 31.7875 28.5 31.9063 28.5H31.9656C31.9656 28.5594 32.0844 28.6781 32.0844 28.7375H32.1438C32.3219 28.7375 32.6187 28.5594 32.6781 28.5594C32.9156 28.5594 33.0938 28.6188 33.1531 28.7375L33.2125 28.6781V28.5594C33.0344 28.5594 32.6781 28.4406 32.6781 28.3219L32.7375 28.2031L32.6781 28.1438H32.6187L32.5594 28.2031C32.5 28.2031 32.2625 28.2625 32.2031 28.2625V28.2031C32.2031 28.1438 32.3219 28.0844 32.5594 27.9656L33.6875 27.075H33.9844V26.7188C34.2812 26.5406 35.1719 25.5906 35.1719 25.2938C35.1719 25.2344 34.9938 25.2344 34.9938 24.9969H34.9344V25.2938H34.8156V24.8188H34.6375L34.5187 24.9969C34.3406 25.2344 34.1031 25.4125 34.0438 25.3531L33.9844 25.2938V24.7594C33.9844 24.7 33.8656 24.6406 33.6875 24.6406V24.4625C33.9844 24.4625 34.1625 24.3437 34.1625 24.1062H34.1031C34.1031 23.9875 34.1031 23.9281 34.1625 23.9281C34.2813 24.225 34.4 24.3438 34.5187 24.2844C34.6375 24.2844 34.6969 24.225 34.6969 24.0469C34.6969 23.8094 34.4 23.4531 34.1625 23.4531V22.9187H34.2812L34.4594 23.0375L34.5187 22.9781L34.2219 22.6812L34.2812 22.6219L34.3406 22.5031L34.4594 22.5625C34.4594 22.5031 34.4594 22.4437 34.4 22.3844L34.3406 22.2063L34.2812 22.2656H34.1625C33.8656 20.3063 31.4906 19.0594 27.1563 18.4062L27.0969 18.3469V18.1688C26.8594 18.2281 26.6813 18.2875 26.5625 18.2875L26.4438 18.2281C26.4438 18.2281 26.4438 18.2281 26.3844 18.2281V18.1688L29.4719 15.7344C29.0563 16.15 28.6406 16.625 28.2844 17.1C29.3531 16.5656 30.7781 15.7937 30.7781 14.9625C30.5406 14.9625 30.3031 15.0813 30.0063 15.2594C31.0156 14.3688 31.9063 13.4188 32.6781 12.2906L32.8563 12.0531L32.975 12.1125C32.9156 11.9344 33.45 11.2219 33.45 11.1625L33.5688 11.2219C33.5688 10.8063 33.8063 10.925 33.8063 10.7469H33.7469C33.7469 10.45 33.8063 10.1531 33.9844 9.85625V9.79688V9.85625L34.1625 9.38125V9.32187H34.2219C34.7562 8.19375 34.9938 7.42188 34.9938 6.94687V6.53125C34.9344 6.47188 34.9344 6.47187 34.9344 6.4125H34.9938C34.9938 6.23437 34.875 6.11562 34.6969 6.11562V6.23438L34.7563 6.35312V6.4125C34.7563 6.47187 34.6969 6.82812 34.6969 6.8875V6.65L34.4594 7.30313L34.4 7.24375L34.3406 7.18437L34.2812 7.24375C34.2812 7.06563 34.2813 6.94687 34.3406 6.94687L34.4 7.06562L34.4594 7.00625C34.4 7.00625 34.4 6.94687 34.3406 6.82812V6.76875C34.3406 6.70938 34.4 6.35313 34.4 6.175V5.9375C34.2219 5.99687 34.1031 6.76875 34.0438 6.82812H33.9844L33.925 6.76875V6.70938C33.925 6.53125 34.0438 6.23437 34.2812 5.75937C34.2219 5.7 34.1625 5.64063 34.1625 5.58125H34.2219V5.52188H34.2812C34.3406 5.52188 34.3406 5.34375 34.2812 5.34375C34.2219 5.40312 34.2219 5.4625 34.2219 5.52188H34.1625L34.0438 5.40312C33.9844 5.34375 33.9844 5.28437 33.9844 5.225C33.9844 5.04687 34.0438 4.9875 34.1031 4.9875L34.0438 4.92813V4.80937L34.1625 4.75H33.8656V4.63125L33.925 4.57187V4.5125L33.8656 4.45312V4.39375L33.925 4.33437V4.21562C33.925 3.97813 33.6281 3.325 33.3906 3.325V3.44375C33.3906 3.50313 33.3906 3.5625 33.45 3.5625H33.3906C33.0344 3.5625 32.8563 3.44375 32.8563 3.14687C32.8563 2.96875 32.9156 2.90937 32.975 2.85C32.9156 2.79062 32.8563 2.67188 32.8563 2.6125C32.7969 2.6125 31.0156 0.949998 29.2938 0.356249C29.5313 0.475001 29.0563 0.475001 29.2938 0.356249C28.7 0.118748 28.1063 0 27.4531 0H27.3938L27.1563 0.178123H25.375L25.1969 0.296875L25.375 0.356249H25.0781L25.0188 0.296875H24.9594C24.1875 0.296875 23.8313 0.415624 23.8313 0.59375C23.7719 0.59375 23.5938 0.534375 23.4156 0.534375V0.59375H23.2375L20.3875 1.6625C19.0219 2.25625 17.5969 2.96875 16.2313 3.74062L12.9656 5.75937L9.225 8.49063C7.325 9.975 5.1875 11.6969 2.63438 14.725C1.3875 16.2094 0.734375 17.3969 0.734375 18.1688V18.2281L0.79375 18.2875C0.79375 18.2281 0.853125 18.2281 0.9125 18.2281C0.9125 18.4656 0.734375 18.7625 1.03125 19.1781C1.20938 19.1188 1.625 19.7125 1.625 19.8906V19.95L1.09063 19.2969C1.09063 20.7219 3.16875 22.3844 4.89063 22.9187ZM17.1219 24.5813C17.1812 24.5813 17.1812 24.5219 17.1219 24.4625L17.1813 24.4031C16.9438 24.2844 17.4188 24.2844 17.1813 24.4031H17.2406C18.0719 23.9875 19.2594 23.6906 20.8031 23.5125C22.4063 23.275 23.5344 23.0375 24.1875 22.8C24.2469 22.8 24.9 22.7406 24.9594 22.7406C25.4938 22.7406 26.9781 23.0375 27.6313 23.0375V22.9781H27.75C27.8094 22.9781 27.9875 23.0375 28.225 23.0969H28.2844L28.3438 23.1563H28.1063C28.2844 23.3938 28.5813 23.5125 28.9969 23.5125V23.4531L28.4625 23.2156L28.5219 23.0969L28.4031 22.9781H28.3438C28.2844 22.9187 28.1063 22.9188 27.9281 22.8594V22.6812C28.3438 22.6812 28.6406 23.2156 28.8188 23.2156V23.0969C29.2344 23.0969 30.4813 24.0469 30.4813 24.4625C30.4813 25.8875 28.5219 27.6094 26.9188 28.3813L20.0906 31.825L16.35 33.1906C15.9344 33.4875 15.1625 33.7844 14.0938 34.0219C13.0844 34.3187 12.2531 34.4375 11.6594 34.4375H11.6L11.5406 34.3781C11.5406 33.9031 12.3125 33.0125 12.3125 32.5375H12.3719L12.4313 32.6562C12.6094 32.2406 12.7281 31.9438 12.7281 31.7656C12.7281 31.5875 12.6094 31.5281 12.6094 31.4688C12.6094 31.35 12.6688 31.2906 12.7875 31.2906V31.6469L13.7375 28.975V28.9156C13.3219 28.9156 13.3219 30.3406 13.0844 30.5781L13.025 30.6375V30.5781C13.025 30.3406 13.2625 29.8063 13.2625 29.5688V29.45C13.025 29.5688 12.55 31.5281 12.1938 31.5281C12.1938 31.825 11.6594 32.6563 11.7188 33.0719L11.4813 32.8938C11.5406 33.1906 11.4219 33.7844 11.1844 33.8438V33.4281L11.3031 33.25C11.1844 32.775 11.3625 32.7156 11.5406 32.3594H11.6C11.7781 32.3 12.3125 30.8156 12.3125 30.5188C12.3125 30.4594 12.0156 30.2812 12.0156 30.1031C12.0156 29.8062 12.075 29.5687 12.1938 29.5094V29.925H12.3125C12.3125 30.1031 12.3719 30.2219 12.4906 30.2813C12.55 30.1625 12.6094 30.1031 12.6688 30.1031C12.6094 30.1031 12.55 30.1031 12.4906 30.0438C12.7875 29.925 12.9062 29.6875 12.9062 29.3906V29.0938C12.8469 29.0938 12.6688 29.8656 12.4313 29.8656C12.4313 29.6875 12.55 29.45 12.55 29.2719C12.3719 29.2719 12.3719 29.3906 12.3125 29.45L12.2531 29.3313C12.2531 27.9656 13.025 27.075 14.6281 26.125C15.4 25.65 15.875 25.3531 16.0531 25.175L15.9938 25.1156C15.9938 24.9375 16.35 24.7594 17.0625 24.4625C17.0625 24.5219 17.0625 24.5813 17.1219 24.5813ZM12.1938 27.4906C12.2531 27.4906 12.3125 27.3719 12.3125 27.3125L12.3719 27.2531C12.55 27.2531 12.6094 27.3125 12.6094 27.4906C12.6094 27.6688 12.0156 28.7969 11.9563 28.7969C11.8969 29.0938 11.5406 29.925 11.4813 30.1625C11.3625 30.0438 11.3031 29.8656 11.3031 29.6875V29.6281C11.3031 29.6875 11.3625 29.6875 11.4813 29.6875C11.5406 29.6875 11.7781 28.975 11.7781 28.9156C11.7781 28.7375 11.7187 28.6187 11.5406 28.6187L11.4813 28.6781C11.5406 28.7375 11.5406 28.8563 11.5406 29.0344V29.0938L11.3625 28.9156C11.3031 28.975 11.2438 29.0344 11.2438 29.0938H11.3625C11.0656 29.6875 11.0063 30.1625 11.3031 30.2219C11.3031 30.3406 11.2437 30.4 11.1844 30.4V30.3406C11.125 30.3406 11.125 30.2813 11.125 30.2219H11.0656C11.0063 30.2219 11.0063 30.3406 11.0063 30.5188H11.125H10.8281V30.6969L10.8875 30.8156C10.8875 31.2313 10.5313 32.1219 10.5313 32.5375C10.2344 32.6562 10.1156 33.1313 10.1156 33.9031L10.2937 33.725V33.8438C10.2937 34.0219 10.175 34.3188 10.2344 34.7344L10.175 34.7938C9.87813 34.8531 9.58125 34.9125 9.40312 35.0906L9.34375 34.9719V35.5062L9.4625 35.5656V35.3281C9.4625 35.3875 9.7 35.625 9.7 35.6844C9.75937 35.9219 9.7 36.1594 9.4625 36.3969C9.40313 36.2187 9.34375 36.1594 9.28438 36.1594C9.28438 36.4563 9.34375 36.575 9.40312 36.575H9.4625L9.52188 36.5156C9.58125 36.575 9.58125 36.7531 9.58125 37.1094V37.3469L9.52188 37.4062C9.225 36.9312 9.04688 36.2781 9.04688 35.4469V35.3875C9.04688 35.2688 9.04688 35.0312 9.10625 34.6156C9.10625 34.5562 9.10625 34.4375 9.16563 34.2594H9.225C9.225 34.3188 9.28438 34.4375 9.34375 34.4969L9.40312 34.3187H9.4625C9.4625 34.3781 9.4625 34.4375 9.52188 34.4969L9.58125 34.4375L9.64063 33.8438V33.725C9.64063 33.6062 9.64063 33.5469 9.58125 33.5469C9.40312 33.8438 9.28438 34.0219 9.16563 34.0219C9.16563 33.3687 9.40313 32.4188 9.87813 31.1719C10.4125 29.925 10.65 28.975 10.65 28.3813V28.3219C10.5906 28.2625 10.5906 28.2625 10.5906 28.2031L10.65 28.0844V27.9656H10.7094L10.7688 28.0844C10.7688 28.0844 10.7688 28.0844 10.7688 28.1438V27.6094H10.8281V27.8469H10.9469L10.8875 27.6688C10.8281 27.4313 10.8875 27.3125 11.125 27.3125L11.2438 27.4906C11.2438 27.4313 11.3031 27.3719 11.3625 27.3719C11.3625 27.4313 11.2438 27.7281 11.3031 27.9063L11.1844 27.8469H11.125C11.125 28.3219 10.5906 29.45 10.5906 29.925V29.9844L10.65 30.0438L10.7094 29.925C10.7094 29.8656 10.7094 29.7469 10.7688 29.5688L10.8875 29.2719C11.0656 29.2125 11.1844 28.8563 11.3031 28.2625C11.4813 27.6094 11.6594 27.3125 11.8375 27.3125C12.0156 27.3125 12.075 27.3719 12.075 27.4906C12.075 27.55 11.8969 27.6687 11.8969 27.7281C11.8969 27.9656 11.9563 28.1438 12.075 28.2031V27.9656L12.1344 28.0844C12.1344 28.1438 12.1344 28.1438 12.1344 28.1438L12.1938 28.0844V27.4906ZM28.1063 13.3C28.0469 13.2406 28.0469 13.2406 28.0469 13.1812L30.3625 10.8656H30.4813V10.925L30.3625 11.1031L30.4219 11.2219L30.3031 11.1625L29.7688 11.6969C29.4125 12.0531 29.2344 12.2313 29.2938 12.2906C28.9969 12.4688 28.8188 12.5875 28.8188 12.6469V12.7062C28.8781 12.825 28.9969 12.8844 29.0563 12.8844C29.0563 12.6469 29.1156 12.5281 29.2344 12.5281V12.6469C29.4125 12.6469 29.65 12.35 29.8281 12.35V12.4094L29.4125 12.825C28.8781 13.3594 27.8688 14.25 26.3844 15.5562C24.9 16.8625 23.95 17.5156 23.6531 17.5156C23.6531 17.3375 23.5938 17.2188 23.4156 17.2188C23.4156 17.3969 23.3563 17.4563 23.2969 17.4563C23.2969 17.3969 23.2969 17.2781 23.3563 17.2188H23.2969C23.1188 17.2188 23.0594 17.3375 23.0594 17.5156C23.0594 17.8719 23.2969 17.575 23.5938 17.575C23.5938 17.7531 22.7031 18.3469 22.525 18.3469C22.3469 18.3469 22.3469 18.05 22.4062 17.9906C22.2281 17.9313 21.9313 18.4656 21.8719 18.4656C21.8125 18.525 21.7531 18.525 21.6938 18.4656L21.6344 18.4062C21.3375 18.4062 21.1594 18.4063 21.0406 18.4656L21.1 18.3469C23.6531 16.6844 25.9688 14.9625 27.9281 13.2406C27.9281 13.5375 27.9875 13.6562 28.1656 13.6562C28.3438 13.5969 28.9375 13.0625 28.9375 13.0031V12.9438C28.7 12.9438 28.225 13.3 28.1656 13.3H28.1063ZM17.0031 12.1719C17.0031 11.9938 17.3 11.2812 17.3594 11.2812C17.3594 11.5188 17.7156 11.6375 17.7156 11.8156C17.7156 12.2313 17.4781 12.7656 17.0625 13.5375C16.6469 14.25 16.35 14.7844 16.2906 15.0813L14.8656 18.2281C14.8063 18.2875 14.7469 18.3469 14.8063 18.4656H14.8656L16.35 15.3188C16.5875 14.6063 17.5969 12.8844 17.8344 12.1125C17.8937 12.1719 17.9531 12.2906 17.9531 12.4688C17.9531 12.5281 17.6562 13.2406 17.0625 14.6062C16.2906 14.6656 15.6375 17.575 15.1031 18.525V18.4062C15.0438 18.4062 15.0438 18.5844 15.1031 18.5844C14.925 18.8813 14.7469 19.1187 14.5688 19.2969C14.45 19.2969 14.3906 19.2375 14.3906 19.1187C14.3906 18.6438 15.0438 17.4563 15.1031 17.2188H15.2219C15.2219 16.9813 15.6375 16.4469 15.6375 16.15V16.0906L15.5781 16.0312C15.5781 15.9719 15.6969 15.7344 15.6969 15.675V15.6156L15.875 15.675V15.4969C16.1125 15.4969 16.7063 13.8937 16.7063 13.4781C16.7063 13.3594 16.6469 13.3 16.5875 13.3594C16.6469 13.3 16.7063 13.2406 16.825 13.2406V13.0625C16.7656 13.0625 16.7063 13.0031 16.7063 12.8844C16.7063 12.7063 16.7656 12.6469 16.825 12.6469V12.7062C16.825 12.7656 16.825 12.7656 16.7656 12.825L16.8844 12.9438H16.9438C17.0031 12.9438 17.0031 12.8844 17.0625 12.8844C17.0625 12.825 17.1219 12.7656 17.1813 12.7656C17.1219 12.4688 17.1813 12.35 17.3 12.35C17.3 12.1719 17.4188 11.875 17.4188 11.6969L17.3594 11.6375L17.3 11.6969L17.2406 11.9344C17.1813 12.1125 17.1812 12.1719 17.1219 12.1719H17.0031ZM21.0406 18.4656C19.9125 18.7625 19.2594 18.9406 19.0813 18.9406C19.0813 18.8813 19.9719 18.2875 21.7531 17.1594C23.5344 16.0313 24.425 15.2594 24.4844 14.8438C24.5438 14.9031 24.5438 14.9031 24.6031 14.9031C24.7813 14.9031 25.1969 14.4875 25.2563 14.4875H25.375L24.7812 15.0813H24.9C25.1375 14.9625 25.2563 14.9031 25.2563 14.8438V14.7844H25.4938L24.9594 15.3781L24.8406 15.3188C24.7812 15.3188 24.7813 15.3188 24.7219 15.3781L24.6625 15.4375H24.6031L24.5438 15.3781H24.3656C24.1281 15.3781 24.0094 15.4375 24.0094 15.6156V15.675C24.0688 15.675 24.3063 15.4969 24.3656 15.4969C24.425 15.4969 24.4844 15.5562 24.4844 15.6156C24.4844 16.2094 21.2188 17.9313 20.6844 18.4656H21.0406ZM28.4031 33.1312C28.5219 32.8344 28.7 32.7156 28.9969 32.7156H29.0563C28.8781 32.8938 28.8188 33.0125 28.8188 33.1312C28.8188 33.5469 29.2938 32.8938 29.5313 32.8938H29.5906L29.7688 32.9531C29.7688 33.1313 29.2938 33.4875 28.2844 33.9031C27.3344 34.3781 26.7406 34.6156 26.4438 34.6156L26.325 34.4969C26.325 33.9625 27.75 33.3687 27.9281 33.1312H28.4031ZM13.025 7.3625C13.5 7.125 14.6875 5.99687 15.2219 5.99687L15.1625 6.175C15.1031 6.23438 14.1531 6.94687 12.3125 8.19375C10.4719 9.44063 9.58125 10.0344 9.52188 10.0344C9.52188 10.2125 9.225 10.5094 8.57188 11.0437C7.97813 11.5781 7.62188 11.8156 7.44375 11.8156V11.6969C8.15625 11.2219 9.7 9.79688 10.2344 9.38125C10.4719 9.32188 11.0063 9.025 11.7781 8.43125C12.6094 7.77812 13.025 7.42188 13.025 7.3625ZM21.8125 31.9438C21.9906 31.7656 22.4656 31.5281 23.2969 31.1125C24.1281 30.6969 24.6625 30.4594 24.8406 30.4594C24.8406 30.6969 24.5438 30.9344 24.0094 31.1125C23.475 31.2906 23.1781 31.4688 23.1187 31.5281H23.4156C23.4156 31.6469 23.3563 31.7063 23.1781 31.7063L23.0594 31.6469C23 31.5875 23 31.5875 22.9406 31.6469C22.9406 31.7063 22.9406 31.7656 23 31.7656C22.5844 31.9438 22.3469 32.0031 22.2875 32.0625C22.1094 32.1219 22.05 32.0625 22.05 32.0031C22.05 32.1813 21.8125 32.0625 21.8125 32.2406L21.6344 32.0625L21.8125 31.9438ZM19.1406 12.5875C19.1406 12.4094 19.2594 12.2313 19.5562 11.9344V12.4094C19.4375 12.4094 19.5562 12.5875 19.5562 12.7062L19.3188 13.1219C18.9031 14.25 18.6656 15.0813 18.6063 15.4969C18.6063 15.1406 18.4875 14.9625 18.3094 14.9625V15.0219C18.25 15.0219 18.25 15.0219 18.1906 15.0813L18.1313 15.1406L17.9531 15.0219V14.9625C17.9531 14.9031 18.0719 14.9031 18.25 14.9031V14.7844L18.3094 14.725L18.5469 14.9031V14.7844C18.5469 14.6656 18.5469 14.6062 18.4875 14.5469C18.725 14.725 18.9031 14.0125 18.9031 13.7156L18.8438 13.5969L18.9625 13.6562H19.0219C19.1406 13.4781 19.2 13.2406 19.2 12.9438L19.1406 12.7656V12.5875ZM24.8406 33.25V33.3094C24.7812 33.3688 24.7219 33.4281 24.6625 33.4281C24.7219 33.4875 24.7813 33.4875 24.9 33.4875C25.4938 33.4875 25.7906 33.3687 25.7906 33.1312C25.7906 33.0719 25.7312 33.0125 25.6125 33.0125C25.6125 32.9531 25.6125 32.9531 25.6719 32.8938H25.7313L25.85 32.9531L25.9688 33.0719L26.0875 33.1312L26.2063 33.0125L26.325 33.1312H26.3844C26.4438 33.1312 26.4438 33.1313 26.5031 33.0719H26.5625V33.1312C26.5031 33.25 26.2656 33.3688 25.7313 33.4875C25.4938 33.5469 25.3156 33.5469 25.2563 33.6063C25.0781 33.6656 25.0188 33.725 25.0781 33.7844L24.9594 33.725H24.3063C24.3063 33.6656 24.3656 33.6656 24.425 33.6063L24.6031 33.4875L24.5438 33.4281V33.3094L24.6031 33.25H24.5438C24.4844 33.25 24.4844 33.25 24.425 33.3094H24.3063V33.25C24.3063 33.1906 24.6031 33.0125 24.9 32.8344L25.1375 32.7156C25.1969 32.7156 25.2563 32.775 25.2563 32.8344L24.7812 33.1906L24.8406 33.25ZM34.6375 25.2938H34.6969C34.7563 25.2938 34.7563 25.2937 34.7563 25.3531C34.7563 25.5312 34.2812 26.2437 34.1031 26.2437L34.0438 26.1844L33.9844 26.125L33.925 26.1844V26.3031L33.9844 26.3625C33.9844 26.4219 33.925 26.4219 33.8063 26.4219C33.8063 26.125 33.6875 25.9469 33.45 25.9469V25.8281H33.6281C33.6281 25.7688 33.5094 25.5906 33.5094 25.5313V25.4125C33.5688 25.4125 33.5688 25.4125 33.6281 25.4719H33.6875H33.7469L33.925 25.3531C33.9844 25.3531 34.0438 25.4719 34.0438 25.5313C34.0438 25.65 34.1031 25.7094 34.2812 25.7094V25.3531C34.4594 25.3531 34.5188 25.5313 34.5781 25.5313L34.6375 25.4719V25.4125L34.5781 25.3531L34.6375 25.2938ZM16.0531 17.575C16.0531 17.0406 16.4094 16.2687 17.1219 15.2594V15.3188C17.1219 15.7344 16.5875 16.625 16.6469 17.0406L16.5281 17.1V17.1594L16.5875 17.2188V17.2781V17.3969C16.5875 17.3375 16.5281 17.3375 16.4688 17.2781C16.2906 17.2781 16.2313 17.575 16.0531 17.575ZM26.2656 15.2594L26.3844 15.1406L26.8 14.8438V14.6062C27.0969 14.6062 27.275 14.5469 27.275 14.4281V14.3094L27.2156 14.25C27.2156 14.1906 27.275 14.1313 27.3344 14.0719C27.3344 14.25 27.3938 14.3688 27.4531 14.3688C27.5719 14.3688 27.6313 14.1906 27.6313 13.8937H27.275C27.0969 14.1906 26.2063 14.725 26.2063 15.2594H26.2656ZM24.7219 16.15C24.7813 16.15 25.0188 16.0312 25.0781 16.0312L25.1375 16.0906C25.1375 16.15 25.1375 16.15 25.1969 16.15V15.9125C25.1969 15.9719 25.2563 15.9719 25.3156 15.9719C25.5531 15.9719 26.0875 15.4969 26.0281 15.2594L26.0875 15.3188H26.1469C26.0875 15.2594 26.0281 15.1406 26.0281 15.0813C25.7906 15.3187 24.7219 15.7938 24.7219 16.15ZM10.5906 10.6281C10.5906 10.5688 10.8281 10.3312 11.3625 9.91562C11.8969 9.5 12.2531 9.2625 12.4313 9.2625H12.6094C12.3125 9.61875 11.6594 10.0937 10.5906 10.6281ZM18.0719 15.9719H18.1313C18.25 15.9719 18.3094 16.0313 18.3688 16.2094C18.3688 16.625 17.9531 17.0406 17.1219 17.5156C17.0625 17.5156 17.0625 17.5156 17.0625 17.4563L17.0031 17.3969H17.0625L17.1219 17.3375L17.1813 17.2781L17.4188 17.0406L17.4781 17.1C17.6563 16.9219 17.8344 16.8031 17.8938 16.8031C17.8344 16.5656 18.0125 16.15 18.0125 16.0906L18.1313 16.2094V16.15L18.1906 16.0906L18.0719 15.9719ZM32.8563 9.61875C32.8563 9.38125 33.6281 8.3125 33.8656 8.075V8.13437C33.8656 8.43125 33.2125 9.5 32.9156 9.7375L32.8563 9.67813V9.61875ZM29.5906 31.9438L30.8375 31.1125C31.4906 30.5781 31.9063 30.3406 31.9656 30.3406V30.4594C31.7875 30.6375 31.3719 30.9344 30.6 31.4094C30.3625 31.4094 29.8875 32.0031 29.5906 32.0031H29.5313L29.5906 31.9438ZM29.3531 30.875C29.3531 30.9344 29.3531 30.9344 29.4125 30.9344L29.4719 30.9937C29.7688 30.9937 30.7781 30.2219 30.7781 30.0438H30.7188C30.3625 30.0438 29.8875 30.3406 29.3531 30.875ZM19.4969 11.6969C19.4969 11.2219 19.7938 10.7469 20.3281 10.2719C20.3281 10.5094 19.9125 11.1031 19.9125 11.3406H19.8531C19.7938 11.3406 19.7938 11.4594 19.7938 11.6969H19.4969ZM26.0281 30.1031C26.1469 30.1031 26.3844 29.5688 26.5625 29.925C26.325 29.8656 25.1969 30.9344 24.9594 30.9344H24.8406C24.9 30.8156 25.1375 30.5781 25.4344 30.2813C25.4938 30.3406 25.5531 30.2813 25.6125 30.2219L25.7906 30.1031C25.9094 30.0437 25.9688 29.9844 26.0281 29.9844V30.1031ZM9.99688 33.0719C10.4125 31.7063 10.5906 30.8156 10.5906 30.4C10.5906 30.2219 10.5906 30.1625 10.5313 30.1625C10.5906 30.8156 9.99688 32.3 9.99688 32.8344V33.0719ZM15.875 17.8719C15.875 17.7531 15.9344 17.6938 15.9938 17.6344L16.0531 17.8125L16.1719 18.05C16.2313 17.9906 16.2906 17.6344 16.4688 17.6344C16.4688 18.1094 16.4094 18.1094 15.9938 18.1094V18.3469H15.9344L15.875 18.4062L15.5188 18.6438V18.5844L15.875 17.8719ZM30.6594 8.96563C30.6594 8.49063 30.8375 8.19375 31.1344 8.075C31.1938 8.075 31.1938 8.13437 31.1938 8.25312L31.075 8.37188C30.9563 8.49063 30.8969 8.60937 30.8969 8.66875V8.72812L31.1938 8.55L31.2531 8.60938C31.2531 8.84688 31.075 8.96563 30.6594 8.96563ZM26.8594 32.7156C27.0969 32.7156 27.2156 32.4781 27.3938 32.4781C27.5719 32.4781 27.75 32.4781 27.8688 32.5375C27.8094 32.5969 27.6906 32.6562 27.4531 32.6562V32.8344C27.3938 32.8344 27.3344 32.775 27.3344 32.7156C27.3344 32.8938 27.1563 33.0125 26.8594 33.0125H26.8L26.6813 32.9531L26.8 32.8344L26.8594 32.7156ZM23.475 22.1469C23.5344 22.0875 23.8906 22.0281 24.5438 22.0281H24.7812L24.9594 22.2656C24.9 22.2063 24.7812 22.2656 24.7812 22.325L24.6031 22.2063L24.5438 22.325C24.4844 22.2656 24.425 22.2656 24.2469 22.2656C24.1875 22.2656 23.475 22.2063 23.4156 22.2063L23.475 22.1469ZM26.4438 30.9937C26.4438 31.1719 26.5031 31.2313 26.6219 31.2313L26.7406 31.1719H26.9188H26.9781C27.0375 31.2313 27.0375 31.2313 27.0969 31.2313H27.2156C27.0969 30.875 26.9188 30.6969 26.7406 30.6969L26.6219 30.875C26.5625 30.9344 26.5031 30.9344 26.4438 30.9344V30.9937ZM32.7969 25.1156C32.7969 24.9969 33.2125 24.4625 33.2125 24.9969C33.2125 25.4125 33.0344 25.65 32.7375 25.65V25.4719L32.8563 25.2344L32.7969 25.1156ZM29.0563 30.0438C29.1156 29.8656 29.3531 29.925 29.4125 29.6281C29.4719 29.6875 29.5313 29.7469 29.5906 29.7469V29.8062C29.65 29.8062 29.7094 29.6875 29.8281 29.5094C29.7688 29.5094 29.7094 29.45 29.5906 29.3906H29.5313C29.4719 29.45 29.4125 29.45 29.3531 29.45L29.2344 29.3313C29.1156 29.5688 29.0563 29.7469 29.0563 29.925V30.0438ZM25.0781 35.4469C25.0781 35.2688 26.0875 34.5563 26.2656 34.5563V34.7938L25.9688 34.9719L25.7313 35.0312C25.6719 35.0312 25.5531 35.15 25.2563 35.4469H25.0781ZM6.43438 12.7656C6.43438 12.7062 7.0875 12.0531 7.325 11.875H7.38438C7.325 12.1719 6.49375 12.825 6.43438 12.8844V12.7656ZM32.3219 27.3125C32.5 27.3125 32.5594 27.3719 32.5594 27.4906C32.5594 27.6688 32.5 27.7875 32.3219 27.7875C32.1438 27.7875 31.9063 27.55 31.9063 27.7281C31.9063 27.8469 31.9063 27.9063 31.9656 27.9063H31.9063C31.7875 27.9063 31.7281 27.7875 31.7281 27.4906C31.9063 27.4906 32.2031 27.6094 32.2625 27.6094H32.3219V27.3125ZM27.5719 30.5188L27.6313 30.6375L27.75 30.5781C27.75 30.5781 27.75 30.5781 27.8094 30.5781H27.8688L27.9281 30.6969H27.9875C27.9875 30.5187 28.1656 30.2813 28.1656 30.2219C28.1656 30.1625 28.1656 30.1031 28.1063 30.1031L27.9875 30.2813C27.9281 30.2813 27.8688 30.2219 27.8688 30.1031C27.6906 30.1625 27.5719 30.2813 27.5719 30.4594V30.5188ZM12.1938 36.6344C12.2531 36.575 12.3719 36.5156 12.55 36.5156C12.9656 36.5156 13.3219 36.575 13.5594 36.6344L13.5 36.6937H13.0844C12.55 36.6937 12.2531 36.6938 12.1938 36.6344ZM24.3063 18.1688C24.3063 18.1094 25.0781 17.3969 25.2563 17.3969V17.575L24.3063 18.2281V18.1688ZM26.0281 16.9219C26.2063 16.6844 27.2156 15.8531 27.275 15.8531H27.3344C27.3344 15.9125 27.275 16.0313 27.1563 16.0906L26.1469 16.9219H26.0281ZM2.69375 21.1969H2.8125C2.8125 21.4344 3.40625 21.7312 3.40625 22.0281V22.1469C3.2875 22.0875 3.22813 21.9687 3.22813 21.7906C3.05 21.7906 2.63438 21.5531 2.63438 21.375L2.69375 21.1969ZM16.1125 5.52188C16.2906 5.28437 17.0031 4.9875 17.1813 4.92813V4.9875C17.1813 5.16562 16.4688 5.52188 16.2313 5.52188H16.1125ZM28.2844 17.1C27.6313 17.5156 27.2156 17.8719 27.0969 18.1688C27.4531 17.9906 27.8688 17.6344 28.2844 17.1ZM23.8313 16.8031L24.0094 16.9813C24.2469 16.9813 24.2469 16.625 24.3063 16.625H24.3656C24.3656 16.6844 24.3656 16.6844 24.425 16.7437V16.8031C24.4844 16.7438 24.7812 16.5656 24.7812 16.3875C24.3656 16.3875 24.1281 16.5063 24.1281 16.8031H23.8313ZM4.95 14.4281C5.24688 13.8938 5.425 13.6563 5.60313 13.5969V13.6562C5.30625 14.1906 5.12813 14.4281 5.00938 14.4281H4.95ZM13.3813 27.075C13.4406 27.075 13.4406 27.075 13.5 27.1344V27.4312C13.8563 27.4312 14.0344 27.1938 14.0344 26.7781L13.975 26.7188C13.6188 26.8969 14.0344 27.075 13.3813 27.075ZM28.6406 14.1906C28.6406 13.7156 28.8188 13.4781 29.1156 13.4781V13.5969L28.8188 13.8937V13.9531C28.8781 13.9531 29.0563 13.775 29.1156 13.775C29.1156 13.9531 28.9375 14.0719 28.6406 14.1906ZM30.7188 27.3125L31.1938 26.7781C31.2531 26.7188 31.3125 26.7188 31.3719 26.7188H31.4313C31.1938 27.1938 30.9563 27.4312 30.7188 27.4312V27.3125ZM26.9188 29.6281C27.0969 29.6281 26.8594 29.8656 26.8594 29.6875C26.8 29.7469 26.6812 29.8062 26.6219 29.8062C26.6219 29.45 26.8594 29.2719 27.3344 29.2719C27.3344 29.45 27.2156 29.5688 26.9781 29.5688V29.6281H26.9188ZM20.7438 32.4781C20.9813 32.2406 21.2188 32.1219 21.5156 32.1219H21.575C21.575 32.3594 21.3375 32.4781 20.8031 32.4781H20.7438ZM27.5719 29.6875C28.0469 29.3906 28.4031 29.1531 28.5813 29.0938V29.1531C28.5813 29.3313 27.8688 29.6875 27.6906 29.6875H27.5719ZM28.4625 14.8438H28.5219C28.4625 15.1406 28.0469 15.4969 27.8094 15.4969C27.75 15.4969 27.75 15.4969 27.75 15.4375L28.4625 14.8438ZM29.175 10.9844C29.4125 10.45 29.65 10.2125 29.8281 10.2125L29.8875 10.2719C29.65 10.7469 29.4125 10.9844 29.2344 10.9844H29.175ZM28.1656 28.9156C28.3438 28.5594 28.5813 28.3813 28.8188 28.3813H28.9969C28.8188 28.5594 28.5813 28.7375 28.1656 28.975V28.9156ZM27.75 14.6656C27.9281 14.4875 28.3437 14.25 28.4031 14.0719C28.4031 14.1313 28.4625 14.25 28.5219 14.3094C28.4031 14.5469 28.2844 14.6656 28.1656 14.6656H28.1063L28.4031 14.3094H28.3438C28.1656 14.3094 27.9875 14.6656 27.8094 14.6656H27.75ZM26.3844 13.5969C26.4438 13.4188 27.0969 12.825 27.1563 12.8844L27.2156 12.9438C26.8 13.3594 26.5031 13.5969 26.4438 13.5969H26.3844ZM15.2813 5.9375C15.4594 5.64063 15.7563 5.52188 16.0531 5.52188C16.0531 5.58125 15.5781 5.99687 15.4 5.99687C15.3406 6.05625 15.2813 6.05625 15.2813 5.9375ZM30.5406 11.5188V11.5781C30.5406 11.6375 30.3625 11.875 29.9469 12.2906L29.8875 12.2313L30.5406 11.5188ZM2.04063 18.7031C2.04063 18.4063 2.15938 18.1687 2.3375 17.9906C2.45625 17.9906 2.51562 18.05 2.51562 18.1094V18.1688L2.39688 18.1094C2.3375 18.1687 2.21875 18.7031 2.04063 18.7031ZM27.5125 12.6469C27.5719 12.35 27.75 12.1719 28.0469 12.1125V12.1719C27.8688 12.4688 27.75 12.6469 27.5719 12.6469H27.5125ZM14.1531 35.8031C14.2719 35.625 14.5094 35.5062 14.8063 35.5062C14.8063 35.6844 14.6281 35.8031 14.2125 35.8031H14.1531ZM32.8563 4.45312C32.8563 4.39375 32.8563 4.39375 32.9156 4.39375C33.0938 4.5125 33.1531 4.69062 33.1531 4.92813C33.0938 4.92813 33.0344 4.80937 32.8563 4.80937V4.45312ZM13.2625 8.66875C13.4406 8.66875 13.6781 8.37188 13.8563 8.37188C13.7969 8.66875 13.6188 8.7875 13.3219 8.7875C13.2625 8.7875 13.2031 8.72813 13.2031 8.60938L13.2625 8.55V8.66875ZM30.8375 12.1125C30.8375 11.7562 30.8969 11.5781 31.075 11.5781V11.7562L31.1344 11.8156V11.875C31.1344 12.0531 31.0156 12.1125 30.8375 12.1125ZM3.525 16.0906C3.525 15.9719 3.82188 15.675 4 15.4969H4.05938V15.6156L3.64375 16.0906C3.64375 16.15 3.58437 16.15 3.525 16.2094V16.0906ZM20.7438 35.2688C20.8625 35.15 21.1 35.0906 21.4563 35.0906V35.2094C21.2781 35.2094 20.9813 35.3281 20.9219 35.3281H20.8625L20.7438 35.2688ZM33.3906 8.075C33.3906 8.01562 33.5094 7.77812 33.7469 7.30313V7.42188C33.7469 7.8375 33.6281 8.075 33.3906 8.075ZM9.28438 25.175C9.28438 24.8781 9.34375 24.7594 9.4625 24.7594H9.58125C9.58125 25.0562 9.4625 25.175 9.28438 25.175ZM30.3625 9.5H30.4813C30.4813 9.67812 30.1844 9.975 30.0063 9.975V9.85625L30.3625 9.5ZM32.0844 30.9937C32.0844 30.9344 32.3812 30.6375 32.5594 30.6375H32.6187C32.5594 30.8156 32.3813 30.9344 32.0844 31.0531V30.9937ZM30.3625 12.6469C30.3625 12.35 30.4219 12.2313 30.6 12.2313C30.6594 12.2313 30.6594 12.2313 30.7188 12.2906C30.7188 12.5281 30.6 12.6469 30.3625 12.6469ZM27.8688 13.7156C27.75 13.775 27.6906 13.8938 27.6906 14.0125C27.9281 14.0125 28.0469 13.9531 28.0469 13.775C28.0469 13.6562 27.9281 13.5969 27.75 13.5969C27.75 13.6563 27.8094 13.7156 27.8688 13.7156ZM34.1625 7.30313L34.2219 7.3625C34.2219 7.42188 34.1625 7.6 34.1031 7.77812L33.9844 8.01562H33.925L33.8656 7.95625L34.1625 7.30313ZM26.5625 15.6156C26.5625 15.3781 26.6812 15.2594 26.9781 15.2594C26.9781 15.4969 26.8594 15.6156 26.5625 15.6156ZM30.6 28.7969C30.8969 28.7969 30.8969 28.3219 30.7188 28.3219C30.6594 28.5594 30.6 28.7375 30.6 28.7969ZM32.4406 10.2719C32.4406 10.0937 32.7969 9.79688 32.8563 9.79688C32.8563 9.85625 32.7969 9.975 32.6781 10.1531L32.5 10.3906L32.4406 10.2719ZM28.6406 14.725C28.6406 14.5469 29.0563 14.25 29.2344 14.25L28.7594 14.725H28.6406ZM26.9781 34.0219C27.275 34.0219 27.3938 33.9031 27.4531 33.725C27.2156 33.725 27.0375 33.8437 26.9188 34.0219H26.9781ZM31.3125 10.8656C31.3125 10.7469 31.4313 10.5687 31.7281 10.3312C31.7281 10.5094 31.6094 10.7469 31.3125 10.925V10.8656ZM6.07812 22.8594C6.1375 22.6813 6.31562 22.6219 6.55312 22.6219C6.55312 22.8 6.43438 22.9187 6.19688 22.9187H6.1375L6.07812 22.8594ZM22.5844 18.05C22.7625 18.05 22.8813 17.9313 22.8813 17.6344C22.8219 17.6344 22.7625 17.7531 22.5844 17.9313L22.525 17.9906L22.5844 18.05ZM13.0844 28.2625C13.0844 28.3813 13.1438 28.4406 13.3219 28.4406C13.5 28.4406 13.5 28.0844 13.2625 28.0844V28.2625H13.0844ZM33.9844 24.5813C34.0438 24.5813 34.1031 24.6406 34.1625 24.7H34.2219C34.2219 24.6406 34.4 24.5219 34.4 24.3438C34.2812 24.3438 34.1625 24.4031 33.9844 24.5813ZM21.6344 35.0906C21.9313 35.0313 22.1688 34.9719 22.2875 34.9719V35.0312C22.2875 35.0906 22.1094 35.15 21.8125 35.15L21.6344 35.0906ZM32.5 6.35312H32.6187C32.6187 6.65 32.3813 6.70938 32.3219 6.76875L32.2625 6.70938L32.5 6.35312ZM3.58438 20.1875C3.88125 20.1875 4 20.3062 4 20.6031H3.88125L3.58438 20.2469V20.1875ZM27.5125 15.1406C27.5125 14.9625 27.6313 14.8438 27.9281 14.7844V14.8438C27.9281 14.9625 27.8094 15.0813 27.5125 15.2V15.1406ZM4.41563 15.0219C4.41563 14.7844 4.53438 14.6062 4.83125 14.5469C4.83125 14.6062 4.475 15.0219 4.41563 15.0219ZM34.1625 29.45C34.3406 29.3906 34.4594 29.3313 34.4594 29.1531V29.0344C34.2813 29.2125 34.1625 29.3313 34.1625 29.3906V29.45ZM11.0656 34.2594C11.0656 34.2 11.0063 34.1406 10.9469 34.0813H11.1844C11.1844 34.3781 11.125 34.5563 10.9469 34.5563L10.8875 34.4969C11.0063 34.4375 11.0656 34.3188 11.0656 34.2594ZM30.8375 10.45C30.8375 10.2719 30.8969 10.2125 31.0156 10.2125C31.1938 10.2125 31.1938 10.2719 31.1344 10.45H30.8375ZM29.8281 13.5969H29.8875C29.7688 13.8344 29.5906 14.0125 29.3531 14.1313V14.0719L29.8281 13.5969ZM33.3313 4.275L33.2125 4.15625H33.2719C33.45 4.15625 33.5094 4.21562 33.5094 4.39375L33.45 4.5125L33.3906 4.69063L33.3313 4.5125L33.3906 4.39375V4.33437L33.3313 4.275ZM21.9313 22.2063C21.9313 22.1469 21.9313 22.1469 21.9906 22.1469L22.1094 22.2063L22.2281 22.1469C22.3469 22.1469 22.4063 22.1469 22.4656 22.2063V22.2656H22.2875L22.05 22.325C21.9906 22.325 21.9906 22.2656 21.9313 22.2063ZM13.5594 27.7281C13.3219 27.9062 13.3219 28.025 13.5594 28.2031V27.7281ZM15.875 7.42188L16.2313 7.18437L16.2906 7.125H16.2313C16.0531 7.125 15.875 7.24375 15.7563 7.42188H15.875ZM28.9375 28.9156C29.1156 28.6187 29.2344 28.5 29.4125 28.5C29.3531 28.7969 29.175 28.9156 28.9375 28.9156ZM11.6 7.71875L11.7188 7.65938L12.0156 7.42188H12.075C12.075 7.54063 11.8969 7.65938 11.6 7.77812V7.71875ZM19.5562 3.8C19.5562 3.74063 19.6156 3.74062 19.7344 3.74062C19.8531 3.62187 19.9719 3.5625 20.0313 3.5625L20.15 3.62187C20.0906 3.68125 19.8531 3.74062 19.5562 3.85938V3.8ZM33.1531 4.0375C32.975 4.09688 32.8563 3.97813 32.8563 3.68125V3.62187L33.0938 3.91875L33.1531 3.97813V4.0375ZM14.9844 7.89688C15.1625 7.89688 15.3406 7.8375 15.4 7.65938H15.3406C15.1031 7.65938 14.9844 7.71875 14.9844 7.89688ZM31.1344 10.1531C31.1344 9.91563 31.1938 9.79688 31.3719 9.79688C31.3719 10.0344 31.3125 10.1531 31.1344 10.1531ZM11.0063 36.575L11.3031 36.3969C11.3031 36.3375 11.3031 36.3375 11.3625 36.3375V36.4563L11.2438 36.575V36.6344H11.0063V36.575ZM8.80938 11.1625C8.80938 10.925 8.92813 10.8063 9.10625 10.8063V10.8656L8.80938 11.2219V11.1625ZM27.4531 12.1719C27.4531 12.1125 27.5125 12.0531 27.6313 11.9344C27.6906 11.9937 27.75 12.0531 27.75 12.1125L27.6313 12.2313C27.5719 12.1719 27.5125 12.1719 27.4531 12.1719ZM31.7281 7.95625C31.6688 7.89688 31.6094 7.65938 31.9063 7.65938C31.9063 7.8375 31.8469 7.89688 31.7281 7.95625ZM17.8938 15.4969C17.8938 15.4375 17.8938 15.3781 17.9531 15.2594H18.0719C18.0719 15.4969 18.0125 15.6156 17.8938 15.6156V15.4969ZM32.2031 28.3813L32.3219 28.3219H32.4406L32.5 28.3813C32.4406 28.4406 32.3219 28.5 32.1438 28.5C32.0844 28.5 32.025 28.5 32.025 28.4406L32.2031 28.3813ZM28.9969 32.3594C28.9969 32.1812 29.1156 32.1219 29.2938 32.1219H29.3531L28.9969 32.4188V32.3594ZM1.8625 20.2469L1.92188 20.1875H1.98125L2.1 20.6625C1.92188 20.4844 1.8625 20.3656 1.8625 20.3063V20.2469ZM19.1406 33.6063L19.2594 33.725C19.3188 33.725 19.3188 33.6656 19.3188 33.6063L19.4969 33.4875H19.4375C19.2594 33.4875 19.1406 33.4875 19.1406 33.5469V33.6063ZM31.3719 28.975C31.3719 28.8563 31.4313 28.7969 31.55 28.7969V28.8563C31.55 29.0344 31.4906 29.1531 31.4313 29.1531L31.3719 28.975ZM17.775 33.6063C17.8344 33.5469 17.9531 33.4875 18.1313 33.4875H18.25C18.1313 33.6063 18.0125 33.6656 17.8938 33.6656H17.8344L17.775 33.6063ZM11.7781 35.7438C11.7781 35.625 11.8969 35.5656 12.1344 35.5656C12.1344 35.6844 12.0156 35.7438 11.7781 35.7438ZM30.8969 11.3406C30.8969 11.1031 31.0156 10.9844 31.1938 10.9844C31.1938 11.2219 31.075 11.3406 30.8969 11.3406ZM11.6 31.0531C11.6 30.9344 11.6594 30.875 11.7781 30.875V31.2313C11.6594 31.1719 11.6 31.1125 11.6 31.0531ZM26.4438 32.1813V32.2406C26.5625 32.1812 26.6219 32.0625 26.6219 31.9438C26.5625 31.9438 26.4438 32.0031 26.3844 32.0625V32.1219L26.4438 32.1813ZM12.4313 32.4188C12.6688 32.5375 12.1938 32.5375 12.4313 32.4188C12.3719 32.4781 12.3125 32.4781 12.3125 32.4188L12.2531 32.3594H12.3125C12.3125 32.3 12.3719 32.2406 12.4906 32.1219V32.2406C12.4906 32.3594 12.4906 32.4188 12.4313 32.4188ZM6.55312 21.0188C6.49375 20.9 6.43438 20.8406 6.25625 20.8406H6.19688C6.25625 20.9594 6.31563 21.0188 6.43438 21.0188H6.55312ZM33.9844 27.55L34.0438 27.6688C34.1031 27.6688 34.1031 27.6688 34.1031 27.6094C34.1031 27.6094 34.1625 27.3719 34.1625 27.3125C34.0438 27.3125 33.9844 27.3719 33.9844 27.4906V27.55ZM19.9125 8.13437C19.9125 8.01562 19.7344 7.95625 19.4375 7.95625C19.675 8.075 19.8531 8.13437 19.9125 8.13437ZM33.2125 3.325C33.2125 3.26563 33.0938 3.20625 33.0938 3.02812H32.975C32.975 3.20625 33.0344 3.325 33.2125 3.38437V3.325ZM27.1563 30.6375C27.1563 30.7563 27.2156 30.8156 27.3344 30.8156V30.5188L27.1563 30.6375ZM16.8844 12.5875C16.8844 12.4094 16.9437 12.2906 17.0625 12.2906C17.0625 12.4688 17.0031 12.5875 16.8844 12.5875ZM29.7094 31.4094C29.7094 31.2313 29.7688 31.1719 29.9469 31.1719H30.125L29.7094 31.4094ZM4.2375 15.1406L4.35625 15.0219C4.35625 15.2 4.29688 15.3188 4.17813 15.3781L4.11875 15.3188L4.2375 15.1406ZM5.95938 13.3C5.95938 13.2406 6.01875 13.1219 6.19688 12.9438V13.0031C6.19688 13.0625 6.1375 13.1813 6.01875 13.3H5.95938ZM30.3031 31.0531C30.3031 30.875 30.4219 30.7563 30.6 30.7563H30.7188L30.6594 30.8156H30.6L30.3625 31.0531H30.3031ZM30.4813 29.8656C30.6594 29.8656 30.7188 29.8063 30.7188 29.6281C30.6 29.6281 30.4813 29.6875 30.4219 29.8656H30.4813ZM30.5406 9.14375C30.5406 9.08438 30.5406 9.08438 30.6 9.025V8.96563C30.6594 9.025 30.7188 9.08438 30.7188 9.14375C30.7188 9.20313 30.6594 9.20312 30.6 9.2625L30.5406 9.20312V9.14375ZM29.9469 29.45C30.0063 29.3906 30.0656 29.3313 30.0656 29.1531C29.9469 29.1531 29.8875 29.2125 29.8875 29.2719L29.9469 29.45ZM24.9594 31.7063C24.9594 31.825 25.0188 31.8844 25.1969 31.8844C25.1969 31.825 25.1375 31.7063 25.0188 31.6469L24.9594 31.7063ZM24.7812 32.3594C24.5438 32.3594 24.5438 32.4188 24.7812 32.6562V32.3594ZM13.1438 27.8469C13.3219 27.7875 13.3813 27.6688 13.3813 27.55H13.2625L13.1438 27.7875V27.8469ZM20.3875 3.50313C20.5063 3.38437 20.625 3.325 20.8031 3.325L20.8625 3.38437L20.6844 3.44375C20.5656 3.50313 20.5063 3.50313 20.4469 3.50313H20.3875ZM25.6719 14.1313L26.0281 13.8937H26.0875L25.7313 14.1906H25.6719V14.1313ZM20.8625 4.92813C21.0406 4.92813 21.1594 4.86875 21.2188 4.75H21.1594L20.8031 4.92813H20.8625ZM28.5813 11.5781C28.7594 11.4 28.8188 11.3406 28.8188 11.2812H28.9375L28.6406 11.6375H28.5813V11.5781ZM31.7875 10.9844H32.025L31.9063 11.1625H31.7875V10.9844ZM9.81875 35.9219C9.81875 35.7437 9.87813 35.6844 9.99688 35.6844V35.8031L9.9375 35.9813C9.87812 35.9813 9.87813 35.9812 9.81875 35.9219ZM30.125 29.7469L30.3031 29.5094H30.2438C30.125 29.5094 30.0656 29.5688 30.0656 29.6875L30.125 29.7469ZM24.6031 32.0031C24.6031 31.9438 24.5438 31.9438 24.425 31.9438V32.2406L24.6031 32.0031ZM34.7563 23.3938C34.7563 23.2156 34.6969 23.1563 34.5781 23.1563V23.2156C34.5781 23.3344 34.6375 23.3938 34.7563 23.3938ZM12.9656 8.96563C12.9656 8.90625 13.025 8.84687 13.1438 8.72812L13.2031 8.84687C13.1438 8.90625 13.025 8.96563 12.9656 8.96563ZM31.6094 26.3031C31.7281 26.1844 31.7875 26.125 31.7875 26.0656C31.8469 26.0656 31.8469 26.0656 31.8469 26.125C31.8469 26.1844 31.7875 26.3031 31.6094 26.3625V26.3031ZM19.8531 13.8937C19.9125 13.8344 19.9719 13.7156 19.9719 13.6562L19.9125 13.5375C19.8531 13.5969 19.8531 13.6562 19.8531 13.775V13.8937ZM14.0938 19.475C14.0938 19.3563 14.1531 19.2969 14.2125 19.2969H14.2719L14.3313 19.3563C14.2719 19.4156 14.1531 19.475 14.0938 19.475ZM25.1375 22.2063C25.1969 22.1469 25.3156 22.0875 25.375 22.0875C25.375 22.2062 25.3156 22.2656 25.2563 22.2656H25.1969L25.1375 22.2063ZM18.5469 4.275C18.5469 4.21562 18.6063 4.15625 18.725 4.15625H18.8438L18.6656 4.275L18.5469 4.33437V4.275ZM11.7188 28.2625C11.7188 28.4406 11.7188 28.5 11.7781 28.5C11.8375 28.4406 11.8375 28.3813 11.8375 28.2031L11.7188 28.2625ZM14.5688 8.075C14.6281 8.075 14.7469 8.01563 14.925 7.95625H14.8063C14.6875 7.95625 14.5688 8.01562 14.5094 8.075H14.5688ZM34.5781 29.45L34.6375 29.3906L34.6969 29.3313C34.875 29.3313 34.6375 28.9156 34.6375 29.3313V29.2719C34.5781 29.2719 34.5781 29.3906 34.6375 29.3906L34.5781 29.3313C34.5188 29.3313 34.5187 29.3906 34.5187 29.45V29.3906C34.4594 29.3906 34.4594 29.5094 34.5187 29.5094L34.5781 29.45ZM31.4313 9.79688C31.4313 9.61875 31.4906 9.55937 31.6094 9.55937C31.6094 9.61875 31.55 9.7375 31.4906 9.79688H31.4313ZM30.0063 30.1625C30.0656 30.1625 30.1844 30.1031 30.3031 29.9844H30.2438C30.0656 29.9844 30.0063 30.0438 30.0063 30.1625ZM27.8094 3.14687C27.6906 3.14687 27.6313 3.0875 27.6313 2.96875C27.6906 2.96875 27.8094 3.02812 27.8688 3.02812C27.8688 3.0875 27.8688 3.0875 27.8094 3.14687ZM33.1531 8.37188C33.1531 8.25313 33.2125 8.19375 33.2719 8.19375C33.2719 8.37187 33.2125 8.43125 33.1531 8.49063V8.37188ZM34.6969 28.3219C34.7563 28.3219 34.7563 28.3219 34.7563 28.2625L34.8156 28.2031H34.875C34.9344 28.2031 34.9344 28.0844 34.875 28.0844C34.875 28.1438 34.875 28.1438 34.8156 28.2031H34.7563L34.6375 28.2625L34.6969 28.3219ZM32.3813 28.7969C32.2031 28.7969 32.4406 29.0344 32.4406 28.8563H32.5C32.6188 28.8563 32.5594 28.6188 32.3813 28.7969ZM25.85 30.7563C25.85 30.6969 25.9094 30.6375 26.0875 30.6375C26.0875 30.6969 26.0281 30.7563 25.85 30.7563ZM31.2531 31.5875C31.2531 31.4687 31.3125 31.4094 31.4313 31.4094H31.4906C31.4313 31.5281 31.3719 31.5875 31.2531 31.5875ZM30.5406 13.0031C30.5406 12.825 30.6 12.7656 30.7188 12.7656C30.7188 12.825 30.6594 12.9438 30.5406 13.0031ZM25.4938 16.4469C25.5531 16.3281 25.6719 16.2687 25.7313 16.2687C25.7313 16.3875 25.6719 16.4469 25.4938 16.4469ZM35.1719 25.175C35.2313 25.175 35.2906 25.1156 35.2906 24.9969V24.8781C35.2313 24.9375 35.1719 25.0563 35.1719 25.175ZM27.9281 11.6969C27.9281 11.6375 27.9875 11.6375 28.1656 11.6375C28.1656 11.6969 28.1063 11.7562 27.9875 11.7562L27.9281 11.6969ZM15.4594 7.6C15.6375 7.6 15.6969 7.54062 15.6969 7.48125H15.6375C15.4594 7.48125 15.4 7.54063 15.4594 7.6ZM29.2938 13.7156C29.2938 13.5969 29.3531 13.5375 29.4719 13.5375C29.4719 13.6562 29.4125 13.7156 29.2938 13.7156ZM23.95 33.5469C23.95 33.4281 24.0094 33.3688 24.1281 33.3688C24.1281 33.4875 24.0688 33.5469 23.95 33.5469ZM28.9375 15.6156V15.675C28.9375 15.2594 29.175 15.675 28.9969 15.675C28.9969 15.7344 28.9969 15.7344 28.9375 15.7344V15.6156ZM25.9688 16.9813C25.7906 17.1594 25.7313 17.2188 25.6719 17.2188H25.6125C25.6719 17.1594 25.7906 17.1 25.85 16.9813H25.9688ZM25.7906 22.325C25.7906 22.2656 25.85 22.2063 26.0281 22.2063C26.0281 22.2656 25.9688 22.325 25.7906 22.325ZM18.1313 4.45312C18.1313 4.39375 18.1906 4.33437 18.3094 4.33437C18.3094 4.45312 18.25 4.5125 18.1313 4.5125V4.45312ZM30.6 1.1875L31.0156 1.54375L30.6 1.1875ZM27.0969 22.3844H27.1563H27.2156L27.3344 22.5031H27.275C27.2156 22.5031 27.0969 22.5031 27.0375 22.4438L27.0969 22.3844ZM25.375 31.825C25.4938 31.825 25.6125 31.7656 25.6719 31.7063H25.6125C25.4344 31.7063 25.375 31.7656 25.375 31.825ZM12.6094 35.625H12.7875C12.7875 35.6844 12.7281 35.6844 12.6688 35.7438L12.6094 35.8031V35.625ZM32.2625 10.6281C32.2031 10.6281 32.2031 10.5688 32.2031 10.45H32.3813C32.3813 10.5094 32.3219 10.5688 32.2625 10.6281ZM19.3188 33.0719C19.3781 33.0125 19.4969 32.9531 19.5562 32.9531H19.6156C19.6156 33.0125 19.5563 33.0719 19.4375 33.0719H19.3188ZM9.81875 34.2594C9.75938 34.2594 9.75938 34.6156 9.81875 34.675V34.2594ZM33.7469 24.2844C33.6281 24.2844 33.5688 24.225 33.5688 24.1656C33.6281 24.1656 33.7469 24.1656 33.8063 24.225L33.7469 24.2844ZM27.5125 29.3313C27.5125 29.2125 27.5125 29.1531 27.5719 29.0938C27.6313 29.1531 27.6313 29.2125 27.6313 29.2719C27.6313 29.3313 27.5719 29.3313 27.5125 29.3313ZM9.225 26.3031C9.16563 26.3031 9.16563 26.125 9.225 26.125C9.40312 26.125 9.40312 26.3031 9.225 26.3031ZM33.6875 27.4906C33.7469 27.4906 33.7469 27.3125 33.6875 27.3125C33.5094 27.3125 33.5094 27.4906 33.6875 27.4906ZM32.8563 28.0844V27.9063C32.7969 27.9063 32.7375 27.9656 32.7375 28.0844H32.8563ZM29.5313 28.1438C29.3531 28.1438 29.3531 27.9656 29.5313 27.9656C29.5906 27.9656 29.5906 28.1438 29.5313 28.1438ZM30.125 12.7062C29.9469 12.7062 29.9469 12.5281 30.125 12.5281C30.1844 12.5281 30.1844 12.7062 30.125 12.7062ZM25.2563 31.6469C25.4344 31.6469 25.4344 31.4688 25.2563 31.4688C25.1969 31.4688 25.1969 31.6469 25.2563 31.6469ZM31.3125 14.4281C31.3719 14.4281 31.3719 14.25 31.3125 14.25C31.1344 14.25 31.1344 14.4281 31.3125 14.4281ZM19.9125 32.8938C19.8531 32.8938 19.8531 32.7156 19.9125 32.7156C20.0906 32.7156 20.0906 32.8938 19.9125 32.8938ZM9.4625 33.1312C9.52188 33.1312 9.58125 33.0719 9.58125 32.9531C9.58125 32.8937 9.58125 32.8938 9.52188 32.8938C9.4625 32.9531 9.4625 33.0125 9.4625 33.0719V33.1312ZM21.2188 33.4281C21.2781 33.4281 21.2781 33.25 21.2188 33.25C21.0406 33.25 21.0406 33.4281 21.2188 33.4281ZM26.4438 15.0219C26.3844 15.0219 26.3844 14.8438 26.4438 14.8438C26.6219 14.8438 26.6219 15.0219 26.4438 15.0219ZM23.475 15.675C23.4156 15.675 23.4156 15.4969 23.475 15.4969C23.6531 15.4969 23.6531 15.675 23.475 15.675ZM11.3625 35.8031C11.4219 35.7437 11.5406 35.6844 11.6 35.6844V35.8031H11.3625ZM19.3188 3.85938C19.3188 4.21562 19.1406 3.91875 19.2594 3.91875V3.97813C19.2594 3.91875 19.2594 3.85938 19.3188 3.85938ZM9.81875 10.3312C9.75938 10.3312 9.75938 10.1531 9.81875 10.1531C9.99688 10.1531 9.99688 10.3312 9.81875 10.3312ZM26.2063 31.2906C26.0281 31.2906 26.0875 31.5281 26.1469 31.5281C26.2063 31.4688 26.2063 31.4094 26.2063 31.2906ZM28.4625 33.4281L28.5219 33.4875C28.5813 33.4281 28.5813 33.3687 28.5813 33.25C28.5219 33.25 28.4625 33.3094 28.4625 33.3688V33.4281ZM22.7031 22.0875L22.8813 22.2063H22.6438L22.7031 22.0875ZM23.1187 22.5031L23.1781 22.5625C23.1188 22.7406 23 22.6813 23 22.6219L23.1187 22.5031ZM30.3625 13.3C30.3031 13.3 30.3031 13.1219 30.3625 13.1219V13.2406C30.3625 12.825 30.6 13.2406 30.4219 13.2406H30.3625V13.3ZM24.9 30.5188C24.8406 30.5188 24.8406 30.3406 24.9 30.3406V30.4594C24.9 30.0438 25.1375 30.4594 24.9594 30.4594H24.9V30.5188ZM11.125 31.1125C11.0656 31.0531 11.0063 30.9938 11.0063 30.9344H11.1844L11.125 31.0531C11.125 31.0531 11.125 31.0531 11.125 31.1125ZM23.2375 0.712498L23.2969 0.653124H23.3563L23.475 0.771876H23.2375V0.712498ZM20.8625 16.8625C20.8031 16.8625 20.8031 16.6844 20.8625 16.6844V16.8031C20.8625 16.3875 21.1 16.8031 20.9219 16.8031H20.8625V16.8625ZM25.85 32.7156H25.9094L26.0281 32.8344L26.0875 32.9531H26.0281L25.85 32.7156ZM26.1469 15.9125C26.1469 15.8531 26.2063 15.7938 26.325 15.7938H26.3844C26.325 15.8531 26.2063 15.9125 26.1469 15.9125ZM27.5125 22.5625H27.5719C27.6906 22.5625 27.75 22.6219 27.75 22.6812V22.7406L27.5125 22.5625ZM15.0438 6.47187C15.1031 6.4125 15.2219 6.35312 15.2813 6.35312H15.3406C15.2813 6.4125 15.1625 6.47187 15.1031 6.47187H15.0438ZM13.975 28.3813C14.0344 28.3813 14.0938 28.3219 14.0938 28.2031V28.1438C14.0344 28.2031 13.975 28.2625 13.975 28.3219V28.3813ZM33.2719 28.2031H33.0938L33.1531 28.3813L33.2719 28.2031ZM25.5531 2.90937L25.6125 2.96875H25.1969C25.2563 2.96875 25.3156 2.96875 25.375 2.90937H25.4938H25.5531ZM12.6094 36.8719C12.6094 36.8125 12.6688 36.8125 12.7875 36.8125C12.8469 36.8125 12.9063 36.8125 12.9656 36.8719H12.6094ZM12.7875 9.025V8.96563L12.9062 9.08438L12.7281 9.14375V9.08438L12.7875 9.025ZM21.6938 3.02812H21.8125C21.7531 3.0875 21.6938 3.14687 21.6344 3.14687H21.575L21.6938 3.02812ZM20.9813 22.6812C21.0406 22.6812 21.1 22.7406 21.1 22.8L21.0406 22.8594H20.9813V22.6812ZM29.65 28.3219C29.7094 28.2625 29.8281 28.2031 29.8875 28.2031C29.8281 28.2625 29.7688 28.3219 29.7094 28.3219H29.65ZM34.2219 9.32187C34.1625 9.32187 34.1625 9.32188 34.1625 9.38125L34.2812 9.44063L34.3406 9.32187V9.2625L34.2219 9.32187ZM14.8063 6.76875C14.8063 6.94687 14.5688 6.70938 14.7469 6.70938V6.76875C14.7469 6.35312 14.9844 6.76875 14.8063 6.76875ZM21.1 3.26563C21.1 3.20625 21.1594 3.20625 21.3375 3.20625H21.4563L21.2781 3.26563H21.1ZM20.0906 5.28437H20.0313C19.8531 5.28437 19.7938 5.34375 19.7938 5.40312L20.0906 5.28437ZM31.4906 12.0531C31.4906 11.9344 31.55 11.875 31.6094 11.875C31.6094 11.9938 31.55 12.0531 31.4906 12.0531ZM33.2125 30.3406C33.2719 30.3406 33.3313 30.2813 33.3313 30.1625C33.2719 30.1625 33.2125 30.2219 33.2125 30.3406ZM26.8 34.1406L26.8594 34.0813C26.8594 34.0219 26.8 33.9625 26.7406 33.9625V34.1406H26.8ZM33.3313 3.8C33.3313 3.74063 33.3906 3.68125 33.45 3.68125V3.85938C33.3906 3.85938 33.3313 3.85938 33.3313 3.8ZM29.2938 13.3H29.5313L29.2938 13.4188V13.3ZM23.8906 17.1L23.8313 16.9813C23.7719 16.9813 23.7719 17.0406 23.7719 17.1594L23.8906 17.1ZM33.6875 10.3906C33.7469 10.3906 33.7469 10.5094 33.6875 10.5094V10.3906ZM21.2188 2.67188C21.2781 2.67188 21.2781 2.79062 21.2188 2.79062V2.67188ZM9.34375 25.2344C9.40313 25.2344 9.40313 25.3531 9.34375 25.3531V25.2344ZM31.9063 11.6375C31.9656 11.6375 31.9656 11.7562 31.9063 11.7562V11.6375ZM17.0625 4.33437C17.1219 4.33437 17.1219 4.45312 17.0625 4.45312V4.33437ZM29.7094 27.8469H29.7688C29.7688 27.9063 29.7094 27.9062 29.65 27.9656L29.5906 28.025V27.9656L29.7094 27.8469ZM34.2812 29.7469C34.3406 29.7469 34.3406 29.6281 34.2812 29.6281V29.7469ZM20.0313 13.4188C20.0906 13.4188 20.0906 13.3 20.0313 13.3V13.4188ZM30.125 13.3594C30.1844 13.3594 30.1844 13.4781 30.125 13.4781V13.3594ZM32.5 30.2219C32.5594 30.2219 32.5594 30.3406 32.5 30.3406V30.2219ZM20.625 4.45312C20.6844 4.45312 20.6844 4.57187 20.625 4.57187V4.45312ZM31.075 30.3406L31.1938 30.4594L31.1344 30.5188H31.075V30.3406ZM9.9375 31.7656C9.99688 31.7656 9.99688 31.6469 9.9375 31.6469V31.7656ZM17.6562 4.69063C17.7156 4.69063 17.7156 4.80937 17.6562 4.80937V4.69063ZM20.625 33.3094C20.6844 33.3094 20.6844 33.1906 20.625 33.1906V33.3094ZM20.625 8.49063C20.6844 8.49063 20.6844 8.60938 20.625 8.60938V8.49063ZM29.5313 15.1406C29.5906 15.1406 29.5906 15.2594 29.5313 15.2594V15.1406ZM14.0938 35.8031C14.1531 35.8031 14.1531 35.9219 14.0938 35.9219V35.8031ZM22.4062 16.2687C22.4656 16.2687 22.4656 16.3875 22.4062 16.3875V16.2687ZM23 16.5063C23.0594 16.5063 23.0594 16.3875 23 16.3875V16.5063ZM18.8438 5.16562C18.9031 5.16562 18.9031 5.28437 18.8438 5.28437V5.16562ZM24.7812 17.1C24.8406 17.1 24.8406 17.2188 24.7812 17.2188V17.1ZM14.6875 17.575C14.7469 17.575 14.7469 17.6938 14.6875 17.6938V17.575ZM23 21.5531C23.0594 21.5531 23.0594 21.6719 23 21.6719V21.5531ZM13.6188 35.6844L13.7375 35.625V35.6844C13.7375 35.7438 13.6781 35.7437 13.6188 35.8031V35.6844ZM3.40625 16.3281H3.46563L3.40625 16.4469H3.2875L3.40625 16.3281ZM34.1625 22.5031C34.1031 22.5031 34.1031 22.3844 34.1625 22.3844V22.5031ZM8.92813 22.5625C9.10625 22.5625 8.86875 22.325 8.86875 22.5625V22.5031C8.80938 22.5031 8.80938 22.6219 8.86875 22.6219L8.92813 22.5625ZM29.0563 11.2219C29.0563 11.4 28.8188 11.1625 28.9969 11.1625V11.2219C28.9969 10.9844 29.2344 11.2219 29.0563 11.2219ZM31.7875 26.4813C31.7281 26.4813 31.7281 26.3625 31.7875 26.3625V26.4813ZM28.225 28.5594C28.1656 28.5594 28.1656 28.4406 28.225 28.4406V28.5594ZM32.3813 8.66875C32.3219 8.66875 32.3219 8.55 32.3813 8.55V8.66875ZM34.7563 29.0344C34.6969 29.0344 34.6969 29.1531 34.7563 29.1531V29.0344ZM33.5688 29.45C33.5094 29.45 33.5094 29.3313 33.5688 29.3313V29.45ZM34.0438 29.5688C34.2219 29.5688 33.9844 29.3313 33.9844 29.5688V29.5094C33.925 29.5094 33.925 29.6281 33.9844 29.6281L34.0438 29.5688ZM15.7563 13.3594C15.6969 13.3594 15.6969 13.2406 15.7563 13.2406V13.3594ZM13.1438 7.89688C13.0844 7.8375 13.0844 7.77812 13.0844 7.71875H13.2031L13.1438 7.89688ZM19.9125 3.38437C19.8531 3.38437 19.8531 3.26563 19.9125 3.26563V3.38437ZM21.6938 4.5125C21.6344 4.5125 21.6344 4.63125 21.6938 4.63125V4.5125ZM27.75 13.7156L27.5719 13.5969V13.6562C27.5719 13.7156 27.5719 13.7156 27.6313 13.7156L27.6906 13.775L27.75 13.7156ZM18.725 13.7156C18.6656 13.7156 18.6656 13.5969 18.725 13.5969V13.7156ZM25.85 31.1719C25.7906 31.1719 25.7906 31.2906 25.85 31.2906V31.1719ZM12.7281 8.13437C12.7281 8.3125 12.4906 8.075 12.6688 8.075V8.13437C12.6688 7.89687 12.9063 8.13437 12.7281 8.13437ZM16.35 4.80937C16.2906 4.80937 16.2906 4.69063 16.35 4.69063V4.80937ZM25.2563 14.0719C25.1969 14.0719 25.1969 13.9531 25.2563 13.9531V14.0719ZM30.6 14.1906C30.5406 14.1906 30.5406 14.0719 30.6 14.0719V14.1906ZM9.81875 31.9438C9.75938 31.9438 9.75938 32.0625 9.81875 32.0625V31.9438ZM29.4125 32.1219C29.3531 32.1219 29.3531 32.0031 29.4125 32.0031V32.1219ZM12.4906 8.3125C12.4906 8.49063 12.2531 8.25312 12.4313 8.25312V8.3125C12.4313 8.075 12.6688 8.3125 12.4906 8.3125ZM25.85 32.3C25.7906 32.3 25.7906 32.4188 25.85 32.4188V32.3ZM17.3594 4.92813C17.4188 4.86875 17.4188 4.80937 17.4781 4.80937H17.5375L17.4188 4.92813H17.3594ZM24.6625 3.38437C24.6031 3.38437 24.6031 3.50313 24.6625 3.50313V3.38437ZM18.725 33.7844C18.6656 33.7844 18.6656 33.9031 18.725 33.9031V33.7844ZM24.6625 15.0813C24.6031 15.0813 24.6031 15.2 24.6625 15.2V15.0813ZM9.52188 34.7344C9.7 34.7344 9.4625 34.4969 9.4625 34.675C9.40313 34.675 9.40313 34.7938 9.4625 34.7938L9.52188 34.7344ZM13.3813 35.6844C13.3219 35.6844 13.3219 35.5656 13.3813 35.5656V35.6844ZM32.3219 8.7875C32.3219 8.96562 32.0844 8.72812 32.2625 8.72812V8.7875C32.2625 8.55 32.5 8.7875 32.3219 8.7875ZM11.8969 36.4563V36.5156H11.4813L11.8969 36.4563ZM3.2875 15.7344C3.22813 15.7344 3.22813 15.6156 3.2875 15.6156V15.7344ZM12.7875 8.84687C12.7281 8.84687 12.7281 8.72812 12.7875 8.72812V8.84687ZM19.3188 15.7938C19.2594 15.7938 19.2594 15.675 19.3188 15.675V15.7938ZM15.7563 5.225C15.6969 5.225 15.6969 5.10625 15.7563 5.10625V5.225ZM23.475 16.0906C23.4156 16.0906 23.4156 15.9719 23.475 15.9719V16.0906ZM15.1625 16.4469C15.1031 16.4469 15.1031 16.3281 15.1625 16.3281V16.4469ZM32.5594 9.2625C32.5594 9.20312 32.5594 9.14375 32.6187 9.14375V9.20312C32.6187 9.32188 32.6187 9.38125 32.5594 9.38125V9.2625ZM25.1969 16.8031C25.1375 16.7438 25.1375 16.6844 25.1375 16.625C25.1969 16.625 25.2563 16.625 25.2563 16.6844L25.1969 16.8031ZM31.7875 1.72187V1.60313C31.7281 1.60313 31.7281 1.72187 31.7875 1.72187ZM16.9438 17.6938C16.8844 17.6938 16.8844 17.575 16.9438 17.575V17.6938ZM29.4125 10.0938C29.3531 10.0938 29.3531 9.975 29.4125 9.975V10.0938ZM9.58125 10.45C9.58125 10.6281 9.34375 10.3906 9.52188 10.3906V10.45C9.52188 10.2125 9.75937 10.45 9.58125 10.45ZM28.9375 30.0438C28.8781 29.9844 28.8188 29.9844 28.7594 29.9844C28.7594 30.0438 28.7594 30.0437 28.8188 30.1031L28.9375 30.0438ZM25.4938 22.2063C25.4938 22.1469 25.4938 22.1469 25.5531 22.1469V22.0875C25.6125 22.0875 25.6125 22.0875 25.6125 22.1469L25.6719 22.2063H25.4938ZM17.8344 4.63125C17.8937 4.57188 17.9531 4.5125 18.0125 4.5125C18.0125 4.57187 17.9531 4.63125 17.8938 4.63125H17.8344ZM15.6375 13.5375C15.6375 13.4188 15.6375 13.3594 15.6969 13.3594V13.4188C15.6969 13.4781 15.6969 13.5375 15.6375 13.6562V13.5375ZM23.7125 32.0031C23.7719 32.0031 23.8313 31.9437 23.8906 31.8844H23.8313C23.7719 31.8844 23.7125 31.9438 23.7125 32.0031ZM33.3906 26.9563C33.3313 26.8969 33.3313 26.8375 33.3313 26.7781C33.3906 26.7781 33.45 26.8375 33.45 26.8969L33.3906 26.9563ZM23.7125 33.9031H23.7719C23.8312 33.9031 23.8906 33.9625 23.8906 34.0219V34.0813L23.7125 33.9031ZM19.9125 4.0375C19.9125 3.97813 19.9719 3.91875 20.0906 3.91875H20.15L19.9125 4.0375ZM20.2094 8.13437C20.15 8.075 20.0313 8.075 20.0313 8.13437H20.2094ZM29.9469 28.0844H30.125V28.1438H29.9469V28.0844ZM33.8063 29.8656L33.8656 29.7469L33.8063 29.6875L33.7469 29.7469L33.8063 29.8656ZM32.0844 29.7469H32.2031L32.1438 29.8062V29.8656H32.0844V29.7469ZM11.8969 30.2813H11.9563C11.9563 30.4 11.9563 30.4594 11.8969 30.5188V30.2813ZM12.55 31.825H12.6094C12.6094 31.9438 12.6094 32.0031 12.55 32.0625V31.825ZM26.8594 32.2406V32.0625H26.8V32.2406H26.8594ZM23 32.7156L22.8813 32.6562V32.8344L23 32.7156ZM3.10938 16.8031C3.10938 16.6844 3.10937 16.625 3.16875 16.5656V16.8031H3.10938ZM20.2687 3.85938C20.2687 3.8 20.3281 3.8 20.4469 3.8H20.5063L20.3281 3.85938H20.2687ZM32.0844 12.5281L32.2031 12.4094V12.4688C32.2031 12.5281 32.2031 12.5281 32.1438 12.5875L32.0844 12.6469V12.5281ZM12.1938 7.54062C12.2531 7.48125 12.2531 7.42188 12.1938 7.3625L12.2531 7.42188H12.3125V7.48125L12.2531 7.54062H12.1938ZM18.725 13.0625L18.7844 13.1219H18.725C18.725 13.1812 18.725 13.1813 18.6656 13.2406H18.6063L18.725 13.0625ZM8.33438 24.7594C8.39375 24.7594 8.39375 24.5813 8.33438 24.5813V24.7594ZM33.8656 6.94687C33.925 6.94687 33.925 7.125 33.8656 7.125V6.94687ZM25.0188 32.4188L25.1375 32.3L25.0781 32.2406L25.0188 32.3594V32.4188ZM18.9031 5.16562C18.9031 5.10625 19.0813 5.10625 19.0813 5.16562H18.9031ZM23.0594 22.2063C23.0594 22.1469 23.1188 22.0875 23.1781 22.0875V22.2063H23.0594ZM32.025 28.9156V28.7969C31.9656 28.7969 31.9063 28.8562 31.9063 28.9156H32.025ZM32.9156 7.6H33.0344C33.0344 7.65938 32.975 7.71875 32.9156 7.71875V7.6ZM22.4656 32.3C22.4656 32.2406 22.525 32.1813 22.5844 32.1813V32.3H22.4656ZM26.0875 32.3V32.1813C26.0281 32.1813 25.9688 32.2406 25.9688 32.3H26.0875ZM23.5938 32.5375C23.5938 32.4781 23.5344 32.4188 23.475 32.4188V32.5375H23.5938ZM31.9656 10.6875C31.9656 10.6281 32.025 10.6281 32.1438 10.6281V10.6875H31.9656ZM3.58438 22.1469C3.70313 21.7906 3.70313 22.4438 3.58438 22.1469V22.1469ZM29.2938 31.5875C29.4125 31.2312 29.4125 31.8844 29.2938 31.5875V31.5875ZM34.0438 22.6812C34.1625 22.325 34.1625 22.9781 34.0438 22.6812V22.6812ZM15.6375 6.11562C15.7563 5.75937 15.7563 6.4125 15.6375 6.11562V6.11562ZM34.5781 22.7406C34.4594 22.3844 34.4594 23.0375 34.5781 22.7406V22.7406ZM29.1156 23.3344C28.9969 22.9781 28.9969 23.6313 29.1156 23.3344V23.3344ZM33.6875 23.9281C33.8063 23.5719 33.8063 24.225 33.6875 23.9281V23.9281ZM32.025 11.4C32.1438 11.0437 32.1438 11.6969 32.025 11.4V11.4ZM14.45 27.4906C14.3313 27.1344 14.3313 27.7875 14.45 27.4906V27.4906ZM23.5938 33.9625C23.7125 33.6656 23.7125 34.3188 23.5938 33.9625V33.9625ZM29.7688 12.0531C29.8875 11.6969 29.8875 12.35 29.7688 12.0531V12.0531ZM17.8344 4.275C17.9531 3.91875 17.9531 4.57187 17.8344 4.275V4.275ZM14.2125 28.0844C14.0938 27.7281 14.0938 28.3813 14.2125 28.0844V28.0844ZM12.55 7.18437V7.30313L12.4906 7.3625H12.4313L12.55 7.18437ZM28.1063 28.6187C28.225 28.2625 28.225 28.9156 28.1063 28.6187V28.6187ZM27.9875 28.6781C28.1063 28.3219 28.1063 28.975 27.9875 28.6781V28.6781ZM22.1094 2.90937H22.4062H22.1094ZM10.1156 29.2719C10.2344 28.9156 10.2344 29.5688 10.1156 29.2719V29.2719ZM26.8 29.8062C26.9188 29.45 26.9188 30.1031 26.8 29.8062V29.8062ZM32.1438 13.4781L32.2625 13.3594V13.3L32.0844 13.4781H32.1438ZM11.4219 7.8375C11.5406 7.48125 11.5406 8.13437 11.4219 7.8375V7.8375ZM33.0938 7.89688C33.2125 7.54063 33.2125 8.19375 33.0938 7.89688V7.89688ZM15.5188 13.775C15.6375 13.4188 15.6375 14.0719 15.5188 13.775V13.775ZM16.4688 13.775C16.5875 13.4188 16.5875 14.0719 16.4688 13.775V13.775ZM18.4875 14.0125C18.4875 13.9531 18.4875 13.8937 18.5469 13.8937L18.6063 14.0125H18.4875ZM24.425 31.6469C24.3063 31.2906 24.3063 31.9438 24.425 31.6469V31.6469ZM25.375 14.4281C25.4938 14.0719 25.4938 14.725 25.375 14.4281V14.4281ZM21.4563 32.775C21.3375 32.4188 21.3375 33.0719 21.4563 32.775V32.775ZM10.7688 8.49063C10.8875 8.13437 10.8875 8.7875 10.7688 8.49063V8.49063ZM20.9813 8.49063C20.8625 8.13437 20.8625 8.7875 20.9813 8.49063V8.49063ZM22.525 33.25C22.5844 33.25 22.6438 33.25 22.6438 33.1906H22.4656V33.25H22.525ZM16.0531 4.92813C16.1719 4.57187 16.1719 5.225 16.0531 4.92813V4.92813ZM28.7594 3.38437L28.5813 3.325H28.5219C28.5219 3.38437 28.5813 3.38437 28.7 3.38437H28.7594ZM7.8 38.1188C7.91875 37.8219 7.91875 38.475 7.8 38.1188V38.1188ZM7.91875 38.7125C8.0375 38.4156 8.0375 39.0688 7.91875 38.7125V38.7125ZM25.9688 16.0312C25.9688 15.9719 26.0281 15.9719 26.0875 15.9719C26.0875 16.0313 26.0875 16.0906 26.0281 16.0906L25.9688 16.0312ZM12.4906 9.08438C12.6094 8.72812 12.6094 9.38125 12.4906 9.08438V9.08438ZM22.5844 16.15C22.7031 15.7938 22.7031 16.4469 22.5844 16.15V16.15ZM2.87188 16.2094C2.99062 15.8531 2.99062 16.5063 2.87188 16.2094V16.2094ZM24.6031 16.2094C24.4844 15.8531 24.4844 16.5063 24.6031 16.2094V16.2094ZM32.6187 9.08438C32.7375 8.72812 32.7375 9.38125 32.6187 9.08438V9.08438ZM21.8719 16.7437C21.9906 16.3875 21.9906 17.0406 21.8719 16.7437V16.7437ZM8.9875 9.61875C9.10625 9.2625 9.10625 9.91562 8.9875 9.61875V9.61875ZM26.8594 17.3969C26.9781 17.0406 26.9781 17.6938 26.8594 17.3969V17.3969ZM18.3688 5.4625C18.4875 5.10625 18.4875 5.75938 18.3688 5.4625V5.4625ZM33.925 5.4625C34.0438 5.10625 34.0438 5.75938 33.925 5.4625V5.4625ZM1.03125 17.9313C1.15 17.575 1.15 18.2281 1.03125 17.9313V17.9313ZM18.9031 18.2281V18.2875L18.8438 18.3469H18.725L18.9031 18.2281ZM18.5469 18.525C18.6656 18.1688 18.6656 18.8219 18.5469 18.525V18.525ZM20.3875 3.0875C20.5063 2.73125 20.5063 3.38437 20.3875 3.0875V3.0875ZM9.225 21.9688L9.28438 21.9094H9.34375V21.9688C9.28438 22.0281 9.28438 22.0281 9.225 22.0281V21.9688ZM16.8844 5.40312L16.9438 5.34375L17.0031 5.40312H16.9438C16.9438 5.4625 16.9438 5.4625 16.8844 5.52188V5.40312ZM29.5313 23.6906C29.4719 23.6313 29.4125 23.6313 29.2938 23.6313H29.2344C29.2938 23.6906 29.3531 23.6906 29.4125 23.6906H29.5313ZM33.0938 27.9656L33.2125 27.8469H33.1531C33.0938 27.8469 33.0938 27.8469 33.0938 27.9063L33.0344 27.9656H33.0938ZM31.9063 13.7156L32.025 13.5969H31.9656C31.9063 13.5969 31.9063 13.5969 31.9063 13.6562L31.8469 13.7156H31.9063ZM24.1875 3.44375C24.1875 3.50313 24.0094 3.50313 24.0094 3.44375C24.0688 3.38437 24.1281 3.38437 24.1875 3.44375ZM35.0531 24.4031H34.9344L34.9938 24.5219L35.0531 24.4031ZM31.6094 11.2812H31.6688C31.6688 11.3406 31.6688 11.3406 31.6094 11.3406V11.4C31.55 11.4 31.55 11.4 31.55 11.3406L31.6094 11.2812ZM24.1875 0.475001V0.534375H23.95L24.1875 0.475001ZM30.1844 27.8469H30.2438V27.9656H30.1844V27.8469ZM31.2531 12.1719H31.3125H31.3719L31.1938 12.2906V12.2313L31.2531 12.1719ZM13.025 28.975V28.8563H12.9656V28.975H13.025ZM29.7688 29.3313V29.1531C29.7094 29.2125 29.7094 29.2719 29.7094 29.3313H29.7688ZM29.7688 13.1219H29.8281V13.2406H29.7688V13.1219ZM34.1625 29.8656V29.7469H34.1031V29.8656H34.1625ZM31.3719 7.95625C31.3125 7.95625 31.3125 7.95625 31.3125 7.89688L31.2531 7.8375L31.3125 7.77812L31.3719 7.95625ZM11.2438 30.5781L11.3031 30.6969L11.2438 30.8156V30.5781ZM26.3844 32.5375C26.4438 32.4781 26.5031 32.4781 26.5625 32.4781V32.5375H26.3844ZM33.8063 4.80937H33.8656C33.8656 4.86875 33.8656 4.92813 33.8063 4.9875V4.80937ZM11.3625 32.3V32.4781L11.3031 32.4188V32.3594L11.3625 32.3ZM23.8906 32.9531V32.8344H23.8313V32.9531H23.8906ZM33.0344 8.60938H33.0938V8.66875L33.0344 8.72812H32.975V8.66875L33.0344 8.60938ZM24.425 35.7438L24.4844 35.6844H24.5438V35.7438L24.4844 35.8031H24.425V35.7438ZM20.3281 5.16562L20.4469 5.10625H20.2687V5.16562H20.3281ZM18.9625 3.68125L19.0219 3.62187H19.0813V3.68125L19.0219 3.74062H18.9625V3.68125ZM25.0188 16.8625V16.9813H24.9L25.0188 16.8625ZM15.2813 5.40312H15.3406V5.52188H15.2813V5.40312ZM11.125 35.6844H11.1844V35.8031H11.125V35.6844ZM14.925 5.58125V5.7L14.8063 5.64062L14.925 5.58125ZM22.05 3.97813C22.05 3.91875 22.1688 3.91875 22.1688 3.97813H22.05ZM21.3375 2.85C21.3375 2.79062 21.4563 2.79062 21.4563 2.85H21.3375ZM24.3656 32.6562C24.3656 32.5969 24.3656 32.5969 24.3063 32.5375V32.5969C24.3063 32.6563 24.3063 32.7156 24.3656 32.7156V32.6562ZM14.2125 37.7625C14.0938 37.525 14.0938 38 14.2125 37.7625V37.7625ZM3.70312 22.2063C3.82188 21.9688 3.82188 22.4438 3.70312 22.2063V22.2063ZM8.92813 22.2063C9.04688 21.9688 9.04688 22.4438 8.92813 22.2063V22.2063ZM6.67188 22.2656C6.79063 22.0281 6.79063 22.5031 6.67188 22.2656V22.2656ZM27.9875 31.8844C28.1063 31.6469 28.1063 32.1219 27.9875 31.8844V31.8844ZM20.0906 13.0031C20.0313 13.0031 20.0313 13.2406 20.0906 13.2406V13.0031ZM18.25 4.0375C18.3688 3.8 18.3688 4.275 18.25 4.0375V4.0375ZM32.025 10.925C32.1438 10.6875 32.1438 11.1625 32.025 10.925V10.925ZM19.0813 3.5625C19.2 3.325 19.2 3.8 19.0813 3.5625V3.5625ZM34.9938 23.0375C34.875 22.8 34.875 23.275 34.9938 23.0375V23.0375ZM14.2719 5.9375C14.3906 5.7 14.3906 6.175 14.2719 5.9375V5.9375ZM19.8531 11.1031C19.7344 10.8656 19.7344 11.3406 19.8531 11.1031V11.1031ZM15.4 6.29375C15.5188 6.05625 15.5188 6.53125 15.4 6.29375V6.29375ZM34.4 24.0469C34.5187 23.8094 34.5187 24.2844 34.4 24.0469V24.0469ZM11.7188 30.6969C11.8375 30.4594 11.8375 30.9344 11.7188 30.6969V30.6969ZM16.825 24.7C16.7063 24.4625 16.7063 24.9375 16.825 24.7V24.7ZM20.3875 8.66875C20.5063 8.43125 20.5063 8.90625 20.3875 8.66875V8.66875ZM16.6469 24.8188C16.5281 24.5812 16.5281 25.0562 16.6469 24.8188V24.8188ZM3.16875 15.7938C3.2875 15.5563 3.2875 16.0313 3.16875 15.7938V15.7938ZM9.99688 37.2281C10.1156 36.9906 10.1156 37.4656 9.99688 37.2281V37.2281ZM31.3719 11.5781C31.4906 11.3406 31.4906 11.8156 31.3719 11.5781V11.5781ZM20.2094 3.20625C20.3281 2.96875 20.3281 3.44375 20.2094 3.20625V3.20625ZM24.5438 0.415624C24.6625 0.178123 24.6625 0.653124 24.5438 0.415624V0.415624ZM9.04688 25.3531C8.92812 25.1156 8.92812 25.5906 9.04688 25.3531V25.3531ZM33.0938 25.7688C33.2125 25.5313 33.2125 26.0063 33.0938 25.7688V25.7688ZM9.52188 36.7531C9.40313 36.5156 9.40313 36.9906 9.52188 36.7531V36.7531ZM30.8375 25.8281C30.9562 25.5906 30.9562 26.0656 30.8375 25.8281V25.8281ZM32.0844 26.125C32.2031 25.8875 32.2031 26.3625 32.0844 26.125V26.125ZM29.8875 12.7656C30.0063 12.5281 30.0063 13.0031 29.8875 12.7656V12.7656ZM31.9063 26.3625C32.025 26.125 32.025 26.6 31.9063 26.3625V26.3625ZM31.4313 26.6594C31.55 26.4219 31.55 26.8969 31.4313 26.6594V26.6594ZM28.3438 11.8156C28.4625 11.5781 28.4625 12.0531 28.3438 11.8156V11.8156ZM26.6813 11.875C26.8 11.6375 26.8 12.1125 26.6813 11.875V11.875ZM13.0844 6.76875C13.2031 6.53125 13.2031 7.00625 13.0844 6.76875V6.76875ZM14.2719 6.94687C14.3906 6.70938 14.3906 7.18438 14.2719 6.94687V6.94687ZM33.5094 27.6094C33.5688 27.6094 33.5688 27.6094 33.5688 27.55H33.45V27.6094H33.5094ZM29.8281 27.7281C29.9469 27.4906 29.9469 27.9656 29.8281 27.7281V27.7281ZM33.925 10.6875C33.8063 10.45 33.8063 10.925 33.925 10.6875V10.6875ZM31.3719 12.1125C31.4906 11.875 31.4906 12.35 31.3719 12.1125V12.1125ZM14.8656 15.0813C14.9844 14.8438 14.9844 15.3187 14.8656 15.0813V15.0813ZM17.4188 12.2313C17.3 11.9938 17.3 12.4688 17.4188 12.2313V12.2313ZM25.0781 14.1313C25.1969 13.8937 25.1969 14.3688 25.0781 14.1313V14.1313ZM31.4313 14.25C31.3125 14.0125 31.3125 14.4875 31.4313 14.25V14.25ZM14.2719 27.9063C14.1531 27.6688 14.1531 28.1438 14.2719 27.9063V27.9063ZM33.45 3.20625C33.3313 2.96875 33.3313 3.44375 33.45 3.20625V3.20625ZM33.5688 28.5C33.45 28.2625 33.45 28.7375 33.5688 28.5V28.5ZM29.2344 12.7656C29.1156 12.5281 29.1156 13.0031 29.2344 12.7656V12.7656ZM31.6688 14.0125C31.55 13.775 31.55 14.25 31.6688 14.0125V14.0125ZM5.30625 12.825C5.425 12.5875 5.425 13.0625 5.30625 12.825V12.825ZM13.9156 28.7375C13.7969 28.5 13.7969 28.975 13.9156 28.7375V28.7375ZM27.8094 28.7969C27.9281 28.5594 27.9281 29.0344 27.8094 28.7969V28.7969ZM26.8594 12.825C26.9781 12.5875 26.9781 13.0625 26.8594 12.825V12.825ZM16.825 4.45312C16.9438 4.21562 16.9438 4.69063 16.825 4.45312V4.45312ZM24.6031 32.5375C24.4844 32.3 24.4844 32.775 24.6031 32.5375V32.5375ZM30.3625 28.9156C30.2438 28.6781 30.2438 29.1531 30.3625 28.9156V28.9156ZM27.3938 28.975C27.5125 28.7375 27.5125 29.2125 27.3938 28.975V28.975ZM13.5594 7.48125C13.6781 7.24375 13.6781 7.71875 13.5594 7.48125V7.48125ZM16.7063 34.1406C16.825 33.9031 16.825 34.3781 16.7063 34.1406V34.1406ZM10.2344 36.5156C10.3531 36.2781 10.3531 36.7531 10.2344 36.5156V36.5156ZM34.4 29.6281C34.2812 29.3906 34.2812 29.8656 34.4 29.6281V29.6281ZM9.9375 29.6875C10.0563 29.45 10.0563 29.925 9.9375 29.6875V29.6875ZM27.3938 29.925C27.3938 29.8656 27.3938 29.8656 27.4531 29.8656L27.5125 29.8062V29.8656L27.4531 29.925H27.3938ZM28.225 30.0438C28.1063 29.8063 28.1063 30.2813 28.225 30.0438V30.0438ZM30.8969 29.45C30.7781 29.2125 30.7781 29.6875 30.8969 29.45V29.45ZM31.55 30.1625C31.6688 29.925 31.6688 30.4 31.55 30.1625V30.1625ZM24.425 0.534375C24.1875 0.415623 24.6625 0.415623 24.425 0.534375V0.534375ZM26.0875 13.4781C26.2063 13.2406 26.2063 13.7156 26.0875 13.4781V13.4781ZM25.4938 3.325C25.375 3.0875 25.375 3.5625 25.4938 3.325V3.325ZM12.9062 7.95625C13.025 7.71875 13.025 8.19375 12.9062 7.95625V7.95625ZM9.10625 10.9844C9.225 10.7469 9.225 11.2219 9.10625 10.9844V10.9844ZM30.4219 29.925C30.3031 29.6875 30.3031 30.1625 30.4219 29.925V29.925ZM10.2344 30.6969C10.1156 30.4594 10.1156 30.9344 10.2344 30.6969V30.6969ZM30.9563 29.925C30.8375 29.6875 30.8375 30.1625 30.9563 29.925V29.925ZM17.4188 7.95625C17.3 7.71875 17.3 8.19375 17.4188 7.95625V7.95625ZM10.8875 8.19375C11.0063 7.95625 11.0063 8.43125 10.8875 8.19375V8.19375ZM26.2656 13.6562C26.3844 13.4188 26.3844 13.8938 26.2656 13.6562V13.6562ZM28.1063 31.35C28.225 31.1125 28.225 31.5875 28.1063 31.35V31.35ZM26.2656 3.325C26.1469 3.0875 26.1469 3.5625 26.2656 3.325V3.325ZM10.8281 31.7063C10.9469 31.4688 10.9469 31.9438 10.8281 31.7063V31.7063ZM27.3344 31.7656C27.4531 31.5281 27.4531 32.0031 27.3344 31.7656V31.7656ZM9.64063 30.1625C9.75938 29.925 9.75938 30.4 9.64063 30.1625V30.1625ZM34.4 4.9875C34.2812 4.75 34.2812 5.225 34.4 4.9875V4.9875ZM23.475 32.0031C23.3563 31.7656 23.3563 32.2406 23.475 32.0031V32.0031ZM11.3625 32.0625C11.4813 31.825 11.4813 32.3 11.3625 32.0625V32.0625ZM19.4375 15.1406C19.5563 14.9031 19.5563 15.3781 19.4375 15.1406V15.1406ZM25.5531 14.25C25.6719 14.0125 25.6719 14.4875 25.5531 14.25V14.25ZM30.4813 32.0031C30.6 31.7656 30.6 32.2406 30.4813 32.0031V32.0031ZM20.9219 8.3125C20.8031 8.075 20.8031 8.55 20.9219 8.3125V8.3125ZM4.83125 14.4875C4.95 14.25 4.95 14.725 4.83125 14.4875V14.4875ZM9.52188 30.8156C9.64063 30.5781 9.64063 31.0531 9.52188 30.8156V30.8156ZM31.1344 14.5469C31.0156 14.3094 31.0156 14.7844 31.1344 14.5469V14.5469ZM31.075 14.6656C30.9563 14.4281 30.9563 14.9031 31.075 14.6656V14.6656ZM31.0156 14.725C30.8969 14.4875 30.8969 14.9625 31.0156 14.725V14.725ZM21.575 33.1906C21.4563 32.9531 21.4563 33.4281 21.575 33.1906V33.1906ZM12.0156 33.0719C12.1344 32.8344 12.1344 33.3094 12.0156 33.0719V33.0719ZM31.4313 13.3C31.55 13.0625 31.55 13.5375 31.4313 13.3V13.3ZM15.875 4.9875C15.9938 4.75 15.9938 5.225 15.875 4.9875V4.9875ZM27.8688 33.5469C27.75 33.3094 27.75 33.7844 27.8688 33.5469V33.5469ZM19.7344 8.55C19.8531 8.3125 19.8531 8.7875 19.7344 8.55V8.55ZM27.2156 15.0813C27.2156 15.0219 27.2156 15.0219 27.275 15.0219V14.9625L27.3344 15.0219L27.275 15.0813H27.2156ZM21.1 8.55C20.9813 8.3125 20.9813 8.7875 21.1 8.55V8.55ZM21.4563 3.44375C21.2188 3.325 21.6938 3.325 21.4563 3.44375V3.44375ZM10.175 34.675C10.0563 34.4375 10.0563 34.9125 10.175 34.675V34.675ZM24.5438 14.5469C24.6625 14.3094 24.6625 14.7844 24.5438 14.5469V14.5469ZM18.3094 15.3781C18.4281 15.1406 18.4281 15.6156 18.3094 15.3781V15.3781ZM21.3969 33.4875C21.2781 33.25 21.2781 33.725 21.3969 33.4875V33.4875ZM18.9625 13.0625C19.0813 12.825 19.0813 13.3 18.9625 13.0625V13.0625ZM19.2 5.04687C19.3188 4.80938 19.3188 5.28437 19.2 5.04687V5.04687ZM25.0188 3.38437C24.9 3.14687 24.9 3.62187 25.0188 3.38437V3.38437ZM9.58125 37.6438C9.7 37.4063 9.7 37.8813 9.58125 37.6438V37.6438ZM32.7375 26.125C32.8563 25.8875 32.8563 26.3625 32.7375 26.125V26.125ZM32.7375 5.04687C32.8563 4.80938 32.8563 5.28437 32.7375 5.04687V5.04687ZM25.375 15.7938C25.4938 15.5563 25.4938 16.0313 25.375 15.7938V15.7938ZM20.2094 3.5625C20.3281 3.325 20.3281 3.8 20.2094 3.5625V3.5625ZM22.6438 16.0312C22.7625 15.7937 22.7625 16.2687 22.6438 16.0312V16.0312ZM26.6813 2.96875C26.8 2.73125 26.8 3.20625 26.6813 2.96875V2.96875ZM13.5594 6.47187C13.6781 6.23437 13.6781 6.70937 13.5594 6.47187V6.47187ZM28.4031 16.0312C28.5219 15.7937 28.5219 16.2687 28.4031 16.0312V16.0312ZM26.9188 2.96875C27.0375 2.73125 27.0375 3.20625 26.9188 2.96875V2.96875ZM17.8344 9.14375C17.9531 8.90625 17.9531 9.38125 17.8344 9.14375V9.14375ZM10.8875 30.7563C11.0063 30.5188 11.0063 30.9938 10.8875 30.7563V30.7563ZM14.925 16.8625C15.0438 16.625 15.0438 17.1 14.925 16.8625V16.8625ZM27.3938 16.9219C27.5125 16.6844 27.5125 17.1594 27.3938 16.9219V16.9219ZM14.8656 17.0406C14.9844 16.8031 14.9844 17.2781 14.8656 17.0406V17.0406ZM18.8438 3.8C18.9625 3.5625 18.9625 4.0375 18.8438 3.8V3.8ZM33.2719 9.7375C33.3906 9.5 33.3906 9.975 33.2719 9.7375V9.7375ZM31.3719 30.2219C31.4906 29.9844 31.4906 30.4594 31.3719 30.2219V30.2219ZM26.5625 17.6344C26.6813 17.3969 26.6813 17.8719 26.5625 17.6344V17.6344ZM30.125 14.5469C30.2438 14.3094 30.2438 14.7844 30.125 14.5469V14.5469ZM16.5875 5.58125C16.7062 5.34375 16.7062 5.81875 16.5875 5.58125V5.58125ZM18.6063 3.85938C18.725 3.62187 18.725 4.09688 18.6063 3.85938V3.85938ZM35.1719 23.4531C35.0531 23.2156 35.0531 23.6906 35.1719 23.4531V23.4531ZM20.3875 11.6969C20.2688 11.4594 20.2688 11.9344 20.3875 11.6969V11.6969ZM32.8563 10.3312C32.975 10.0937 32.975 10.5687 32.8563 10.3312V10.3312ZM18.9625 4.09688C18.9625 4.0375 19.0219 4.0375 19.0813 4.0375V4.09688H18.9625ZM9.7 24.9375H9.75937L9.7 25.1156V24.9375ZM32.6781 8.3125V8.49063L32.6187 8.37188L32.6781 8.3125ZM10.2344 28.6781C10.175 28.6781 10.175 28.5594 10.2344 28.5594C10.2938 28.6188 10.2938 28.6188 10.2344 28.6781ZM32.1438 27.9656C32.0844 27.9656 32.0844 27.9063 32.0844 27.8469H32.1438V27.9656ZM14.1531 7.06562L14.2125 7.00625H14.2719L14.1531 7.125V7.06562ZM16.9438 24.6406H17.0031L17.0625 24.5813H16.9438L16.8844 24.6406H16.9438ZM11.1844 8.01562H11.2438C11.3031 8.01562 11.3625 8.01562 11.3625 8.075H11.3031L11.1844 8.01562ZM22.05 4.45312L22.1688 4.39375H22.1094C22.05 4.39375 21.9906 4.39375 21.9906 4.45312H22.05ZM12.0156 28.5594C12.075 28.5594 12.075 28.5 12.0156 28.4406V28.5594ZM31.3125 13.4781C31.3125 13.5375 31.1938 13.5375 31.1938 13.4781C31.2531 13.4188 31.2531 13.4188 31.3125 13.4781ZM32.6187 12.8844L32.7375 12.7656H32.6781L32.6187 12.825V12.8844ZM22.6438 31.825L22.7625 31.7063H22.7031L22.6438 31.7656V31.825ZM21.9313 4.5125C21.8719 4.45312 21.8125 4.45312 21.8125 4.5125H21.9313ZM25.9688 3.325C25.9094 3.26563 25.9094 3.26563 25.85 3.325C25.85 3.38437 25.9688 3.38437 25.9688 3.325ZM27.9875 23.0969H27.8094H27.9875ZM20.0313 4.69063C20.0313 4.63125 20.0906 4.63125 20.15 4.63125H20.2094L20.0906 4.69063H20.0313ZM18.25 4.69063H18.3688L18.3094 4.75H18.25V4.69063ZM29.5906 31.4094V31.4688H29.4125L29.5906 31.4094ZM16.1719 14.1313C16.1719 14.0719 16.1719 14.0125 16.2313 14.0125V14.0719L16.1719 14.1906V14.1313ZM28.5813 13.2406C28.5219 13.2406 28.5219 13.1219 28.5813 13.1219C28.6406 13.1812 28.6406 13.1813 28.5813 13.2406ZM17.1813 4.5125V4.57187L17.1219 4.63125H17.0625L17.1813 4.5125ZM32.975 28.9156C32.975 28.8562 32.9156 28.8563 32.8563 28.8563V28.9156H32.975ZM18.4281 15.6156C18.4875 15.6156 18.4875 15.675 18.4875 15.7344H18.4281V15.6156ZM25.6719 14.6062V14.6656L25.6125 14.725H25.5531L25.6719 14.6062ZM32.2625 7.24375V7.18437V7.30313L32.2031 7.3625V7.30313L32.2625 7.24375ZM10.5906 9.67813H10.7094L10.65 9.7375H10.5906V9.67813ZM24.425 17.3969C24.3656 17.3969 24.3656 17.2781 24.425 17.2781C24.4844 17.3375 24.4844 17.3375 24.425 17.3969ZM16.35 13.5375C16.4094 13.5969 16.4094 13.7156 16.35 13.7156V13.5375ZM16.2313 14.3688L16.2906 14.3094V14.4281L16.2313 14.4875V14.4281V14.3688ZM33.8063 3.14687C33.8063 3.0875 33.8063 3.0875 33.7469 3.02812C33.6875 3.0875 33.6875 3.14687 33.8063 3.14687ZM26.3844 22.325L26.325 22.2656H26.3844C26.4438 22.2656 26.4438 22.2656 26.4438 22.325H26.3844ZM32.6781 11.875L32.7375 11.8156V11.875C32.7375 11.9344 32.7375 11.9344 32.6781 11.9344V11.875ZM20.15 12.5281C20.0906 12.5281 20.0906 12.7062 20.15 12.7062V12.5281ZM25.4344 13.8937H25.4938L25.4344 13.9531H25.375L25.4344 13.8937ZM24.9594 2.96875C25.0188 2.96875 25.0188 2.96875 25.0781 3.02812H24.9594V2.96875ZM27.4531 14.8438L27.5125 14.7844V14.8438C27.5125 14.9031 27.5125 14.9031 27.4531 14.9031V14.8438ZM9.34375 35.6844C9.28438 35.6844 9.28438 35.8625 9.34375 35.8625V35.6844ZM32.1438 8.90625L32.2031 8.84687V8.90625C32.2031 8.96562 32.2031 8.96563 32.1438 8.96563V8.90625ZM34.4 9.14375V9.20312L34.4594 9.14375V9.08438C34.4 9.08438 34.4 9.08438 34.4 9.14375ZM29.3531 28.1438H29.4125L29.3531 28.2031H29.2938L29.3531 28.1438ZM31.3719 10.3312C31.3719 10.2719 31.3719 10.2719 31.4313 10.2719V10.3312L31.3719 10.3906V10.3312ZM32.8563 8.7875H32.9156V8.84687H32.8563V8.7875ZM2.69375 16.3875H2.8125L2.69375 16.4469V16.3875ZM19.0813 33.1312H19.1406L19.0813 33.1906H19.0219L19.0813 33.1312ZM4.475 22.5625C4.53438 22.6219 4.53438 22.6813 4.475 22.7406V22.5625ZM25.5531 32.5969V32.5375H25.4938V32.5969H25.5531ZM5.9 13.3594V13.4188L5.84062 13.4781V13.4188L5.9 13.3594ZM14.7469 5.7V5.81875L14.6875 5.75937L14.7469 5.7ZM28.4031 11.2219V11.3406L28.3438 11.2812L28.4031 11.2219ZM33.1531 11.2219V11.3406H33.0938L33.1531 11.2219ZM15.9344 14.7844L15.9938 14.725V14.7844L15.9344 14.8438V14.7844ZM9.75937 32.4781C9.81875 32.4781 9.81875 32.3594 9.75937 32.3594V32.4781ZM12.9062 35.5062H12.9656V35.5656H12.9062V35.5062ZM11.0063 8.075H11.125L11.0063 8.13437V8.075ZM28.1656 11.4594V11.5781L28.1063 11.5188L28.1656 11.4594ZM23.1781 15.7938H23.2375L23.1781 15.8531H23.1187L23.1781 15.7938ZM10.3531 28.7375H10.4125L10.3531 28.8563V28.7375ZM29.8875 11.7562H29.9469V11.8156H29.8875V11.7562ZM12.6094 29.0344L12.55 28.9156V28.975L12.6094 29.0938V29.0344ZM23.8906 15.7938L23.95 15.7344H23.8906L23.8313 15.7938H23.8906ZM34.6969 27.55V27.4906H34.6375V27.55H34.6969ZM27.1563 15.1406V15.2H27.0375L27.1563 15.1406ZM14.3906 34.675H14.45V34.7344H14.3906V34.675ZM19.675 14.0125H19.6156V14.1313L19.675 14.0125ZM25.6719 32.4781L25.7313 32.4188H25.6719L25.6125 32.4781H25.6719ZM33.6875 22.5625H33.7469V22.6219H33.6875V22.5625ZM34.875 28.7375V28.6781L34.7563 28.7375H34.875ZM32.7969 30.4594V30.5781L32.7375 30.5188L32.7969 30.4594ZM26.9781 3.26563C26.9781 3.20625 26.8594 3.20625 26.8594 3.26563H26.9781ZM31.6688 31.2313H31.7281L31.6688 31.2906H31.6094L31.6688 31.2313ZM12.4313 27.6688V27.55L12.3719 27.6094L12.4313 27.6688ZM30.8375 13.9531H30.8969L30.8375 14.0125H30.7781L30.8375 13.9531ZM24.6625 35.625H24.7812L24.6625 35.6844V35.625ZM8.9875 25.8875V25.8281L9.10625 26.0063L8.9875 25.8875ZM1.80313 20.0094V19.95L1.8625 20.0094V20.0688L1.80313 20.0094ZM33.7469 27.9656H33.6875L33.7469 28.0844V27.9656ZM20.8625 32.8344V32.8938H20.7438L20.8625 32.8344ZM31.1344 31.6469V31.7656L31.075 31.7063L31.1344 31.6469ZM30.7781 29.1531H30.7188L30.7781 29.2719V29.1531ZM18.5469 15.8531L18.6063 15.9719H18.5469V15.8531ZM31.3125 11.6375H31.3719L31.3125 11.7562V11.6375ZM0.9125 18.8219H1.03125L0.9125 18.8813V18.8219ZM25.0781 16.2687V16.2094H25.0188V16.2687H25.0781ZM15.4594 5.225H15.5188L15.4594 5.28437H15.4L15.4594 5.225ZM13.9156 7.125C13.975 7.18437 13.975 7.24375 13.9156 7.30313V7.125ZM22.2281 16.4469H22.2875V16.5063H22.2281V16.4469ZM26.4438 2.85L26.5625 2.90937H26.4438V2.85ZM31.6688 9.44063H31.7281V9.5H31.6688V9.44063ZM20.7438 16.8625H20.8031L20.7438 16.9219H20.6844L20.7438 16.8625ZM18.6656 5.28437H18.725V5.34375H18.6656V5.28437ZM9.9375 33.6656H9.81875L9.9375 33.725V33.6656ZM2.63438 17.8125C2.63438 17.7531 2.69375 17.7531 2.69375 17.6938V17.8125H2.63438ZM15.5781 6.175H15.6375L15.5781 6.23438H15.5188L15.5781 6.175ZM26.2063 17.8719V17.9906H26.1469L26.2063 17.8719ZM31.4906 25.2938H31.55V25.3531H31.4906V25.2938ZM18.3094 3.85938L18.4281 3.91875H18.3094V3.85938ZM2.51562 17.8125L2.575 17.8719V17.9906L2.51562 17.8125ZM19.2594 8.19375V8.25312H19.1406L19.2594 8.19375ZM1.68438 19.7719H1.74375V19.8313H1.68438V19.7719ZM20.6844 2.96875H20.8031L20.7438 3.02812L20.6844 2.96875ZM24.6031 15.2594V15.2H24.5438V15.2594H24.6031ZM16.0531 5.81875V5.9375H15.9938L16.0531 5.81875ZM12.9062 30.8156V30.9344V30.8156ZM27.5719 14.725C27.6313 14.6656 27.6313 14.6656 27.6313 14.725H27.5719ZM20.8031 33.3094C20.8625 33.3094 20.8625 33.3094 20.8031 33.25V33.3094ZM21.8719 2.96875H21.9906H21.8719ZM29.9469 13.5375C30.0063 13.4781 30.0063 13.4781 30.0063 13.5375H29.9469ZM20.7438 8.25312H20.625H20.7438ZM23.2375 32.6562H23.1187H23.2375ZM20.9219 3.5625H21.0406H20.9219ZM10.7688 34.4375C10.8281 34.4969 10.8281 34.4969 10.7688 34.4969V34.4375ZM10.8281 33.8438C10.8875 33.9031 10.8875 33.9031 10.8281 33.9031V33.8438ZM9.34375 10.6875C9.34375 10.7469 9.225 10.7469 9.225 10.6875H9.34375ZM14.8063 17.3969C14.7469 17.3969 14.7469 17.2781 14.8063 17.2781V17.3969ZM34.875 5.99687C34.8156 5.99687 34.8156 6.11562 34.875 6.11562V5.99687ZM17.3 14.7844V14.8438V14.7844ZM25.7906 16.0906C25.85 16.15 25.85 16.15 25.7906 16.2094V16.0906ZM11.7188 8.84687C11.7188 8.90625 11.6 8.90625 11.6 8.84687H11.7188ZM9.4625 35.9813C9.40313 35.9813 9.40313 36.1 9.4625 36.1V35.9813ZM11.4219 30.2813V30.3406V30.2813ZM12.9062 8.72812H12.9656H12.9062ZM20.625 5.04687C20.5656 4.9875 20.5656 4.9875 20.5063 5.04687H20.625ZM9.81875 30.3406C9.87813 30.4 9.87813 30.4 9.81875 30.4594V30.3406ZM33.2719 4.9875V5.04687V4.9875ZM15.9344 18.2281H15.875H15.9344ZM31.1938 8.01562C31.2531 7.95625 31.2531 7.95625 31.3125 8.01562H31.1938ZM23.3563 33.9031C23.4156 33.9625 23.4156 33.9625 23.3563 34.0219V33.9031ZM8.45312 24.9969V24.9375V24.9969ZM9.52188 31.0531V31.1125V31.0531ZM13.7969 19.5938V19.6531V19.5938ZM19.0219 13.3V13.3594V13.3ZM28.7 30.4594V30.3406C28.7594 30.4 28.7594 30.4 28.7 30.4594ZM34.1031 9.67813C34.1625 9.61875 34.1625 9.61875 34.1031 9.55937V9.67813ZM2.69375 20.9594C2.75313 20.9594 2.75313 21.0187 2.69375 21.0781V20.9594ZM28.4625 30.4594C28.4031 30.4 28.3438 30.4 28.3438 30.4594H28.4625ZM9.81875 33.3094C9.87813 33.3094 9.87813 33.25 9.81875 33.1906V33.3094ZM18.3688 10.0344H18.4281V10.0938L18.3688 10.0344ZM21.6344 2.67188H21.6938L21.6344 2.73125V2.67188ZM17.7156 5.81875H17.775H17.7156ZM10.3531 30.3406L10.2937 30.2813V30.3406H10.3531ZM28.5219 11.0437H28.5813L28.5219 11.1031V11.0437ZM33.3313 27.7875V27.7281L33.2719 27.7875H33.3313ZM33.8063 5.10625V5.16562H33.7469L33.8063 5.10625ZM15.2813 15.3781V15.4375V15.3781ZM1.26875 17.5156V17.575V17.5156ZM10.3531 10.7469H10.4125H10.3531ZM27.2156 15.4375V15.4969V15.4375ZM22.525 34.9125L22.5844 34.9719H22.525V34.9125ZM32.8563 8.37188H32.9156H32.8563ZM27.4531 15.7344V15.7938H27.3938L27.4531 15.7344ZM13.7969 6.23438H13.8563L13.7969 6.29375V6.23438ZM4.17813 20.4844V20.5438V20.4844ZM17.8938 8.84687H17.9531V8.90625L17.8938 8.84687ZM21.2188 17.2781H21.2781H21.2188ZM34.4594 29.5688V29.5094L34.4 29.5688H34.4594ZM14.0938 7.95625V8.01562V7.95625ZM12.6094 7.125L12.55 7.06562L12.6688 7.125H12.6094ZM1.15 17.7531H1.20938L1.15 17.8125V17.7531ZM4.41563 14.3094H4.475H4.41563ZM30.8375 14.9031V14.8438V14.9031ZM14.5688 6.82812V6.8875H14.5094L14.5688 6.82812ZM18.8438 33.25H18.9031H18.8438ZM27.2156 12.35H27.275H27.2156ZM7.74063 11.1031H7.8H7.74063ZM31.075 12.35H31.1344L31.075 12.4094V12.35ZM27.75 29.1531H27.8094H27.75ZM7.8 38.475L7.85938 38.5344V38.5938L7.8 38.475ZM30.1844 11.6375H30.2438H30.1844ZM31.0156 29.0344V28.975V29.0344ZM19.6156 3.38437H19.675H19.6156ZM29.5906 28.3813V28.4406H29.5313L29.5906 28.3813ZM31.9063 31.1125H31.9656L31.9063 31.1719V31.1125ZM4.7125 22.5625V22.6219V22.5625ZM31.7281 13.8937H31.6688V13.9531L31.7281 13.8937ZM10.2344 28.975V29.0344V28.975ZM26.8 33.4875V33.5469V33.4875ZM29.8875 32.4781H29.9469L29.8875 32.5375V32.4781ZM27.9875 29.0344V29.0938H27.9281L27.9875 29.0344ZM27.3938 12.7062H27.4531L27.3938 12.7656V12.7062ZM16.7063 24.7594H16.6469H16.7063ZM10.175 39.0094V39.0687H10.1156L10.175 39.0094ZM29.5906 27.4906V27.55H29.5313L29.5906 27.4906ZM30.5406 9.38125H30.6L30.5406 9.44063V9.38125ZM13.975 6.11562V6.175H13.9156L13.975 6.11562ZM20.4469 32.5969H20.5063H20.4469ZM16.7656 4.5125H16.825H16.7656ZM21.0406 2.90937H21.1H21.0406ZM18.3688 9.5V9.55937V9.5ZM10.0563 31.35V31.2906L9.99688 31.35H10.0563ZM29.7688 32.5969V32.6562V32.5969ZM27.9281 16.5063V16.5656V16.5063ZM24.8406 31.825V31.7656L24.7812 31.825H24.8406ZM10.2344 8.66875H10.2937H10.2344ZM14.8063 16.5063H14.8656L14.8063 16.5656V16.5063ZM29.65 9.7375V9.79688V9.7375ZM16.5281 13.4188V13.4781H16.4688L16.5281 13.4188ZM18.0719 33.9031H18.0125H18.0719ZM20.2094 5.225H20.15H20.2094ZM17.2406 5.225H17.3H17.2406ZM32.7969 23.9281H32.8563L32.7969 23.9875V23.9281ZM23.3563 32.0625H23.2969V32.1219L23.3563 32.0625ZM27.9875 14.725H28.0469H27.9875ZM2.39688 21.0781V21.0188L2.45625 21.1375L2.39688 21.0781ZM2.93125 21.0188L2.99063 21.0781V21.1375L2.93125 21.0188ZM33.7469 6.53125V6.59063H33.6875L33.7469 6.53125ZM34.4 27.3125H34.3406V27.3719L34.4 27.3125ZM30.2438 13.3V13.3594H30.1844L30.2438 13.3ZM32.3219 12.2906H32.3813L32.3219 12.35V12.2906ZM14.3313 18.3469V18.4062V18.3469ZM30.125 26.8969V26.9563V26.8969ZM29.5906 12.1125H29.65V12.1719L29.5906 12.1125ZM30.4219 1.06875H30.4813V1.12813L30.4219 1.06875ZM28.6406 12.8844V12.825V12.8844ZM29.1156 28.2625V28.3219V28.2625ZM28.7594 28.975H28.8188L28.7594 29.0344V28.975ZM15.4594 14.0125V14.0719H15.4L15.4594 14.0125ZM18.8438 4.45312H18.9031L18.8438 4.5125V4.45312ZM10.175 8.72812V8.7875H10.1156L10.175 8.72812ZM14.2719 27.7875V27.7281V27.7875ZM27.8094 11.7562V11.8156H27.75L27.8094 11.7562ZM31.4906 14.1313H31.4313V14.1906L31.4906 14.1313ZM34.6969 7.125C34.7563 7.18437 34.7563 7.18437 34.6969 7.18437V7.125ZM26.3844 32.9531C26.4438 32.8937 26.4438 32.8937 26.4438 32.9531H26.3844ZM32.7375 8.96563H32.7969H32.7375ZM14.7469 18.7031V18.6438V18.7031ZM14.7469 17.4563V17.5156V17.4563ZM9.7 10.3312H9.75937H9.7ZM20.6844 4.45312H20.7438H20.6844ZM16.5281 5.64062H16.5875H16.5281ZM9.10625 22.2656H9.16563H9.10625ZM18.0719 14.5469V14.6062V14.5469ZM25.0781 31.1719H25.1375H25.0781ZM28.1656 32.6562V32.7156V32.6562ZM29.1156 15.4969H29.175H29.1156ZM32.2031 9.7375H32.2625H32.2031ZM10.7688 8.25312H10.8281H10.7688ZM10.2937 36.3969H10.3531H10.2937ZM18.4281 16.0312H18.4875H18.4281ZM27.6313 31.7063V31.7656V31.7063ZM7.68125 12.1719V12.2313V12.1719ZM29.9469 10.0344V10.0938V10.0344ZM20.0906 33.6656V33.6063V33.6656ZM17.1813 4.33437H17.2406H17.1813ZM23.4156 33.6656V33.725V33.6656ZM19.0813 4.33437H19.1406H19.0813ZM21.9906 3.26563H22.05H21.9906ZM31.3125 8.49063H31.3719H31.3125ZM15.875 5.04687V5.10625V5.04687ZM14.5688 27.075V27.0156V27.075ZM9.99688 8.84687V8.90625V8.84687ZM26.325 3.26563V3.20625V3.26563ZM30.3625 32.1219H30.4219H30.3625ZM19.4375 14.1906V14.1313V14.1906ZM33.8063 27.7281V27.6688V27.7281ZM11.8969 30.875H11.9563H11.8969ZM11.5406 31.1719V31.2313V31.1719ZM28.9969 10.5094V10.5688V10.5094ZM27.6313 15.6156V15.675V15.6156ZM17.5375 16.8625V16.9219V16.8625ZM9.99688 39.3656H9.9375H9.99688ZM29.9469 13.0031V13.0625V13.0031ZM25.0188 33.1906H25.0781H25.0188ZM18.8438 12.9438V13.0031V12.9438ZM32.9156 5.87813V5.9375V5.87813ZM1.80313 18.5844H1.8625H1.80313ZM4.77188 21.0781H4.83125H4.77188ZM10.5313 32.8938V32.9531V32.8938ZM31.4313 2.1375V2.19688V2.1375ZM26.2063 13.7156H26.2656H26.2063ZM9.81875 34.0813V34.0219V34.0813ZM32.1438 6.47187H32.2031H32.1438ZM26.5625 22.7406H26.6219H26.5625ZM24.9 16.3281H24.8406H24.9ZM26.2063 2.90937H26.2656H26.2063ZM21.4563 4.69063H21.3969H21.4563ZM16.1719 25.1156H16.1125H16.1719ZM21.8719 18.3469V18.2875V18.3469ZM12.4313 35.8625H12.4906H12.4313ZM21.9906 4.09688H21.9313H21.9906ZM33.925 28.2031H33.8656H33.925ZM19.4969 4.92813H19.5562H19.4969ZM15.0438 7.42188L15.1031 7.3625L15.0438 7.42188ZM12.7875 31.0531V31.1125V31.0531ZM18.0125 8.66875V8.72812V8.66875ZM22.7031 34.9719H22.7625H22.7031ZM20.7438 4.9875H20.6844H20.7438ZM14.2719 7.77812H14.3313H14.2719ZM22.4062 3.14687H22.4656H22.4062ZM34.4 23.1563H34.3406H34.4ZM25.6125 31.0531H25.5531H25.6125ZM32.3813 9.5V9.55937V9.5ZM16.825 6.29375V6.35312V6.29375ZM25.4344 17.3969H25.4938H25.4344ZM17.3594 4.45312H17.4188H17.3594ZM32.9156 8.01562V8.075V8.01562ZM18.5469 33.3094H18.6063H18.5469ZM29.8875 12.825V12.8844V12.825ZM12.075 8.55H12.1344H12.075ZM12.6688 28.8563V28.7969V28.8563ZM25.4938 14.3094H25.5531H25.4938ZM33.925 5.87813H33.9844H33.925ZM23.0594 34.0813H23.1187H23.0594ZM21.575 4.15625H21.6938H21.575Z" fill="black"/>
<path d="M48.3438 33.1469C49.0438 33.1469 49.3938 32.8406 49.3938 32.2281V30.2156C49.3938 29.5594 49.0438 29.2531 48.3438 29.2531H42.5251V20.3719H46.2001C46.9001 20.3719 47.2501 20.0656 47.2501 19.4094V17.3969C47.2501 16.7406 46.9001 16.4344 46.2001 16.4344H42.5251V6.54688H48.1251C48.7813 6.54688 49.1313 6.24062 49.1313 5.62812V3.61562C49.1313 2.95937 48.7813 2.65313 48.1251 2.65313H38.5438C37.8001 2.65313 37.4501 2.95937 37.4501 3.61562V32.2281C37.4501 32.8406 37.8001 33.1469 38.5438 33.1469H48.3438Z" fill="black"/>
<path d="M65.4169 19.2781C65.4169 18.6219 65.0669 18.3156 64.3232 18.3156H59.3794C58.5919 18.3156 58.1982 18.6219 58.1982 19.2781V21.1594C58.1982 21.7719 58.5919 22.0781 59.3794 22.0781H60.2544V28.1594C60.2544 28.8156 59.5544 29.3406 58.5482 29.3406C57.3669 29.3406 56.7982 29.0344 56.7982 28.3781C56.7544 27.1969 56.7544 25.2719 56.7544 22.5594V6.37187C56.7544 5.75937 57.3669 5.45313 58.5482 5.45313C59.6419 5.45313 60.2107 5.80312 60.2107 6.50313V8.07813C60.2107 8.73438 60.5607 9.04062 61.3044 9.04062H64.3232C65.0669 9.04062 65.4169 8.73438 65.4169 8.07813V7.02812C65.4169 3.87813 62.7482 1.60312 58.5482 1.60312C54.2169 1.60312 51.5044 3.61562 51.5044 6.89688V27.8531C51.5044 31.1781 54.3482 33.1469 58.5482 33.1469C60.7794 33.1469 62.4419 32.5781 63.6232 31.3969C64.8044 30.2156 65.4169 29.0344 65.4169 27.7656V19.2781Z" fill="black"/>
<path d="M81.4814 19.2781C81.4814 18.6219 81.1314 18.3156 80.3876 18.3156H75.4439C74.6564 18.3156 74.2626 18.6219 74.2626 19.2781V21.1594C74.2626 21.7719 74.6564 22.0781 75.4439 22.0781H76.3189V28.1594C76.3189 28.8156 75.6189 29.3406 74.6126 29.3406C73.4314 29.3406 72.8626 29.0344 72.8626 28.3781C72.8189 27.1969 72.8189 25.2719 72.8189 22.5594V6.37187C72.8189 5.75937 73.4314 5.45313 74.6126 5.45313C75.7064 5.45313 76.2751 5.80312 76.2751 6.50313V8.07813C76.2751 8.73438 76.6251 9.04062 77.3689 9.04062H80.3876C81.1314 9.04062 81.4814 8.73438 81.4814 8.07813V7.02812C81.4814 3.87813 78.8126 1.60312 74.6126 1.60312C70.2814 1.60312 67.5689 3.61562 67.5689 6.89688V27.8531C67.5689 31.1781 70.4126 33.1469 74.6126 33.1469C76.8439 33.1469 78.5064 32.5781 79.6876 31.3969C80.8689 30.2156 81.4814 29.0344 81.4814 27.7656V19.2781Z" fill="black"/>
</svg>
