<svg width="181" height="61" viewBox="0 0 181 61" fill="none" xmlns="http://www.w3.org/2000/svg">
<g clip-path="url(#clip0_4722_11)">
<path fill-rule="evenodd" clip-rule="evenodd" d="M0.0398165 28.5591C0.887211 13.0016 13.1294 0.737868 28.5859 0.0319325C46 -0.762034 60.2877 13.3541 59.9956 30.7355C59.7617 46.734 46.9348 59.8797 31.0109 60.4092C28.4106 60.4677 25.927 60.2327 23.5313 59.7033C22.8592 59.5563 22.3039 59.0268 22.1579 58.3213L16.1684 31.7645C15.993 31.2645 16.6065 30.9705 16.8986 31.3825L24.0573 42.4698C24.6122 43.2928 25.7517 43.4103 26.4237 42.6753L26.6283 42.4698C28.0599 40.8814 29.93 39.764 31.9751 39.205C36.8255 37.8521 46.0293 35.1758 49.1556 32.9409C53.3043 29.9116 53.7429 25.3828 53.6843 23.2065C53.655 22.5595 53.1001 22.0301 52.4281 22.0596L36.8255 22.736C34.8387 22.824 32.8518 22.3536 31.0695 21.4126L27.6218 19.5302C25.5763 18.4423 23.2099 17.9718 20.9016 18.2953L14.2103 19.1777C10.1203 19.7362 6.67209 22.442 5.21164 26.2948C4.07174 29.3236 2.8155 33.0294 1.90952 36.7642C1.73419 37.3522 0.857919 37.3522 0.711874 36.7347C0.156569 34.1468 -0.106228 31.4115 0.0398165 28.5591ZM28.8178 24.1182C29.0019 25.4437 28.0537 26.6635 26.7366 26.8492C25.4194 27.0615 24.1811 26.1067 24.023 24.7544C23.8385 23.4286 24.787 22.2087 26.1042 22.023C27.4214 21.8377 28.6333 22.7921 28.8178 24.1182Z" fill="#F4B30C"/>
<path fill-rule="evenodd" clip-rule="evenodd" d="M149.271 15.0469C151.217 15.0469 152.795 13.4694 152.795 11.5234C152.795 9.57749 151.217 8 149.271 8C147.325 8 145.748 9.57749 145.748 11.5234C145.748 13.4694 147.325 15.0469 149.271 15.0469ZM124.25 21.8171C125.261 19.2177 128.438 16.7145 132.289 16.7145C138.595 16.7145 143.36 21.9134 143.36 29.9043C143.36 37.8951 138.595 43.1421 132.289 43.1421C128.438 43.1421 125.453 40.9759 124.298 38.0395H124.25V42.3719H117.799V8.00159H124.25V21.8171ZM123.768 29.9043C123.768 34.8143 126.464 38.0395 130.46 38.0395C134.359 38.0395 137.151 34.8143 137.151 29.9043C137.151 24.9942 134.311 21.8171 130.46 21.8171C126.609 21.8171 123.961 24.8017 123.768 29.3747V29.9043ZM88.9708 22.2022V17.4847H84.0608V9.06062H83.8682L77.9473 12.1414V17.4847H74V22.2022H77.9473V33.8997C77.9473 38.7616 79.584 42.3719 85.5531 42.3719H88.5376V37.7026H87.0453C84.7347 37.7026 84.0608 35.7771 84.0608 33.0332V22.2022H88.9708ZM107.443 17.4847V29.8561C107.443 35.7771 105.18 38.0395 101.907 38.0395C98.3445 38.0395 97.3336 35.1031 97.3336 31.204V17.4847H91.172V32.6962C91.172 38.8097 93.6752 43.1421 100.126 43.1421C104.265 43.1421 106.624 40.639 107.539 37.7026V42.3719H113.652V17.4847H107.443ZM146.159 42.3719H152.369V17.4847H146.159V42.3719ZM180.15 42.3719H172.689L165.083 32.4074L162.676 34.8624V42.3719H156.514V8.00159H162.676V27.5936L172.111 17.4847H179.524L169.078 28.2194L180.15 42.3719Z" fill="#F4B30C"/>
</g>
<defs>
<clipPath id="clip0_4722_11">
<rect width="181" height="61" fill="white"/>
</clipPath>
</defs>
</svg>
