<svg width="67" height="91" viewBox="0 0 67 91" fill="none" xmlns="http://www.w3.org/2000/svg">
<g clip-path="url(#clip0_27_405)">
<path d="M8.32284 1.32709L64.1237 40.1917V40.0021C65.4478 40.95 66.0153 41.8979 66.0153 43.225V47.9646C66.0153 49.2917 65.4478 50.2396 64.1237 51.1875V50.9979L8.32284 89.6729C6.99876 90.6208 5.67467 91 4.35058 91C1.89156 91 0 88.9146 0 86.45V78.4875C0 76.7812 0.567467 75.6437 1.7024 74.8854L1.51324 75.075L43.3166 45.6896C41.2359 44.3625 39.1552 42.8458 36.8853 41.1396C32.3456 37.9167 23.4553 31.4708 16.6457 26.3521C15.6999 25.5937 9.64693 21.9917 6.43129 19.9062C3.4048 17.6312 0 14.5979 0 12.5125V4.36041C0 1.89583 1.89156 0 4.35058 0C5.67467 0 6.99876 0.379164 8.32284 1.32709Z" fill="white"/>
<path d="M88.3076 1.32709L144.108 40.1917V40.0021C145.433 40.95 146 41.8979 146 43.225V47.9646C146 49.2917 145.433 50.2396 144.108 51.1875V50.9979L88.3076 89.6729C86.9835 90.6208 85.6594 91 84.3353 91C81.8763 91 79.9847 88.9146 79.9847 86.45V78.4875C79.9847 76.7812 80.5522 75.6437 81.6871 74.8854L81.498 75.075L123.301 45.6896C121.221 44.3625 119.14 42.8458 116.87 41.1396C112.33 37.9167 103.44 31.4708 96.6304 26.3521C95.6846 25.5937 89.6317 21.9917 86.416 19.9062C83.3895 17.6312 79.9847 14.5979 79.9847 12.5125V4.36041C79.9847 1.89583 81.8763 0 84.3353 0C85.6594 0 86.9835 0.379164 88.3076 1.32709Z" fill="white"/>
</g>
<defs>
<clipPath id="clip0_27_405">
<rect width="67" height="91" fill="white"/>
</clipPath>
</defs>
</svg>
