<svg width="81" height="40" viewBox="0 0 81 40" fill="none" xmlns="http://www.w3.org/2000/svg">
<path d="M4.15625 22.9187C3.91875 22.8 4.39375 22.8 4.15625 22.9187C4.33438 22.9781 4.63125 23.0375 4.9875 23.0375C4.9875 22.9781 5.04688 22.9187 5.16563 22.9187V23.0375C5.7 23.0375 5.9375 22.9187 5.9375 22.6812V22.6219L5.87813 22.5625L5.99688 22.3844V22.5625C6.23438 22.0875 6.35313 21.7906 6.35313 21.7313C6.35313 21.5531 6.29375 21.375 6.23438 21.2563C6.23438 21.3156 6.175 21.375 6.11563 21.375C5.4625 21.375 3.62188 21.0781 3.38438 20.6625H3.44375C3.50313 20.6625 3.62188 20.7219 3.8 20.7812C3.85938 20.8406 3.91875 20.8406 3.97813 20.8406L3.91875 20.7219L4.09688 20.7812H4.21563L4.15625 20.7219C4.09688 20.7219 4.0375 20.6625 3.91875 20.6031L3.74063 20.5438L2.90938 20.0094H2.85L2.79063 20.0688H2.73125C2.73125 19.0594 3.44375 17.6344 3.85938 17.1C4.0375 16.8031 4.45313 16.3281 5.04688 15.6156L5.99688 14.4875L8.90625 11.8156C11.1031 10.5688 12.7063 9.38125 13.7156 8.13437H13.6563C13.5969 8.13437 13.4188 8.3125 13.2406 8.3125C13.2406 8.25313 13.5969 7.95625 14.3094 7.42188H14.25C14.25 7.3625 14.3094 7.24375 14.3688 7.18437L14.4281 7.30313C14.4281 7.3625 14.4281 7.3625 14.3688 7.3625L14.9625 7.00625C14.9031 7.00625 14.9031 7.00625 14.9031 6.94687H14.9625V7.00625L15.4375 6.59063H15.4969C15.4375 6.76875 15.3781 6.82812 15.3781 6.8875C15.675 6.8875 15.8531 6.8875 16.0313 6.82812L15.6156 7.00625V7.06562H15.7344C16.2094 6.8875 17.4562 6.175 17.6938 6.11562L17.575 6.05625C17.6344 6.05625 17.6938 5.99687 17.7531 5.9375V5.99687H17.8125L19 5.40312H18.8219L18.1094 5.75937H18.05C19.5344 4.86875 20.425 4.33437 20.6031 4.275V4.21562H20.6625C20.6625 4.275 20.6625 4.275 20.6031 4.275L20.8406 4.15625H20.7813C20.7813 4.09688 20.8406 4.09688 20.9594 4.09688H21.0188C20.9594 4.09688 20.9594 4.09688 20.9594 4.15625C21.0187 4.09688 21.0781 4.09688 21.1969 4.09688C21.1969 4.0375 21.1969 3.97813 21.2563 3.97813V4.09688C21.4938 4.0375 21.6719 3.97813 21.85 3.97813L21.7313 3.91875C21.7313 3.85937 21.7906 3.85938 21.85 3.85938H21.9094C22.2063 3.97813 22.1469 3.8 22.325 3.8L22.3844 3.74062L22.5031 3.8H22.6219C22.8 3.8 22.8594 3.74062 22.8594 3.68125C22.7406 3.68125 22.6812 3.62187 22.6219 3.5625H22.8C22.8594 3.5625 23.0969 3.62187 23.1563 3.62187C23.2156 3.62187 23.3938 3.5625 23.6313 3.50313L23.5719 3.38437C24.4625 3.14687 25.4125 3.0875 26.5406 3.14687C26.6 3.0875 26.6594 3.02812 26.7188 3.02812V3.14687L27.075 3.20625C27.1344 3.20625 27.3125 3.14687 27.3719 3.14687V3.26563H27.4313H27.55L27.6094 3.325V3.14687C28.6188 3.14687 29.5688 4.21562 29.5688 5.225C29.5688 7.18437 28.4406 9.20313 26.1844 11.2812L25.4719 11.9344C24.5219 12.825 24.3438 12.825 23.3344 13.7156L22.1469 14.6656C21.0188 15.3781 19.6531 16.0906 18.7625 16.0906C18.7625 15.6156 19.0594 14.5469 19.0594 14.1313H19C19 14.3688 18.3469 15.1406 18.4062 15.8531C18.2875 15.9719 18.2281 16.0313 18.2875 16.0906L17.9313 16.3875C17.9313 16.0906 18.2281 14.6062 18.4062 14.6062C18.4062 14.0125 18.7031 13.1812 19.2375 12.0531C19.8313 10.925 20.1875 10.1531 20.2469 9.85625V9.79688C20.3062 9.5 20.3656 9.2625 20.3656 9.14375C20.3656 8.60937 20.0688 8.3125 19.4156 8.3125L18.4062 7.95625L18.4656 8.075C18.4062 8.075 18.3469 8.075 18.2281 8.01562L18.1094 7.95625H18.05L17.2781 8.25312C17.2188 8.25312 17.1594 8.19375 17.1594 8.01562C16.9813 8.01562 16.9219 7.77812 16.8625 7.77812H16.8031L16.6844 8.13437H16.625L16.5656 8.01562H16.5063C16.2094 8.01562 16.0313 8.25313 16.0313 8.66875C16.0313 8.72812 16.0313 8.7875 16.0906 8.7875C15.4969 9.14375 14.8438 10.8063 14.0719 13.8344L10.8062 20.8406C10.7469 21.0188 10.2719 21.1375 9.44063 21.3156C8.60938 21.4938 8.19375 21.7313 8.19375 22.1469C8.19375 22.325 8.25313 22.5625 8.25313 22.6219C8.25313 22.6813 8.25313 22.7406 8.19375 22.8L8.075 22.6219C7.95625 22.6813 7.89688 22.8594 7.89688 23.275V23.3344L8.01563 23.3938C8.01563 23.8094 7.89688 23.9875 7.6 23.9875V24.4031L7.65938 24.2844C7.8375 24.3438 7.65938 25.175 7.8375 25.2344L8.01563 25.1156C8.01563 25.175 8.075 25.175 8.13438 25.175C8.19375 25.175 8.25312 25.1156 8.3125 24.9969C8.43125 25.0562 8.49063 25.1156 8.49063 25.2938C8.49063 25.4719 8.19375 25.5906 8.19375 25.65C8.01563 25.65 7.95625 25.4719 7.89688 25.4125V25.4719C7.95625 25.7094 8.37188 26.3031 8.43125 26.3625V26.5406C8.43125 27.4312 8.075 28.8562 7.42188 30.6969C6.76875 32.5375 6.47188 33.9625 6.47188 34.9719C6.47188 35.8031 6.47188 36.5156 6.53125 37.1094C6.59063 37.2875 6.8875 38.2969 7.06563 38.7125C7.30313 39.1281 7.71875 39.6031 8.37188 39.6031C8.84688 39.6031 9.08438 39.5438 9.08438 39.425L9.025 39.3656V39.2469L9.32188 39.1281V39.3063C9.61875 39.3063 9.85625 39.0688 9.975 38.5344V38.2969H9.44063L9.38125 38.2375C9.32188 38.1781 9.32188 38 9.32188 37.7625C9.32188 37.5844 9.44063 37.2875 9.44063 37.1094V37.05L9.38125 37.1094V36.9906C9.38125 36.7531 9.38125 36.6344 9.44063 36.6344H9.5V36.9906C9.67813 36.6937 9.7375 36.4563 9.79688 36.2781H9.85625C9.85625 36.575 9.975 36.8125 10.1531 36.8719C10.45 36.9313 12.7063 37.05 13.4781 37.3469H14.6063L14.7844 37.4062H14.8438C15.0219 37.4062 15.5563 37.3469 15.7938 37.3469H16.0906L16.2094 37.4062H16.625C17.3969 37.4062 18.525 37.1687 20.0094 36.6937C19.7719 36.575 20.2469 36.575 20.0094 36.6937C21.6125 36.1594 22.8 35.8625 23.5719 35.8625H23.6313L23.6906 35.9813C23.8688 35.8031 24.4031 35.5063 25.2938 35.15C26.1844 34.8531 26.7188 34.675 26.7781 34.6156L30.2219 32.3594C30.2219 32.3 30.2219 32.3 30.2812 32.3L30.4 32.3594L30.4594 32.3C30.6375 32.1219 30.875 31.9438 31.2906 31.7656C31.5875 31.2313 33.1906 30.0438 33.25 29.9844H33.1906C32.9531 29.9844 32.6562 30.4594 32.4781 30.4594L32.3594 30.3406L32.2406 30.4594H32.1813L32.1219 30.4V30.3406C32.3594 30.1031 33.7844 29.1531 33.7844 28.5594V28.4406C33.5469 28.6781 33.25 28.7969 33.25 29.0938C33.25 29.0344 33.1906 29.0344 33.1313 29.0344C32.7156 29.0344 31.5875 30.2813 31.4094 30.3406L31.35 30.4V30.3406L31.2906 30.2219C31.2906 29.9844 31.7063 29.6281 32.5969 29.1531C33.4875 28.6781 33.9031 28.2625 33.9031 27.9656V27.9063C33.8437 27.9063 33.6063 28.1438 33.0719 28.5594C32.5969 28.975 32.3 29.2125 32.1219 29.1531L32.0031 29.0344C31.9438 29.0938 31.825 29.3313 31.5875 29.3906V29.45H31.6469L31.825 29.3906L32.0031 29.3313H32.0625C32.0031 29.5094 31.5875 29.6281 31.5281 29.6875C31.5281 29.2125 31.0531 29.9844 30.6375 29.9844C30.6375 29.7469 30.9938 29.6281 30.9938 29.3313C30.6375 29.3313 30.4 29.5688 30.2812 29.9844H30.4594C30.4594 30.1625 30.4 30.2219 30.3406 30.2219H30.2812L30.1625 30.1625V30.6375L30.0438 30.6969C30.0438 30.6375 30.0438 30.5781 29.9844 30.5188H29.925C29.6875 30.5188 28.975 31.1719 28.6781 31.1719H28.6188L28.5594 31.1125L28.4406 31.0531V31.1719L28.5594 31.2313C28.5594 31.4094 28.3813 31.35 28.3813 31.5875H28.5594C28.0844 32.1812 27.6688 32.4781 27.2531 32.4781C27.1938 32.4781 27.0156 32.4188 26.9563 32.4188C26.9563 32.1813 28.2625 31.9438 28.2625 31.6469C28.2625 31.4688 28.2031 31.4094 28.1438 31.4094C27.9656 31.4094 27.6094 31.7656 27.3719 31.7656C27.3719 31.5875 27.4313 31.4688 27.6094 31.4688H27.6688L27.7875 31.5281C27.7281 31.4688 27.8469 31.35 28.025 31.2906C28.4406 31.1125 28.3219 31.0531 28.2625 31.0531C28.025 31.2313 27.8469 31.2906 27.6688 31.2906C27.6688 30.9937 29.2125 30.5188 29.2125 29.8656C28.7969 29.6281 26.4813 31.7062 26.1844 31.8844C26.2437 31.9437 26.3031 31.9438 26.3625 31.9438C26.4813 31.9438 26.5406 31.8844 26.6 31.825C26.6 31.9438 26.6594 32.0031 26.7781 32.0031L26.8375 31.9438H26.8969V32.0625H26.3625C26.3625 32.2406 26.6 32.3 26.6 32.3594C26.4219 32.3594 26.3031 32.4781 26.125 32.4781H25.9469C26.0063 32.4188 26.0063 32.3594 26.0063 32.3C25.65 32.3 25.4719 32.3594 25.4719 32.5375L25.5312 32.5969L25.4719 32.6562C25.4125 32.5969 25.2938 32.5375 25.175 32.5375C25.1156 32.5375 24.9375 32.6562 24.5219 32.8344C24.5812 32.775 24.5813 32.775 24.5813 32.7156C24.5813 32.6563 24.5219 32.5969 24.3438 32.5969C23.8688 32.775 22.9781 33.25 22.4438 33.25V33.0719H22.3844C22.2063 33.4875 21.6719 33.6656 20.7813 33.6656H20.5438L20.4844 33.6063H20.425C20.3656 33.6063 20.2469 33.6656 20.1875 33.8438H19.5938L19.475 33.9031L19.4156 33.8438H19.2969C18.7625 33.8438 17.9906 33.9625 16.8625 34.2594C15.7344 34.5563 14.9031 34.675 14.3688 34.675H14.0719C14.4875 34.5563 15.4969 34.2 15.9125 34.2L16.0313 34.2594C16.2688 34.2594 16.5063 33.6656 16.8031 33.6656H16.9219L16.8031 33.725C16.6844 33.7844 16.625 33.7844 16.625 33.8438C16.625 33.9031 16.625 33.9031 16.6844 33.9625V34.0219C16.625 34.0219 16.5656 34.0812 16.5656 34.1406C16.8031 34.1406 17.4563 33.6063 17.8719 33.6063L17.9313 33.6656H17.9906C18.1688 33.6656 18.4656 33.3094 18.7031 33.3094L18.7625 33.3688C18.8219 33.4281 18.8219 33.4281 18.8813 33.4281C19.0594 33.4281 19.1781 33.3094 19.1781 33.1312C19.1781 33.1312 19.2375 33.1906 19.3563 33.3094L19.5344 33.1312V33.0719C19.5938 33.0719 19.5938 33.1313 19.5938 33.1906C19.5938 33.3094 19.5938 33.4281 19.5344 33.4875H19.5938C19.6531 33.4875 19.7125 33.3688 19.7125 33.1906V33.1312L19.6531 33.0719H20.0094L20.1281 33.0125C20.1875 33.0125 20.3656 33.1906 20.5438 33.1906V33.1312C20.4844 33.1312 20.4844 33.1313 20.425 33.0719L20.3656 33.0125V32.9531C20.3656 32.8937 20.425 32.8344 20.6031 32.8344L20.5438 32.7156C20.6031 32.5375 20.9 32.4188 21.375 32.4188H21.4344C21.375 32.5969 20.7813 32.6562 20.7813 32.9531H20.8406C21.4344 32.6562 21.6125 32.5969 21.7313 32.7156C21.4938 32.4781 21.85 32.3594 22.0875 32.3594C22.0875 32.0625 22.9781 31.5875 23.275 31.5875C23.3344 31.5875 23.3344 31.7656 23.3938 31.7656C23.4531 31.7656 23.5125 31.7656 23.5719 31.7063L23.4531 31.6469C23.4531 31.5281 23.5125 31.4688 23.6906 31.4688C23.8094 31.4688 23.8688 31.4688 23.9281 31.5281C23.8688 31.35 24.1656 31.2313 24.225 31.2313H24.2844L24.1656 31.4094C24.3438 31.4094 24.4625 31.35 24.6406 31.1719L24.4625 31.1125C24.5812 30.9344 24.7594 30.8156 24.9375 30.8156V30.9937C25.3531 30.9937 25.5906 30.875 25.5906 30.6375L25.4125 30.5781C25.4719 30.5781 25.8875 30.1625 26.125 30.1625H26.1844L26.125 30.2219L25.7094 30.5188V30.5781C26.0063 30.5781 26.8969 29.6875 27.1938 29.8656C27.6094 29.7469 29.2719 28.1438 29.6281 28.2625C30.7563 27.2531 31.35 26.7188 31.4094 26.6C31.4688 26.6594 31.5281 26.6594 31.5875 26.6594H31.6469C31.7063 26.6594 31.825 26.6594 32.0031 26.6V26.2437C32.0625 26.4219 32.4188 26.9563 32.4188 27.0156V27.075L32.0625 27.3719L31.8844 27.3125C31.8844 27.2531 32.2406 27.075 32.2406 26.8375C31.8844 26.8375 31.7063 26.9563 31.7656 27.1938L31.6469 27.075L31.5875 27.0156C31.5281 27.0156 31.4688 27.075 31.4094 27.1344L31.2313 27.1938C31.1719 27.1938 31.1719 27.1937 31.1125 27.1344H31.0531C31.0531 27.4312 30.1031 27.8469 30.2812 28.3813C30.2812 28.4406 30.3406 28.4406 30.5188 28.4406H30.5781L30.9344 28.0844H31.1125C31.1125 28.5 30.6375 28.5594 30.4594 28.7375V28.7969C30.4594 28.975 30.5781 29.2125 30.5781 29.45C30.875 29.3313 31.0531 29.1531 31.0531 28.975L30.9938 28.7969V28.7375C30.9938 28.5594 31.0531 28.5 31.1719 28.5H31.2313C31.2313 28.5594 31.35 28.6781 31.35 28.7375H31.4094C31.5875 28.7375 31.8844 28.5594 31.9438 28.5594C32.1812 28.5594 32.3594 28.6188 32.4188 28.7375L32.4781 28.6781V28.5594C32.3 28.5594 31.9438 28.4406 31.9438 28.3219L32.0031 28.2031L31.9438 28.1438H31.8844L31.825 28.2031C31.7656 28.2031 31.5281 28.2625 31.4688 28.2625V28.2031C31.4688 28.1438 31.5875 28.0844 31.825 27.9656L32.9531 27.075H33.25V26.7188C33.5469 26.5406 34.4375 25.5906 34.4375 25.2938C34.4375 25.2344 34.2594 25.2344 34.2594 24.9969H34.2V25.2938H34.0812V24.8188H33.9031L33.7844 24.9969C33.6063 25.2344 33.3688 25.4125 33.3094 25.3531L33.25 25.2938V24.7594C33.25 24.7 33.1313 24.6406 32.9531 24.6406V24.4625C33.25 24.4625 33.4281 24.3437 33.4281 24.1062H33.3688C33.3688 23.9875 33.3688 23.9281 33.4281 23.9281C33.5469 24.225 33.6656 24.3438 33.7844 24.2844C33.9031 24.2844 33.9625 24.225 33.9625 24.0469C33.9625 23.8094 33.6656 23.4531 33.4281 23.4531V22.9187H33.5469L33.725 23.0375L33.7844 22.9781L33.4875 22.6812L33.5469 22.6219L33.6063 22.5031L33.725 22.5625C33.725 22.5031 33.725 22.4437 33.6656 22.3844L33.6063 22.2063L33.5469 22.2656H33.4281C33.1313 20.3063 30.7563 19.0594 26.4219 18.4062L26.3625 18.3469V18.1688C26.125 18.2281 25.9469 18.2875 25.8281 18.2875L25.7094 18.2281C25.7094 18.2281 25.7094 18.2281 25.65 18.2281V18.1688L28.7375 15.7344C28.3219 16.15 27.9063 16.625 27.55 17.1C28.6188 16.5656 30.0438 15.7937 30.0438 14.9625C29.8063 14.9625 29.5688 15.0813 29.2719 15.2594C30.2812 14.3688 31.1719 13.4188 31.9438 12.2906L32.1219 12.0531L32.2406 12.1125C32.1812 11.9344 32.7156 11.2219 32.7156 11.1625L32.8344 11.2219C32.8344 10.8063 33.0719 10.925 33.0719 10.7469H33.0125C33.0125 10.45 33.0719 10.1531 33.25 9.85625V9.79688V9.85625L33.4281 9.38125V9.32187H33.4875C34.0219 8.19375 34.2594 7.42188 34.2594 6.94687V6.53125C34.2 6.47188 34.2 6.47187 34.2 6.4125H34.2594C34.2594 6.23437 34.1406 6.11562 33.9625 6.11562V6.23438L34.0219 6.35312V6.4125C34.0219 6.47187 33.9625 6.82812 33.9625 6.8875V6.65L33.725 7.30313L33.6656 7.24375L33.6063 7.18437L33.5469 7.24375C33.5469 7.06563 33.5469 6.94687 33.6063 6.94687L33.6656 7.06562L33.725 7.00625C33.6656 7.00625 33.6656 6.94687 33.6063 6.82812V6.76875C33.6063 6.70938 33.6656 6.35313 33.6656 6.175V5.9375C33.4875 5.99687 33.3688 6.76875 33.3094 6.82812H33.25L33.1906 6.76875V6.70938C33.1906 6.53125 33.3094 6.23437 33.5469 5.75937C33.4875 5.7 33.4281 5.64063 33.4281 5.58125H33.4875V5.52188H33.5469C33.6063 5.52188 33.6063 5.34375 33.5469 5.34375C33.4875 5.40312 33.4875 5.4625 33.4875 5.52188H33.4281L33.3094 5.40312C33.25 5.34375 33.25 5.28437 33.25 5.225C33.25 5.04687 33.3094 4.9875 33.3688 4.9875L33.3094 4.92813V4.80937L33.4281 4.75H33.1313V4.63125L33.1906 4.57187V4.5125L33.1313 4.45312V4.39375L33.1906 4.33437V4.21562C33.1906 3.97813 32.8938 3.325 32.6562 3.325V3.44375C32.6562 3.50313 32.6563 3.5625 32.7156 3.5625H32.6562C32.3 3.5625 32.1219 3.44375 32.1219 3.14687C32.1219 2.96875 32.1812 2.90937 32.2406 2.85C32.1812 2.79062 32.1219 2.67188 32.1219 2.6125C32.0625 2.6125 30.2812 0.949998 28.5594 0.356249C28.7969 0.475001 28.3219 0.475001 28.5594 0.356249C27.9656 0.118748 27.3719 0 26.7188 0H26.6594L26.4219 0.178123H24.6406L24.4625 0.296875L24.6406 0.356249H24.3438L24.2844 0.296875H24.225C23.4531 0.296875 23.0969 0.415624 23.0969 0.59375C23.0375 0.59375 22.8594 0.534375 22.6812 0.534375V0.59375H22.5031L19.6531 1.6625C18.2875 2.25625 16.8625 2.96875 15.4969 3.74062L12.2313 5.75937L8.49063 8.49063C6.59063 9.975 4.45312 11.6969 1.9 14.725C0.653125 16.2094 0 17.3969 0 18.1688V18.2281L0.059375 18.2875C0.059375 18.2281 0.11875 18.2281 0.178125 18.2281C0.178125 18.4656 0 18.7625 0.296875 19.1781C0.475 19.1188 0.890625 19.7125 0.890625 19.8906V19.95L0.35625 19.2969C0.35625 20.7219 2.43438 22.3844 4.15625 22.9187ZM16.3875 24.5813C16.4469 24.5813 16.4469 24.5219 16.3875 24.4625L16.4469 24.4031C16.2094 24.2844 16.6844 24.2844 16.4469 24.4031H16.5063C17.3375 23.9875 18.525 23.6906 20.0688 23.5125C21.6719 23.275 22.8 23.0375 23.4531 22.8C23.5125 22.8 24.1656 22.7406 24.225 22.7406C24.7594 22.7406 26.2437 23.0375 26.8969 23.0375V22.9781H27.0156C27.075 22.9781 27.2531 23.0375 27.4906 23.0969H27.55L27.6094 23.1563H27.3719C27.55 23.3938 27.8469 23.5125 28.2625 23.5125V23.4531L27.7281 23.2156L27.7875 23.0969L27.6688 22.9781H27.6094C27.55 22.9187 27.3719 22.9188 27.1938 22.8594V22.6812C27.6094 22.6812 27.9063 23.2156 28.0844 23.2156V23.0969C28.5 23.0969 29.7469 24.0469 29.7469 24.4625C29.7469 25.8875 27.7875 27.6094 26.1844 28.3813L19.3563 31.825L15.6156 33.1906C15.2 33.4875 14.4281 33.7844 13.3594 34.0219C12.35 34.3187 11.5188 34.4375 10.925 34.4375H10.8656L10.8062 34.3781C10.8062 33.9031 11.5781 33.0125 11.5781 32.5375H11.6375L11.6969 32.6562C11.875 32.2406 11.9938 31.9438 11.9938 31.7656C11.9938 31.5875 11.875 31.5281 11.875 31.4688C11.875 31.35 11.9344 31.2906 12.0531 31.2906V31.6469L13.0031 28.975V28.9156C12.5875 28.9156 12.5875 30.3406 12.35 30.5781L12.2906 30.6375V30.5781C12.2906 30.3406 12.5281 29.8063 12.5281 29.5688V29.45C12.2906 29.5688 11.8156 31.5281 11.4594 31.5281C11.4594 31.825 10.925 32.6563 10.9844 33.0719L10.7469 32.8938C10.8062 33.1906 10.6875 33.7844 10.45 33.8438V33.4281L10.5688 33.25C10.45 32.775 10.6281 32.7156 10.8062 32.3594H10.8656C11.0438 32.3 11.5781 30.8156 11.5781 30.5188C11.5781 30.4594 11.2812 30.2812 11.2812 30.1031C11.2812 29.8062 11.3406 29.5687 11.4594 29.5094V29.925H11.5781C11.5781 30.1031 11.6375 30.2219 11.7563 30.2813C11.8156 30.1625 11.875 30.1031 11.9344 30.1031C11.875 30.1031 11.8156 30.1031 11.7563 30.0438C12.0531 29.925 12.1719 29.6875 12.1719 29.3906V29.0938C12.1125 29.0938 11.9344 29.8656 11.6969 29.8656C11.6969 29.6875 11.8156 29.45 11.8156 29.2719C11.6375 29.2719 11.6375 29.3906 11.5781 29.45L11.5188 29.3313C11.5188 27.9656 12.2906 27.075 13.8938 26.125C14.6656 25.65 15.1406 25.3531 15.3188 25.175L15.2594 25.1156C15.2594 24.9375 15.6156 24.7594 16.3281 24.4625C16.3281 24.5219 16.3281 24.5813 16.3875 24.5813ZM11.4594 27.4906C11.5188 27.4906 11.5781 27.3719 11.5781 27.3125L11.6375 27.2531C11.8156 27.2531 11.875 27.3125 11.875 27.4906C11.875 27.6688 11.2813 28.7969 11.2219 28.7969C11.1625 29.0938 10.8062 29.925 10.7469 30.1625C10.6281 30.0438 10.5688 29.8656 10.5688 29.6875V29.6281C10.5688 29.6875 10.6281 29.6875 10.7469 29.6875C10.8062 29.6875 11.0438 28.975 11.0438 28.9156C11.0438 28.7375 10.9844 28.6187 10.8062 28.6187L10.7469 28.6781C10.8062 28.7375 10.8062 28.8563 10.8062 29.0344V29.0938L10.6281 28.9156C10.5688 28.975 10.5094 29.0344 10.5094 29.0938H10.6281C10.3313 29.6875 10.2719 30.1625 10.5688 30.2219C10.5688 30.3406 10.5094 30.4 10.45 30.4V30.3406C10.3906 30.3406 10.3906 30.2813 10.3906 30.2219H10.3313C10.2719 30.2219 10.2719 30.3406 10.2719 30.5188H10.3906H10.0938V30.6969L10.1531 30.8156C10.1531 31.2313 9.79688 32.1219 9.79688 32.5375C9.5 32.6562 9.38125 33.1313 9.38125 33.9031L9.55937 33.725V33.8438C9.55937 34.0219 9.44063 34.3188 9.5 34.7344L9.44063 34.7938C9.14375 34.8531 8.84688 34.9125 8.66875 35.0906L8.60938 34.9719V35.5062L8.72813 35.5656V35.3281C8.72813 35.3875 8.96563 35.625 8.96563 35.6844C9.025 35.9219 8.96563 36.1594 8.72813 36.3969C8.66875 36.2187 8.60938 36.1594 8.55 36.1594C8.55 36.4563 8.60937 36.575 8.66875 36.575H8.72813L8.7875 36.5156C8.84688 36.575 8.84688 36.7531 8.84688 37.1094V37.3469L8.7875 37.4062C8.49063 36.9312 8.3125 36.2781 8.3125 35.4469V35.3875C8.3125 35.2688 8.3125 35.0312 8.37188 34.6156C8.37188 34.5562 8.37188 34.4375 8.43125 34.2594H8.49063C8.49063 34.3188 8.55 34.4375 8.60938 34.4969L8.66875 34.3187H8.72813C8.72813 34.3781 8.72813 34.4375 8.7875 34.4969L8.84688 34.4375L8.90625 33.8438V33.725C8.90625 33.6062 8.90625 33.5469 8.84688 33.5469C8.66875 33.8438 8.55 34.0219 8.43125 34.0219C8.43125 33.3687 8.66875 32.4188 9.14375 31.1719C9.67813 29.925 9.91562 28.975 9.91562 28.3813V28.3219C9.85625 28.2625 9.85625 28.2625 9.85625 28.2031L9.91562 28.0844V27.9656H9.975L10.0344 28.0844C10.0344 28.0844 10.0344 28.0844 10.0344 28.1438V27.6094H10.0938V27.8469H10.2125L10.1531 27.6688C10.0938 27.4313 10.1531 27.3125 10.3906 27.3125L10.5094 27.4906C10.5094 27.4313 10.5688 27.3719 10.6281 27.3719C10.6281 27.4313 10.5094 27.7281 10.5688 27.9063L10.45 27.8469H10.3906C10.3906 28.3219 9.85625 29.45 9.85625 29.925V29.9844L9.91562 30.0438L9.975 29.925C9.975 29.8656 9.975 29.7469 10.0344 29.5688L10.1531 29.2719C10.3313 29.2125 10.45 28.8563 10.5688 28.2625C10.7469 27.6094 10.925 27.3125 11.1031 27.3125C11.2813 27.3125 11.3406 27.3719 11.3406 27.4906C11.3406 27.55 11.1625 27.6687 11.1625 27.7281C11.1625 27.9656 11.2219 28.1438 11.3406 28.2031V27.9656L11.4 28.0844C11.4 28.1438 11.4 28.1438 11.4 28.1438L11.4594 28.0844V27.4906ZM27.3719 13.3C27.3125 13.2406 27.3125 13.2406 27.3125 13.1812L29.6281 10.8656H29.7469V10.925L29.6281 11.1031L29.6875 11.2219L29.5688 11.1625L29.0344 11.6969C28.6781 12.0531 28.5 12.2313 28.5594 12.2906C28.2625 12.4688 28.0844 12.5875 28.0844 12.6469V12.7062C28.1438 12.825 28.2625 12.8844 28.3219 12.8844C28.3219 12.6469 28.3813 12.5281 28.5 12.5281V12.6469C28.6781 12.6469 28.9156 12.35 29.0938 12.35V12.4094L28.6781 12.825C28.1438 13.3594 27.1344 14.25 25.65 15.5562C24.1656 16.8625 23.2156 17.5156 22.9188 17.5156C22.9188 17.3375 22.8594 17.2188 22.6812 17.2188C22.6812 17.3969 22.6219 17.4563 22.5625 17.4563C22.5625 17.3969 22.5625 17.2781 22.6219 17.2188H22.5625C22.3844 17.2188 22.325 17.3375 22.325 17.5156C22.325 17.8719 22.5625 17.575 22.8594 17.575C22.8594 17.7531 21.9688 18.3469 21.7906 18.3469C21.6125 18.3469 21.6125 18.05 21.6719 17.9906C21.4938 17.9313 21.1969 18.4656 21.1375 18.4656C21.0781 18.525 21.0187 18.525 20.9594 18.4656L20.9 18.4062C20.6031 18.4062 20.425 18.4063 20.3063 18.4656L20.3656 18.3469C22.9188 16.6844 25.2344 14.9625 27.1938 13.2406C27.1938 13.5375 27.2531 13.6562 27.4313 13.6562C27.6094 13.5969 28.2031 13.0625 28.2031 13.0031V12.9438C27.9656 12.9438 27.4906 13.3 27.4313 13.3H27.3719ZM16.2688 12.1719C16.2688 11.9938 16.5656 11.2812 16.625 11.2812C16.625 11.5188 16.9813 11.6375 16.9813 11.8156C16.9813 12.2313 16.7437 12.7656 16.3281 13.5375C15.9125 14.25 15.6156 14.7844 15.5562 15.0813L14.1313 18.2281C14.0719 18.2875 14.0125 18.3469 14.0719 18.4656H14.1313L15.6156 15.3188C15.8531 14.6063 16.8625 12.8844 17.1 12.1125C17.1594 12.1719 17.2188 12.2906 17.2188 12.4688C17.2188 12.5281 16.9219 13.2406 16.3281 14.6062C15.5562 14.6656 14.9031 17.575 14.3688 18.525V18.4062C14.3094 18.4062 14.3094 18.5844 14.3688 18.5844C14.1906 18.8813 14.0125 19.1187 13.8344 19.2969C13.7156 19.2969 13.6563 19.2375 13.6563 19.1187C13.6563 18.6438 14.3094 17.4563 14.3688 17.2188H14.4875C14.4875 16.9813 14.9031 16.4469 14.9031 16.15V16.0906L14.8438 16.0312C14.8438 15.9719 14.9625 15.7344 14.9625 15.675V15.6156L15.1406 15.675V15.4969C15.3781 15.4969 15.9719 13.8937 15.9719 13.4781C15.9719 13.3594 15.9125 13.3 15.8531 13.3594C15.9125 13.3 15.9719 13.2406 16.0906 13.2406V13.0625C16.0313 13.0625 15.9719 13.0031 15.9719 12.8844C15.9719 12.7063 16.0313 12.6469 16.0906 12.6469V12.7062C16.0906 12.7656 16.0906 12.7656 16.0313 12.825L16.15 12.9438H16.2094C16.2688 12.9438 16.2688 12.8844 16.3281 12.8844C16.3281 12.825 16.3875 12.7656 16.4469 12.7656C16.3875 12.4688 16.4469 12.35 16.5656 12.35C16.5656 12.1719 16.6844 11.875 16.6844 11.6969L16.625 11.6375L16.5656 11.6969L16.5063 11.9344C16.4469 12.1125 16.4469 12.1719 16.3875 12.1719H16.2688ZM20.3063 18.4656C19.1781 18.7625 18.525 18.9406 18.3469 18.9406C18.3469 18.8813 19.2375 18.2875 21.0188 17.1594C22.8 16.0313 23.6906 15.2594 23.75 14.8438C23.8094 14.9031 23.8094 14.9031 23.8688 14.9031C24.0469 14.9031 24.4625 14.4875 24.5219 14.4875H24.6406L24.0469 15.0813H24.1656C24.4031 14.9625 24.5219 14.9031 24.5219 14.8438V14.7844H24.7594L24.225 15.3781L24.1063 15.3188C24.0469 15.3188 24.0469 15.3188 23.9875 15.3781L23.9281 15.4375H23.8688L23.8094 15.3781H23.6313C23.3938 15.3781 23.275 15.4375 23.275 15.6156V15.675C23.3344 15.675 23.5719 15.4969 23.6313 15.4969C23.6906 15.4969 23.75 15.5562 23.75 15.6156C23.75 16.2094 20.4844 17.9313 19.95 18.4656H20.3063ZM27.6688 33.1312C27.7875 32.8344 27.9656 32.7156 28.2625 32.7156H28.3219C28.1438 32.8938 28.0844 33.0125 28.0844 33.1312C28.0844 33.5469 28.5594 32.8938 28.7969 32.8938H28.8563L29.0344 32.9531C29.0344 33.1313 28.5594 33.4875 27.55 33.9031C26.6 34.3781 26.0063 34.6156 25.7094 34.6156L25.5906 34.4969C25.5906 33.9625 27.0156 33.3687 27.1938 33.1312H27.6688ZM12.2906 7.3625C12.7656 7.125 13.9531 5.99687 14.4875 5.99687L14.4281 6.175C14.3688 6.23438 13.4188 6.94687 11.5781 8.19375C9.7375 9.44063 8.84688 10.0344 8.7875 10.0344C8.7875 10.2125 8.49063 10.5094 7.8375 11.0437C7.24375 11.5781 6.8875 11.8156 6.70938 11.8156V11.6969C7.42188 11.2219 8.96563 9.79688 9.5 9.38125C9.7375 9.32188 10.2719 9.025 11.0438 8.43125C11.875 7.77812 12.2906 7.42188 12.2906 7.3625ZM21.0781 31.9438C21.2563 31.7656 21.7313 31.5281 22.5625 31.1125C23.3938 30.6969 23.9281 30.4594 24.1063 30.4594C24.1063 30.6969 23.8094 30.9344 23.275 31.1125C22.7406 31.2906 22.4438 31.4688 22.3844 31.5281H22.6812C22.6812 31.6469 22.6219 31.7063 22.4438 31.7063L22.325 31.6469C22.2656 31.5875 22.2656 31.5875 22.2063 31.6469C22.2063 31.7063 22.2063 31.7656 22.2656 31.7656C21.85 31.9438 21.6125 32.0031 21.5531 32.0625C21.375 32.1219 21.3156 32.0625 21.3156 32.0031C21.3156 32.1813 21.0781 32.0625 21.0781 32.2406L20.9 32.0625L21.0781 31.9438ZM18.4062 12.5875C18.4062 12.4094 18.525 12.2313 18.8219 11.9344V12.4094C18.7031 12.4094 18.8219 12.5875 18.8219 12.7062L18.5844 13.1219C18.1688 14.25 17.9313 15.0813 17.8719 15.4969C17.8719 15.1406 17.7531 14.9625 17.575 14.9625V15.0219C17.5156 15.0219 17.5156 15.0219 17.4563 15.0813L17.3969 15.1406L17.2188 15.0219V14.9625C17.2188 14.9031 17.3375 14.9031 17.5156 14.9031V14.7844L17.575 14.725L17.8125 14.9031V14.7844C17.8125 14.6656 17.8125 14.6062 17.7531 14.5469C17.9906 14.725 18.1688 14.0125 18.1688 13.7156L18.1094 13.5969L18.2281 13.6562H18.2875C18.4063 13.4781 18.4656 13.2406 18.4656 12.9438L18.4062 12.7656V12.5875ZM24.1063 33.25V33.3094C24.0469 33.3688 23.9875 33.4281 23.9281 33.4281C23.9875 33.4875 24.0469 33.4875 24.1656 33.4875C24.7594 33.4875 25.0563 33.3687 25.0563 33.1312C25.0563 33.0719 24.9969 33.0125 24.8781 33.0125C24.8781 32.9531 24.8781 32.9531 24.9375 32.8938H24.9969L25.1156 32.9531L25.2344 33.0719L25.3531 33.1312L25.4719 33.0125L25.5906 33.1312H25.65C25.7094 33.1312 25.7094 33.1313 25.7688 33.0719H25.8281V33.1312C25.7688 33.25 25.5313 33.3688 24.9969 33.4875C24.7594 33.5469 24.5812 33.5469 24.5219 33.6063C24.3438 33.6656 24.2844 33.725 24.3438 33.7844L24.225 33.725H23.5719C23.5719 33.6656 23.6313 33.6656 23.6906 33.6063L23.8688 33.4875L23.8094 33.4281V33.3094L23.8688 33.25H23.8094C23.75 33.25 23.75 33.25 23.6906 33.3094H23.5719V33.25C23.5719 33.1906 23.8688 33.0125 24.1656 32.8344L24.4031 32.7156C24.4625 32.7156 24.5219 32.775 24.5219 32.8344L24.0469 33.1906L24.1063 33.25ZM33.9031 25.2938H33.9625C34.0219 25.2938 34.0219 25.2937 34.0219 25.3531C34.0219 25.5312 33.5469 26.2437 33.3688 26.2437L33.3094 26.1844L33.25 26.125L33.1906 26.1844V26.3031L33.25 26.3625C33.25 26.4219 33.1906 26.4219 33.0719 26.4219C33.0719 26.125 32.9531 25.9469 32.7156 25.9469V25.8281H32.8938C32.8938 25.7688 32.775 25.5906 32.775 25.5313V25.4125C32.8344 25.4125 32.8344 25.4125 32.8938 25.4719H32.9531H33.0125L33.1906 25.3531C33.25 25.3531 33.3094 25.4719 33.3094 25.5313C33.3094 25.65 33.3688 25.7094 33.5469 25.7094V25.3531C33.725 25.3531 33.7844 25.5313 33.8438 25.5313L33.9031 25.4719V25.4125L33.8438 25.3531L33.9031 25.2938ZM15.3188 17.575C15.3188 17.0406 15.675 16.2687 16.3875 15.2594V15.3188C16.3875 15.7344 15.8531 16.625 15.9125 17.0406L15.7938 17.1V17.1594L15.8531 17.2188V17.2781V17.3969C15.8531 17.3375 15.7938 17.3375 15.7344 17.2781C15.5562 17.2781 15.4969 17.575 15.3188 17.575ZM25.5312 15.2594L25.65 15.1406L26.0656 14.8438V14.6062C26.3625 14.6062 26.5406 14.5469 26.5406 14.4281V14.3094L26.4813 14.25C26.4813 14.1906 26.5406 14.1313 26.6 14.0719C26.6 14.25 26.6594 14.3688 26.7188 14.3688C26.8375 14.3688 26.8969 14.1906 26.8969 13.8937H26.5406C26.3625 14.1906 25.4719 14.725 25.4719 15.2594H25.5312ZM23.9875 16.15C24.0469 16.15 24.2844 16.0312 24.3438 16.0312L24.4031 16.0906C24.4031 16.15 24.4031 16.15 24.4625 16.15V15.9125C24.4625 15.9719 24.5219 15.9719 24.5813 15.9719C24.8188 15.9719 25.3531 15.4969 25.2938 15.2594L25.3531 15.3188H25.4125C25.3531 15.2594 25.2938 15.1406 25.2938 15.0813C25.0563 15.3187 23.9875 15.7938 23.9875 16.15ZM9.85625 10.6281C9.85625 10.5688 10.0938 10.3312 10.6281 9.91562C11.1625 9.5 11.5188 9.2625 11.6969 9.2625H11.875C11.5781 9.61875 10.925 10.0937 9.85625 10.6281ZM17.3375 15.9719H17.3969C17.5156 15.9719 17.575 16.0313 17.6344 16.2094C17.6344 16.625 17.2188 17.0406 16.3875 17.5156C16.3281 17.5156 16.3281 17.5156 16.3281 17.4563L16.2688 17.3969H16.3281L16.3875 17.3375L16.4469 17.2781L16.6844 17.0406L16.7438 17.1C16.9219 16.9219 17.1 16.8031 17.1594 16.8031C17.1 16.5656 17.2781 16.15 17.2781 16.0906L17.3969 16.2094V16.15L17.4563 16.0906L17.3375 15.9719ZM32.1219 9.61875C32.1219 9.38125 32.8938 8.3125 33.1313 8.075V8.13437C33.1313 8.43125 32.4781 9.5 32.1813 9.7375L32.1219 9.67813V9.61875ZM28.8563 31.9438L30.1031 31.1125C30.7563 30.5781 31.1719 30.3406 31.2313 30.3406V30.4594C31.0531 30.6375 30.6375 30.9344 29.8656 31.4094C29.6281 31.4094 29.1531 32.0031 28.8563 32.0031H28.7969L28.8563 31.9438ZM28.6188 30.875C28.6188 30.9344 28.6188 30.9344 28.6781 30.9344L28.7375 30.9937C29.0344 30.9937 30.0438 30.2219 30.0438 30.0438H29.9844C29.6281 30.0438 29.1531 30.3406 28.6188 30.875ZM18.7625 11.6969C18.7625 11.2219 19.0594 10.7469 19.5938 10.2719C19.5938 10.5094 19.1781 11.1031 19.1781 11.3406H19.1187C19.0594 11.3406 19.0594 11.4594 19.0594 11.6969H18.7625ZM25.2938 30.1031C25.4125 30.1031 25.65 29.5688 25.8281 29.925C25.5906 29.8656 24.4625 30.9344 24.225 30.9344H24.1063C24.1656 30.8156 24.4031 30.5781 24.7 30.2813C24.7594 30.3406 24.8188 30.2813 24.8781 30.2219L25.0563 30.1031C25.175 30.0437 25.2344 29.9844 25.2938 29.9844V30.1031ZM9.2625 33.0719C9.67813 31.7063 9.85625 30.8156 9.85625 30.4C9.85625 30.2219 9.85625 30.1625 9.79688 30.1625C9.85625 30.8156 9.2625 32.3 9.2625 32.8344V33.0719ZM15.1406 17.8719C15.1406 17.7531 15.2 17.6938 15.2594 17.6344L15.3188 17.8125L15.4375 18.05C15.4969 17.9906 15.5562 17.6344 15.7344 17.6344C15.7344 18.1094 15.675 18.1094 15.2594 18.1094V18.3469H15.2L15.1406 18.4062L14.7844 18.6438V18.5844L15.1406 17.8719ZM29.925 8.96563C29.925 8.49063 30.1031 8.19375 30.4 8.075C30.4594 8.075 30.4594 8.13437 30.4594 8.25312L30.3406 8.37188C30.2219 8.49063 30.1625 8.60937 30.1625 8.66875V8.72812L30.4594 8.55L30.5188 8.60938C30.5188 8.84688 30.3406 8.96563 29.925 8.96563ZM26.125 32.7156C26.3625 32.7156 26.4813 32.4781 26.6594 32.4781C26.8375 32.4781 27.0156 32.4781 27.1344 32.5375C27.075 32.5969 26.9563 32.6562 26.7188 32.6562V32.8344C26.6594 32.8344 26.6 32.775 26.6 32.7156C26.6 32.8938 26.4219 33.0125 26.125 33.0125H26.0656L25.9469 32.9531L26.0656 32.8344L26.125 32.7156ZM22.7406 22.1469C22.8 22.0875 23.1563 22.0281 23.8094 22.0281H24.0469L24.225 22.2656C24.1656 22.2063 24.0469 22.2656 24.0469 22.325L23.8688 22.2063L23.8094 22.325C23.75 22.2656 23.6906 22.2656 23.5125 22.2656C23.4531 22.2656 22.7406 22.2063 22.6812 22.2063L22.7406 22.1469ZM25.7094 30.9937C25.7094 31.1719 25.7688 31.2313 25.8875 31.2313L26.0063 31.1719H26.1844H26.2437C26.3031 31.2313 26.3031 31.2313 26.3625 31.2313H26.4813C26.3625 30.875 26.1844 30.6969 26.0063 30.6969L25.8875 30.875C25.8281 30.9344 25.7688 30.9344 25.7094 30.9344V30.9937ZM32.0625 25.1156C32.0625 24.9969 32.4781 24.4625 32.4781 24.9969C32.4781 25.4125 32.3 25.65 32.0031 25.65V25.4719L32.1219 25.2344L32.0625 25.1156ZM28.3219 30.0438C28.3813 29.8656 28.6188 29.925 28.6781 29.6281C28.7375 29.6875 28.7969 29.7469 28.8563 29.7469V29.8062C28.9156 29.8062 28.975 29.6875 29.0938 29.5094C29.0344 29.5094 28.975 29.45 28.8563 29.3906H28.7969C28.7375 29.45 28.6781 29.45 28.6188 29.45L28.5 29.3313C28.3813 29.5688 28.3219 29.7469 28.3219 29.925V30.0438ZM24.3438 35.4469C24.3438 35.2688 25.3531 34.5563 25.5312 34.5563V34.7938L25.2344 34.9719L24.9969 35.0312C24.9375 35.0312 24.8188 35.15 24.5219 35.4469H24.3438ZM5.7 12.7656C5.7 12.7062 6.35313 12.0531 6.59063 11.875H6.65C6.59063 12.1719 5.75938 12.825 5.7 12.8844V12.7656ZM31.5875 27.3125C31.7656 27.3125 31.825 27.3719 31.825 27.4906C31.825 27.6688 31.7656 27.7875 31.5875 27.7875C31.4094 27.7875 31.1719 27.55 31.1719 27.7281C31.1719 27.8469 31.1719 27.9063 31.2313 27.9063H31.1719C31.0531 27.9063 30.9938 27.7875 30.9938 27.4906C31.1719 27.4906 31.4688 27.6094 31.5281 27.6094H31.5875V27.3125ZM26.8375 30.5188L26.8969 30.6375L27.0156 30.5781C27.0156 30.5781 27.0156 30.5781 27.075 30.5781H27.1344L27.1938 30.6969H27.2531C27.2531 30.5187 27.4313 30.2813 27.4313 30.2219C27.4313 30.1625 27.4313 30.1031 27.3719 30.1031L27.2531 30.2813C27.1938 30.2813 27.1344 30.2219 27.1344 30.1031C26.9563 30.1625 26.8375 30.2813 26.8375 30.4594V30.5188ZM11.4594 36.6344C11.5188 36.575 11.6375 36.5156 11.8156 36.5156C12.2313 36.5156 12.5875 36.575 12.825 36.6344L12.7656 36.6937H12.35C11.8156 36.6937 11.5188 36.6938 11.4594 36.6344ZM23.5719 18.1688C23.5719 18.1094 24.3438 17.3969 24.5219 17.3969V17.575L23.5719 18.2281V18.1688ZM25.2938 16.9219C25.4719 16.6844 26.4813 15.8531 26.5406 15.8531H26.6C26.6 15.9125 26.5406 16.0313 26.4219 16.0906L25.4125 16.9219H25.2938ZM1.95938 21.1969H2.07813C2.07813 21.4344 2.67188 21.7312 2.67188 22.0281V22.1469C2.55313 22.0875 2.49375 21.9687 2.49375 21.7906C2.31563 21.7906 1.9 21.5531 1.9 21.375L1.95938 21.1969ZM15.3781 5.52188C15.5562 5.28437 16.2688 4.9875 16.4469 4.92813V4.9875C16.4469 5.16562 15.7344 5.52188 15.4969 5.52188H15.3781ZM27.55 17.1C26.8969 17.5156 26.4813 17.8719 26.3625 18.1688C26.7188 17.9906 27.1344 17.6344 27.55 17.1ZM23.0969 16.8031L23.275 16.9813C23.5125 16.9813 23.5125 16.625 23.5719 16.625H23.6313C23.6313 16.6844 23.6313 16.6844 23.6906 16.7437V16.8031C23.75 16.7438 24.0469 16.5656 24.0469 16.3875C23.6313 16.3875 23.3938 16.5063 23.3938 16.8031H23.0969ZM4.21563 14.4281C4.5125 13.8938 4.69063 13.6563 4.86875 13.5969V13.6562C4.57188 14.1906 4.39375 14.4281 4.275 14.4281H4.21563ZM12.6469 27.075C12.7063 27.075 12.7063 27.075 12.7656 27.1344V27.4312C13.1219 27.4312 13.3 27.1938 13.3 26.7781L13.2406 26.7188C12.8844 26.8969 13.3 27.075 12.6469 27.075ZM27.9063 14.1906C27.9063 13.7156 28.0844 13.4781 28.3813 13.4781V13.5969L28.0844 13.8937V13.9531C28.1438 13.9531 28.3219 13.775 28.3813 13.775C28.3813 13.9531 28.2031 14.0719 27.9063 14.1906ZM29.9844 27.3125L30.4594 26.7781C30.5187 26.7188 30.5781 26.7188 30.6375 26.7188H30.6969C30.4594 27.1938 30.2219 27.4312 29.9844 27.4312V27.3125ZM26.1844 29.6281C26.3625 29.6281 26.125 29.8656 26.125 29.6875C26.0656 29.7469 25.9469 29.8062 25.8875 29.8062C25.8875 29.45 26.125 29.2719 26.6 29.2719C26.6 29.45 26.4813 29.5688 26.2437 29.5688V29.6281H26.1844ZM20.0094 32.4781C20.2469 32.2406 20.4844 32.1219 20.7813 32.1219H20.8406C20.8406 32.3594 20.6031 32.4781 20.0688 32.4781H20.0094ZM26.8375 29.6875C27.3125 29.3906 27.6688 29.1531 27.8469 29.0938V29.1531C27.8469 29.3313 27.1344 29.6875 26.9563 29.6875H26.8375ZM27.7281 14.8438H27.7875C27.7281 15.1406 27.3125 15.4969 27.075 15.4969C27.0156 15.4969 27.0156 15.4969 27.0156 15.4375L27.7281 14.8438ZM28.4406 10.9844C28.6781 10.45 28.9156 10.2125 29.0938 10.2125L29.1531 10.2719C28.9156 10.7469 28.6781 10.9844 28.5 10.9844H28.4406ZM27.4313 28.9156C27.6094 28.5594 27.8469 28.3813 28.0844 28.3813H28.2625C28.0844 28.5594 27.8469 28.7375 27.4313 28.975V28.9156ZM27.0156 14.6656C27.1938 14.4875 27.6094 14.25 27.6688 14.0719C27.6688 14.1313 27.7281 14.25 27.7875 14.3094C27.6688 14.5469 27.55 14.6656 27.4313 14.6656H27.3719L27.6688 14.3094H27.6094C27.4313 14.3094 27.2531 14.6656 27.075 14.6656H27.0156ZM25.65 13.5969C25.7094 13.4188 26.3625 12.825 26.4219 12.8844L26.4813 12.9438C26.0656 13.3594 25.7688 13.5969 25.7094 13.5969H25.65ZM14.5469 5.9375C14.725 5.64063 15.0219 5.52188 15.3188 5.52188C15.3188 5.58125 14.8438 5.99687 14.6656 5.99687C14.6063 6.05625 14.5469 6.05625 14.5469 5.9375ZM29.8062 11.5188V11.5781C29.8062 11.6375 29.6281 11.875 29.2125 12.2906L29.1531 12.2313L29.8062 11.5188ZM1.30625 18.7031C1.30625 18.4063 1.425 18.1687 1.60313 17.9906C1.72188 17.9906 1.78125 18.05 1.78125 18.1094V18.1688L1.6625 18.1094C1.60313 18.1687 1.48438 18.7031 1.30625 18.7031ZM26.7781 12.6469C26.8375 12.35 27.0156 12.1719 27.3125 12.1125V12.1719C27.1344 12.4688 27.0156 12.6469 26.8375 12.6469H26.7781ZM13.4188 35.8031C13.5375 35.625 13.775 35.5062 14.0719 35.5062C14.0719 35.6844 13.8938 35.8031 13.4781 35.8031H13.4188ZM32.1219 4.45312C32.1219 4.39375 32.1219 4.39375 32.1813 4.39375C32.3594 4.5125 32.4188 4.69062 32.4188 4.92813C32.3594 4.92813 32.3 4.80937 32.1219 4.80937V4.45312ZM12.5281 8.66875C12.7063 8.66875 12.9438 8.37188 13.1219 8.37188C13.0625 8.66875 12.8844 8.7875 12.5875 8.7875C12.5281 8.7875 12.4688 8.72813 12.4688 8.60938L12.5281 8.55V8.66875ZM30.1031 12.1125C30.1031 11.7562 30.1625 11.5781 30.3406 11.5781V11.7562L30.4 11.8156V11.875C30.4 12.0531 30.2812 12.1125 30.1031 12.1125ZM2.79063 16.0906C2.79063 15.9719 3.0875 15.675 3.26562 15.4969H3.325V15.6156L2.90938 16.0906C2.90938 16.15 2.85 16.15 2.79063 16.2094V16.0906ZM20.0094 35.2688C20.1281 35.15 20.3656 35.0906 20.7219 35.0906V35.2094C20.5438 35.2094 20.2469 35.3281 20.1875 35.3281H20.1281L20.0094 35.2688ZM32.6562 8.075C32.6562 8.01562 32.775 7.77812 33.0125 7.30313V7.42188C33.0125 7.8375 32.8938 8.075 32.6562 8.075ZM8.55 25.175C8.55 24.8781 8.60938 24.7594 8.72813 24.7594H8.84688C8.84688 25.0562 8.72813 25.175 8.55 25.175ZM29.6281 9.5H29.7469C29.7469 9.67812 29.45 9.975 29.2719 9.975V9.85625L29.6281 9.5ZM31.35 30.9937C31.35 30.9344 31.6469 30.6375 31.825 30.6375H31.8844C31.825 30.8156 31.6469 30.9344 31.35 31.0531V30.9937ZM29.6281 12.6469C29.6281 12.35 29.6875 12.2313 29.8656 12.2313C29.925 12.2313 29.925 12.2313 29.9844 12.2906C29.9844 12.5281 29.8656 12.6469 29.6281 12.6469ZM27.1344 13.7156C27.0156 13.775 26.9563 13.8938 26.9563 14.0125C27.1937 14.0125 27.3125 13.9531 27.3125 13.775C27.3125 13.6562 27.1938 13.5969 27.0156 13.5969C27.0156 13.6563 27.075 13.7156 27.1344 13.7156ZM33.4281 7.30313L33.4875 7.3625C33.4875 7.42188 33.4281 7.6 33.3688 7.77812L33.25 8.01562H33.1906L33.1313 7.95625L33.4281 7.30313ZM25.8281 15.6156C25.8281 15.3781 25.9469 15.2594 26.2437 15.2594C26.2437 15.4969 26.125 15.6156 25.8281 15.6156ZM29.8656 28.7969C30.1625 28.7969 30.1625 28.3219 29.9844 28.3219C29.925 28.5594 29.8656 28.7375 29.8656 28.7969ZM31.7063 10.2719C31.7063 10.0937 32.0625 9.79688 32.1219 9.79688C32.1219 9.85625 32.0625 9.975 31.9438 10.1531L31.7656 10.3906L31.7063 10.2719ZM27.9063 14.725C27.9063 14.5469 28.3219 14.25 28.5 14.25L28.025 14.725H27.9063ZM26.2437 34.0219C26.5406 34.0219 26.6594 33.9031 26.7188 33.725C26.4813 33.725 26.3031 33.8437 26.1844 34.0219H26.2437ZM30.5781 10.8656C30.5781 10.7469 30.6969 10.5687 30.9938 10.3312C30.9938 10.5094 30.875 10.7469 30.5781 10.925V10.8656ZM5.34375 22.8594C5.40313 22.6813 5.58125 22.6219 5.81875 22.6219C5.81875 22.8 5.7 22.9187 5.4625 22.9187H5.40313L5.34375 22.8594ZM21.85 18.05C22.0281 18.05 22.1469 17.9313 22.1469 17.6344C22.0875 17.6344 22.0281 17.7531 21.85 17.9313L21.7906 17.9906L21.85 18.05ZM12.35 28.2625C12.35 28.3813 12.4094 28.4406 12.5875 28.4406C12.7656 28.4406 12.7656 28.0844 12.5281 28.0844V28.2625H12.35ZM33.25 24.5813C33.3094 24.5813 33.3688 24.6406 33.4281 24.7H33.4875C33.4875 24.6406 33.6656 24.5219 33.6656 24.3438C33.5469 24.3438 33.4281 24.4031 33.25 24.5813ZM20.9 35.0906C21.1969 35.0313 21.4344 34.9719 21.5531 34.9719V35.0312C21.5531 35.0906 21.375 35.15 21.0781 35.15L20.9 35.0906ZM31.7656 6.35312H31.8844C31.8844 6.65 31.6469 6.70938 31.5875 6.76875L31.5281 6.70938L31.7656 6.35312ZM2.85 20.1875C3.14688 20.1875 3.26562 20.3062 3.26562 20.6031H3.14688L2.85 20.2469V20.1875ZM26.7781 15.1406C26.7781 14.9625 26.8969 14.8438 27.1938 14.7844V14.8438C27.1938 14.9625 27.075 15.0813 26.7781 15.2V15.1406ZM3.68125 15.0219C3.68125 14.7844 3.8 14.6062 4.09688 14.5469C4.09688 14.6062 3.74063 15.0219 3.68125 15.0219ZM33.4281 29.45C33.6063 29.3906 33.725 29.3313 33.725 29.1531V29.0344C33.5469 29.2125 33.4281 29.3313 33.4281 29.3906V29.45ZM10.3313 34.2594C10.3313 34.2 10.2719 34.1406 10.2125 34.0813H10.45C10.45 34.3781 10.3906 34.5563 10.2125 34.5563L10.1531 34.4969C10.2719 34.4375 10.3313 34.3188 10.3313 34.2594ZM30.1031 10.45C30.1031 10.2719 30.1625 10.2125 30.2812 10.2125C30.4594 10.2125 30.4594 10.2719 30.4 10.45H30.1031ZM29.0938 13.5969H29.1531C29.0344 13.8344 28.8563 14.0125 28.6188 14.1313V14.0719L29.0938 13.5969ZM32.5969 4.275L32.4781 4.15625H32.5375C32.7156 4.15625 32.775 4.21562 32.775 4.39375L32.7156 4.5125L32.6562 4.69063L32.5969 4.5125L32.6562 4.39375V4.33437L32.5969 4.275ZM21.1969 22.2063C21.1969 22.1469 21.1969 22.1469 21.2563 22.1469L21.375 22.2063L21.4938 22.1469C21.6125 22.1469 21.6719 22.1469 21.7313 22.2063V22.2656H21.5531L21.3156 22.325C21.2563 22.325 21.2563 22.2656 21.1969 22.2063ZM12.825 27.7281C12.5875 27.9062 12.5875 28.025 12.825 28.2031V27.7281ZM15.1406 7.42188L15.4969 7.18437L15.5562 7.125H15.4969C15.3188 7.125 15.1406 7.24375 15.0219 7.42188H15.1406ZM28.2031 28.9156C28.3813 28.6187 28.5 28.5 28.6781 28.5C28.6188 28.7969 28.4406 28.9156 28.2031 28.9156ZM10.8656 7.71875L10.9844 7.65938L11.2812 7.42188H11.3406C11.3406 7.54063 11.1625 7.65938 10.8656 7.77812V7.71875ZM18.8219 3.8C18.8219 3.74063 18.8813 3.74062 19 3.74062C19.1188 3.62187 19.2375 3.5625 19.2969 3.5625L19.4156 3.62187C19.3563 3.68125 19.1187 3.74062 18.8219 3.85938V3.8ZM32.4188 4.0375C32.2406 4.09688 32.1219 3.97813 32.1219 3.68125V3.62187L32.3594 3.91875L32.4188 3.97813V4.0375ZM14.25 7.89688C14.4281 7.89688 14.6063 7.8375 14.6656 7.65938H14.6063C14.3688 7.65938 14.25 7.71875 14.25 7.89688ZM30.4 10.1531C30.4 9.91563 30.4594 9.79688 30.6375 9.79688C30.6375 10.0344 30.5781 10.1531 30.4 10.1531ZM10.2719 36.575L10.5688 36.3969C10.5688 36.3375 10.5688 36.3375 10.6281 36.3375V36.4563L10.5094 36.575V36.6344H10.2719V36.575ZM8.075 11.1625C8.075 10.925 8.19375 10.8063 8.37188 10.8063V10.8656L8.075 11.2219V11.1625ZM26.7188 12.1719C26.7188 12.1125 26.7781 12.0531 26.8969 11.9344C26.9563 11.9937 27.0156 12.0531 27.0156 12.1125L26.8969 12.2313C26.8375 12.1719 26.7781 12.1719 26.7188 12.1719ZM30.9938 7.95625C30.9344 7.89688 30.875 7.65938 31.1719 7.65938C31.1719 7.8375 31.1125 7.89688 30.9938 7.95625ZM17.1594 15.4969C17.1594 15.4375 17.1594 15.3781 17.2188 15.2594H17.3375C17.3375 15.4969 17.2781 15.6156 17.1594 15.6156V15.4969ZM31.4688 28.3813L31.5875 28.3219H31.7063L31.7656 28.3813C31.7063 28.4406 31.5875 28.5 31.4094 28.5C31.35 28.5 31.2906 28.5 31.2906 28.4406L31.4688 28.3813ZM28.2625 32.3594C28.2625 32.1812 28.3813 32.1219 28.5594 32.1219H28.6188L28.2625 32.4188V32.3594ZM1.12813 20.2469L1.1875 20.1875H1.24688L1.36563 20.6625C1.1875 20.4844 1.12813 20.3656 1.12813 20.3063V20.2469ZM18.4062 33.6063L18.525 33.725C18.5844 33.725 18.5844 33.6656 18.5844 33.6063L18.7625 33.4875H18.7031C18.525 33.4875 18.4062 33.4875 18.4062 33.5469V33.6063ZM30.6375 28.975C30.6375 28.8563 30.6969 28.7969 30.8156 28.7969V28.8563C30.8156 29.0344 30.7563 29.1531 30.6969 29.1531L30.6375 28.975ZM17.0406 33.6063C17.1 33.5469 17.2188 33.4875 17.3969 33.4875H17.5156C17.3969 33.6063 17.2781 33.6656 17.1594 33.6656H17.1L17.0406 33.6063ZM11.0438 35.7438C11.0438 35.625 11.1625 35.5656 11.4 35.5656C11.4 35.6844 11.2813 35.7438 11.0438 35.7438ZM30.1625 11.3406C30.1625 11.1031 30.2812 10.9844 30.4594 10.9844C30.4594 11.2219 30.3406 11.3406 30.1625 11.3406ZM10.8656 31.0531C10.8656 30.9344 10.925 30.875 11.0438 30.875V31.2313C10.925 31.1719 10.8656 31.1125 10.8656 31.0531ZM25.7094 32.1813V32.2406C25.8281 32.1812 25.8875 32.0625 25.8875 31.9438C25.8281 31.9438 25.7094 32.0031 25.65 32.0625V32.1219L25.7094 32.1813ZM11.6969 32.4188C11.9344 32.5375 11.4594 32.5375 11.6969 32.4188C11.6375 32.4781 11.5781 32.4781 11.5781 32.4188L11.5188 32.3594H11.5781C11.5781 32.3 11.6375 32.2406 11.7563 32.1219V32.2406C11.7563 32.3594 11.7563 32.4188 11.6969 32.4188ZM5.81875 21.0188C5.75938 20.9 5.7 20.8406 5.52188 20.8406H5.4625C5.52188 20.9594 5.58125 21.0188 5.7 21.0188H5.81875ZM33.25 27.55L33.3094 27.6688C33.3688 27.6688 33.3688 27.6688 33.3688 27.6094C33.3688 27.6094 33.4281 27.3719 33.4281 27.3125C33.3094 27.3125 33.25 27.3719 33.25 27.4906V27.55ZM19.1781 8.13437C19.1781 8.01562 19 7.95625 18.7031 7.95625C18.9406 8.075 19.1187 8.13437 19.1781 8.13437ZM32.4781 3.325C32.4781 3.26563 32.3594 3.20625 32.3594 3.02812H32.2406C32.2406 3.20625 32.3 3.325 32.4781 3.38437V3.325ZM26.4219 30.6375C26.4219 30.7563 26.4813 30.8156 26.6 30.8156V30.5188L26.4219 30.6375ZM16.15 12.5875C16.15 12.4094 16.2094 12.2906 16.3281 12.2906C16.3281 12.4688 16.2688 12.5875 16.15 12.5875ZM28.975 31.4094C28.975 31.2313 29.0344 31.1719 29.2125 31.1719H29.3906L28.975 31.4094ZM3.50313 15.1406L3.62188 15.0219C3.62188 15.2 3.5625 15.3188 3.44375 15.3781L3.38438 15.3188L3.50313 15.1406ZM5.225 13.3C5.225 13.2406 5.28438 13.1219 5.4625 12.9438V13.0031C5.4625 13.0625 5.40312 13.1813 5.28438 13.3H5.225ZM29.5688 31.0531C29.5688 30.875 29.6875 30.7563 29.8656 30.7563H29.9844L29.925 30.8156H29.8656L29.6281 31.0531H29.5688ZM29.7469 29.8656C29.925 29.8656 29.9844 29.8063 29.9844 29.6281C29.8656 29.6281 29.7469 29.6875 29.6875 29.8656H29.7469ZM29.8062 9.14375C29.8062 9.08438 29.8063 9.08438 29.8656 9.025V8.96563C29.925 9.025 29.9844 9.08438 29.9844 9.14375C29.9844 9.20313 29.925 9.20312 29.8656 9.2625L29.8062 9.20312V9.14375ZM29.2125 29.45C29.2719 29.3906 29.3313 29.3313 29.3313 29.1531C29.2125 29.1531 29.1531 29.2125 29.1531 29.2719L29.2125 29.45ZM24.225 31.7063C24.225 31.825 24.2844 31.8844 24.4625 31.8844C24.4625 31.825 24.4031 31.7063 24.2844 31.6469L24.225 31.7063ZM24.0469 32.3594C23.8094 32.3594 23.8094 32.4188 24.0469 32.6562V32.3594ZM12.4094 27.8469C12.5875 27.7875 12.6469 27.6688 12.6469 27.55H12.5281L12.4094 27.7875V27.8469ZM19.6531 3.50313C19.7719 3.38437 19.8906 3.325 20.0688 3.325L20.1281 3.38437L19.95 3.44375C19.8313 3.50313 19.7719 3.50313 19.7125 3.50313H19.6531ZM24.9375 14.1313L25.2938 13.8937H25.3531L24.9969 14.1906H24.9375V14.1313ZM20.1281 4.92813C20.3063 4.92813 20.425 4.86875 20.4844 4.75H20.425L20.0688 4.92813H20.1281ZM27.8469 11.5781C28.025 11.4 28.0844 11.3406 28.0844 11.2812H28.2031L27.9063 11.6375H27.8469V11.5781ZM31.0531 10.9844H31.2906L31.1719 11.1625H31.0531V10.9844ZM9.08438 35.9219C9.08438 35.7437 9.14375 35.6844 9.2625 35.6844V35.8031L9.20312 35.9813C9.14375 35.9813 9.14375 35.9812 9.08438 35.9219ZM29.3906 29.7469L29.5688 29.5094H29.5094C29.3906 29.5094 29.3313 29.5688 29.3313 29.6875L29.3906 29.7469ZM23.8688 32.0031C23.8688 31.9438 23.8094 31.9438 23.6906 31.9438V32.2406L23.8688 32.0031ZM34.0219 23.3938C34.0219 23.2156 33.9625 23.1563 33.8438 23.1563V23.2156C33.8438 23.3344 33.9031 23.3938 34.0219 23.3938ZM12.2313 8.96563C12.2313 8.90625 12.2906 8.84687 12.4094 8.72812L12.4688 8.84687C12.4094 8.90625 12.2906 8.96563 12.2313 8.96563ZM30.875 26.3031C30.9938 26.1844 31.0531 26.125 31.0531 26.0656C31.1125 26.0656 31.1125 26.0656 31.1125 26.125C31.1125 26.1844 31.0531 26.3031 30.875 26.3625V26.3031ZM19.1187 13.8937C19.1781 13.8344 19.2375 13.7156 19.2375 13.6562L19.1781 13.5375C19.1187 13.5969 19.1187 13.6562 19.1187 13.775V13.8937ZM13.3594 19.475C13.3594 19.3563 13.4188 19.2969 13.4781 19.2969H13.5375L13.5969 19.3563C13.5375 19.4156 13.4188 19.475 13.3594 19.475ZM24.4031 22.2063C24.4625 22.1469 24.5813 22.0875 24.6406 22.0875C24.6406 22.2062 24.5812 22.2656 24.5219 22.2656H24.4625L24.4031 22.2063ZM17.8125 4.275C17.8125 4.21562 17.8719 4.15625 17.9906 4.15625H18.1094L17.9313 4.275L17.8125 4.33437V4.275ZM10.9844 28.2625C10.9844 28.4406 10.9844 28.5 11.0438 28.5C11.1031 28.4406 11.1031 28.3813 11.1031 28.2031L10.9844 28.2625ZM13.8344 8.075C13.8938 8.075 14.0125 8.01563 14.1906 7.95625H14.0719C13.9531 7.95625 13.8344 8.01562 13.775 8.075H13.8344ZM33.8438 29.45L33.9031 29.3906L33.9625 29.3313C34.1406 29.3313 33.9031 28.9156 33.9031 29.3313V29.2719C33.8437 29.2719 33.8437 29.3906 33.9031 29.3906L33.8438 29.3313C33.7844 29.3313 33.7844 29.3906 33.7844 29.45V29.3906C33.725 29.3906 33.725 29.5094 33.7844 29.5094L33.8438 29.45ZM30.6969 9.79688C30.6969 9.61875 30.7562 9.55937 30.875 9.55937C30.875 9.61875 30.8156 9.7375 30.7563 9.79688H30.6969ZM29.2719 30.1625C29.3313 30.1625 29.45 30.1031 29.5688 29.9844H29.5094C29.3313 29.9844 29.2719 30.0438 29.2719 30.1625ZM27.075 3.14687C26.9563 3.14687 26.8969 3.0875 26.8969 2.96875C26.9563 2.96875 27.075 3.02812 27.1344 3.02812C27.1344 3.0875 27.1344 3.0875 27.075 3.14687ZM32.4188 8.37188C32.4188 8.25313 32.4781 8.19375 32.5375 8.19375C32.5375 8.37187 32.4781 8.43125 32.4188 8.49063V8.37188ZM33.9625 28.3219C34.0219 28.3219 34.0219 28.3219 34.0219 28.2625L34.0812 28.2031H34.1406C34.2 28.2031 34.2 28.0844 34.1406 28.0844C34.1406 28.1438 34.1406 28.1438 34.0812 28.2031H34.0219L33.9031 28.2625L33.9625 28.3219ZM31.6469 28.7969C31.4688 28.7969 31.7063 29.0344 31.7063 28.8563H31.7656C31.8844 28.8563 31.825 28.6188 31.6469 28.7969ZM25.1156 30.7563C25.1156 30.6969 25.175 30.6375 25.3531 30.6375C25.3531 30.6969 25.2938 30.7563 25.1156 30.7563ZM30.5188 31.5875C30.5188 31.4687 30.5781 31.4094 30.6969 31.4094H30.7563C30.6969 31.5281 30.6375 31.5875 30.5188 31.5875ZM29.8062 13.0031C29.8062 12.825 29.8656 12.7656 29.9844 12.7656C29.9844 12.825 29.925 12.9438 29.8062 13.0031ZM24.7594 16.4469C24.8188 16.3281 24.9375 16.2687 24.9969 16.2687C24.9969 16.3875 24.9375 16.4469 24.7594 16.4469ZM34.4375 25.175C34.4969 25.175 34.5563 25.1156 34.5563 24.9969V24.8781C34.4969 24.9375 34.4375 25.0563 34.4375 25.175ZM27.1938 11.6969C27.1938 11.6375 27.2531 11.6375 27.4313 11.6375C27.4313 11.6969 27.3719 11.7562 27.2531 11.7562L27.1938 11.6969ZM14.725 7.6C14.9031 7.6 14.9625 7.54062 14.9625 7.48125H14.9031C14.725 7.48125 14.6656 7.54063 14.725 7.6ZM28.5594 13.7156C28.5594 13.5969 28.6188 13.5375 28.7375 13.5375C28.7375 13.6562 28.6781 13.7156 28.5594 13.7156ZM23.2156 33.5469C23.2156 33.4281 23.275 33.3688 23.3938 33.3688C23.3938 33.4875 23.3344 33.5469 23.2156 33.5469ZM28.2031 15.6156V15.675C28.2031 15.2594 28.4406 15.675 28.2625 15.675C28.2625 15.7344 28.2625 15.7344 28.2031 15.7344V15.6156ZM25.2344 16.9813C25.0563 17.1594 24.9969 17.2188 24.9375 17.2188H24.8781C24.9375 17.1594 25.0563 17.1 25.1156 16.9813H25.2344ZM25.0563 22.325C25.0563 22.2656 25.1156 22.2063 25.2938 22.2063C25.2938 22.2656 25.2344 22.325 25.0563 22.325ZM17.3969 4.45312C17.3969 4.39375 17.4563 4.33437 17.575 4.33437C17.575 4.45312 17.5156 4.5125 17.3969 4.5125V4.45312ZM29.8656 1.1875L30.2812 1.54375L29.8656 1.1875ZM26.3625 22.3844H26.4219H26.4813L26.6 22.5031H26.5406C26.4813 22.5031 26.3625 22.5031 26.3031 22.4438L26.3625 22.3844ZM24.6406 31.825C24.7594 31.825 24.8781 31.7656 24.9375 31.7063H24.8781C24.7 31.7063 24.6406 31.7656 24.6406 31.825ZM11.875 35.625H12.0531C12.0531 35.6844 11.9938 35.6844 11.9344 35.7438L11.875 35.8031V35.625ZM31.5281 10.6281C31.4688 10.6281 31.4688 10.5688 31.4688 10.45H31.6469C31.6469 10.5094 31.5875 10.5688 31.5281 10.6281ZM18.5844 33.0719C18.6438 33.0125 18.7625 32.9531 18.8219 32.9531H18.8813C18.8813 33.0125 18.8219 33.0719 18.7031 33.0719H18.5844ZM9.08438 34.2594C9.025 34.2594 9.025 34.6156 9.08438 34.675V34.2594ZM33.0125 24.2844C32.8938 24.2844 32.8344 24.225 32.8344 24.1656C32.8938 24.1656 33.0125 24.1656 33.0719 24.225L33.0125 24.2844ZM26.7781 29.3313C26.7781 29.2125 26.7781 29.1531 26.8375 29.0938C26.8969 29.1531 26.8969 29.2125 26.8969 29.2719C26.8969 29.3313 26.8375 29.3313 26.7781 29.3313ZM8.49063 26.3031C8.43125 26.3031 8.43125 26.125 8.49063 26.125C8.66875 26.125 8.66875 26.3031 8.49063 26.3031ZM32.9531 27.4906C33.0125 27.4906 33.0125 27.3125 32.9531 27.3125C32.775 27.3125 32.775 27.4906 32.9531 27.4906ZM32.1219 28.0844V27.9063C32.0625 27.9063 32.0031 27.9656 32.0031 28.0844H32.1219ZM28.7969 28.1438C28.6188 28.1438 28.6188 27.9656 28.7969 27.9656C28.8563 27.9656 28.8563 28.1438 28.7969 28.1438ZM29.3906 12.7062C29.2125 12.7062 29.2125 12.5281 29.3906 12.5281C29.45 12.5281 29.45 12.7062 29.3906 12.7062ZM24.5219 31.6469C24.7 31.6469 24.7 31.4688 24.5219 31.4688C24.4625 31.4688 24.4625 31.6469 24.5219 31.6469ZM30.5781 14.4281C30.6375 14.4281 30.6375 14.25 30.5781 14.25C30.4 14.25 30.4 14.4281 30.5781 14.4281ZM19.1781 32.8938C19.1187 32.8938 19.1187 32.7156 19.1781 32.7156C19.3562 32.7156 19.3562 32.8938 19.1781 32.8938ZM8.72813 33.1312C8.7875 33.1312 8.84688 33.0719 8.84688 32.9531C8.84688 32.8937 8.84688 32.8938 8.7875 32.8938C8.72813 32.9531 8.72813 33.0125 8.72813 33.0719V33.1312ZM20.4844 33.4281C20.5438 33.4281 20.5438 33.25 20.4844 33.25C20.3063 33.25 20.3063 33.4281 20.4844 33.4281ZM25.7094 15.0219C25.65 15.0219 25.65 14.8438 25.7094 14.8438C25.8875 14.8438 25.8875 15.0219 25.7094 15.0219ZM22.7406 15.675C22.6812 15.675 22.6812 15.4969 22.7406 15.4969C22.9187 15.4969 22.9187 15.675 22.7406 15.675ZM10.6281 35.8031C10.6875 35.7437 10.8063 35.6844 10.8656 35.6844V35.8031H10.6281ZM18.5844 3.85938C18.5844 4.21562 18.4063 3.91875 18.525 3.91875V3.97813C18.525 3.91875 18.525 3.85938 18.5844 3.85938ZM9.08438 10.3312C9.025 10.3312 9.025 10.1531 9.08438 10.1531C9.2625 10.1531 9.2625 10.3312 9.08438 10.3312ZM25.4719 31.2906C25.2938 31.2906 25.3531 31.5281 25.4125 31.5281C25.4719 31.4688 25.4719 31.4094 25.4719 31.2906ZM27.7281 33.4281L27.7875 33.4875C27.8469 33.4281 27.8469 33.3687 27.8469 33.25C27.7875 33.25 27.7281 33.3094 27.7281 33.3688V33.4281ZM21.9688 22.0875L22.1469 22.2063H21.9094L21.9688 22.0875ZM22.3844 22.5031L22.4438 22.5625C22.3844 22.7406 22.2656 22.6813 22.2656 22.6219L22.3844 22.5031ZM29.6281 13.3C29.5688 13.3 29.5688 13.1219 29.6281 13.1219V13.2406C29.6281 12.825 29.8656 13.2406 29.6875 13.2406H29.6281V13.3ZM24.1656 30.5188C24.1063 30.5188 24.1063 30.3406 24.1656 30.3406V30.4594C24.1656 30.0438 24.4031 30.4594 24.225 30.4594H24.1656V30.5188ZM10.3906 31.1125C10.3313 31.0531 10.2719 30.9938 10.2719 30.9344H10.45L10.3906 31.0531C10.3906 31.0531 10.3906 31.0531 10.3906 31.1125ZM22.5031 0.712498L22.5625 0.653124H22.6219L22.7406 0.771876H22.5031V0.712498ZM20.1281 16.8625C20.0688 16.8625 20.0688 16.6844 20.1281 16.6844V16.8031C20.1281 16.3875 20.3656 16.8031 20.1875 16.8031H20.1281V16.8625ZM25.1156 32.7156H25.175L25.2938 32.8344L25.3531 32.9531H25.2938L25.1156 32.7156ZM25.4125 15.9125C25.4125 15.8531 25.4719 15.7938 25.5906 15.7938H25.65C25.5906 15.8531 25.4719 15.9125 25.4125 15.9125ZM26.7781 22.5625H26.8375C26.9563 22.5625 27.0156 22.6219 27.0156 22.6812V22.7406L26.7781 22.5625ZM14.3094 6.47187C14.3688 6.4125 14.4875 6.35312 14.5469 6.35312H14.6063C14.5469 6.4125 14.4281 6.47187 14.3688 6.47187H14.3094ZM13.2406 28.3813C13.3 28.3813 13.3594 28.3219 13.3594 28.2031V28.1438C13.3 28.2031 13.2406 28.2625 13.2406 28.3219V28.3813ZM32.5375 28.2031H32.3594L32.4188 28.3813L32.5375 28.2031ZM24.8188 2.90937L24.8781 2.96875H24.4625C24.5219 2.96875 24.5813 2.96875 24.6406 2.90937H24.7594H24.8188ZM11.875 36.8719C11.875 36.8125 11.9344 36.8125 12.0531 36.8125C12.1125 36.8125 12.1719 36.8125 12.2313 36.8719H11.875ZM12.0531 9.025V8.96563L12.1719 9.08438L11.9938 9.14375V9.08438L12.0531 9.025ZM20.9594 3.02812H21.0781C21.0188 3.0875 20.9594 3.14687 20.9 3.14687H20.8406L20.9594 3.02812ZM20.2469 22.6812C20.3062 22.6812 20.3656 22.7406 20.3656 22.8L20.3063 22.8594H20.2469V22.6812ZM28.9156 28.3219C28.975 28.2625 29.0938 28.2031 29.1531 28.2031C29.0938 28.2625 29.0344 28.3219 28.975 28.3219H28.9156ZM33.4875 9.32187C33.4281 9.32187 33.4281 9.32188 33.4281 9.38125L33.5469 9.44063L33.6063 9.32187V9.2625L33.4875 9.32187ZM14.0719 6.76875C14.0719 6.94687 13.8344 6.70938 14.0125 6.70938V6.76875C14.0125 6.35312 14.25 6.76875 14.0719 6.76875ZM20.3656 3.26563C20.3656 3.20625 20.425 3.20625 20.6031 3.20625H20.7219L20.5438 3.26563H20.3656ZM19.3563 5.28437H19.2969C19.1188 5.28437 19.0594 5.34375 19.0594 5.40312L19.3563 5.28437ZM30.7563 12.0531C30.7563 11.9344 30.8156 11.875 30.875 11.875C30.875 11.9938 30.8156 12.0531 30.7563 12.0531ZM32.4781 30.3406C32.5375 30.3406 32.5969 30.2813 32.5969 30.1625C32.5375 30.1625 32.4781 30.2219 32.4781 30.3406ZM26.0656 34.1406L26.125 34.0813C26.125 34.0219 26.0656 33.9625 26.0063 33.9625V34.1406H26.0656ZM32.5969 3.8C32.5969 3.74063 32.6563 3.68125 32.7156 3.68125V3.85938C32.6563 3.85938 32.5969 3.85938 32.5969 3.8ZM28.5594 13.3H28.7969L28.5594 13.4188V13.3ZM23.1563 17.1L23.0969 16.9813C23.0375 16.9813 23.0375 17.0406 23.0375 17.1594L23.1563 17.1ZM32.9531 10.3906C33.0125 10.3906 33.0125 10.5094 32.9531 10.5094V10.3906ZM20.4844 2.67188C20.5438 2.67188 20.5438 2.79062 20.4844 2.79062V2.67188ZM8.60938 25.2344C8.66875 25.2344 8.66875 25.3531 8.60938 25.3531V25.2344ZM31.1719 11.6375C31.2313 11.6375 31.2313 11.7562 31.1719 11.7562V11.6375ZM16.3281 4.33437C16.3875 4.33437 16.3875 4.45312 16.3281 4.45312V4.33437ZM28.975 27.8469H29.0344C29.0344 27.9063 28.975 27.9062 28.9156 27.9656L28.8563 28.025V27.9656L28.975 27.8469ZM33.5469 29.7469C33.6063 29.7469 33.6063 29.6281 33.5469 29.6281V29.7469ZM19.2969 13.4188C19.3563 13.4188 19.3563 13.3 19.2969 13.3V13.4188ZM29.3906 13.3594C29.45 13.3594 29.45 13.4781 29.3906 13.4781V13.3594ZM31.7656 30.2219C31.825 30.2219 31.825 30.3406 31.7656 30.3406V30.2219ZM19.8906 4.45312C19.95 4.45312 19.95 4.57187 19.8906 4.57187V4.45312ZM30.3406 30.3406L30.4594 30.4594L30.4 30.5188H30.3406V30.3406ZM9.20312 31.7656C9.2625 31.7656 9.2625 31.6469 9.20312 31.6469V31.7656ZM16.9219 4.69063C16.9813 4.69063 16.9813 4.80937 16.9219 4.80937V4.69063ZM19.8906 33.3094C19.95 33.3094 19.95 33.1906 19.8906 33.1906V33.3094ZM19.8906 8.49063C19.95 8.49063 19.95 8.60938 19.8906 8.60938V8.49063ZM28.7969 15.1406C28.8563 15.1406 28.8563 15.2594 28.7969 15.2594V15.1406ZM13.3594 35.8031C13.4188 35.8031 13.4188 35.9219 13.3594 35.9219V35.8031ZM21.6719 16.2687C21.7313 16.2687 21.7313 16.3875 21.6719 16.3875V16.2687ZM22.2656 16.5063C22.325 16.5063 22.325 16.3875 22.2656 16.3875V16.5063ZM18.1094 5.16562C18.1688 5.16562 18.1688 5.28437 18.1094 5.28437V5.16562ZM24.0469 17.1C24.1063 17.1 24.1063 17.2188 24.0469 17.2188V17.1ZM13.9531 17.575C14.0125 17.575 14.0125 17.6938 13.9531 17.6938V17.575ZM22.2656 21.5531C22.325 21.5531 22.325 21.6719 22.2656 21.6719V21.5531ZM12.8844 35.6844L13.0031 35.625V35.6844C13.0031 35.7438 12.9438 35.7437 12.8844 35.8031V35.6844ZM2.67188 16.3281H2.73125L2.67188 16.4469H2.55313L2.67188 16.3281ZM33.4281 22.5031C33.3688 22.5031 33.3688 22.3844 33.4281 22.3844V22.5031ZM8.19375 22.5625C8.37188 22.5625 8.13438 22.325 8.13438 22.5625V22.5031C8.075 22.5031 8.075 22.6219 8.13438 22.6219L8.19375 22.5625ZM28.3219 11.2219C28.3219 11.4 28.0844 11.1625 28.2625 11.1625V11.2219C28.2625 10.9844 28.5 11.2219 28.3219 11.2219ZM31.0531 26.4813C30.9938 26.4813 30.9938 26.3625 31.0531 26.3625V26.4813ZM27.4906 28.5594C27.4313 28.5594 27.4313 28.4406 27.4906 28.4406V28.5594ZM31.6469 8.66875C31.5875 8.66875 31.5875 8.55 31.6469 8.55V8.66875ZM34.0219 29.0344C33.9625 29.0344 33.9625 29.1531 34.0219 29.1531V29.0344ZM32.8344 29.45C32.775 29.45 32.775 29.3313 32.8344 29.3313V29.45ZM33.3094 29.5688C33.4875 29.5688 33.25 29.3313 33.25 29.5688V29.5094C33.1906 29.5094 33.1906 29.6281 33.25 29.6281L33.3094 29.5688ZM15.0219 13.3594C14.9625 13.3594 14.9625 13.2406 15.0219 13.2406V13.3594ZM12.4094 7.89688C12.35 7.8375 12.35 7.77812 12.35 7.71875H12.4688L12.4094 7.89688ZM19.1781 3.38437C19.1187 3.38437 19.1187 3.26563 19.1781 3.26563V3.38437ZM20.9594 4.5125C20.9 4.5125 20.9 4.63125 20.9594 4.63125V4.5125ZM27.0156 13.7156L26.8375 13.5969V13.6562C26.8375 13.7156 26.8375 13.7156 26.8969 13.7156L26.9563 13.775L27.0156 13.7156ZM17.9906 13.7156C17.9313 13.7156 17.9313 13.5969 17.9906 13.5969V13.7156ZM25.1156 31.1719C25.0563 31.1719 25.0563 31.2906 25.1156 31.2906V31.1719ZM11.9938 8.13437C11.9938 8.3125 11.7563 8.075 11.9344 8.075V8.13437C11.9344 7.89687 12.1719 8.13437 11.9938 8.13437ZM15.6156 4.80937C15.5563 4.80937 15.5563 4.69063 15.6156 4.69063V4.80937ZM24.5219 14.0719C24.4625 14.0719 24.4625 13.9531 24.5219 13.9531V14.0719ZM29.8656 14.1906C29.8063 14.1906 29.8063 14.0719 29.8656 14.0719V14.1906ZM9.08438 31.9438C9.025 31.9438 9.025 32.0625 9.08438 32.0625V31.9438ZM28.6781 32.1219C28.6188 32.1219 28.6188 32.0031 28.6781 32.0031V32.1219ZM11.7563 8.3125C11.7563 8.49063 11.5188 8.25312 11.6969 8.25312V8.3125C11.6969 8.075 11.9344 8.3125 11.7563 8.3125ZM25.1156 32.3C25.0563 32.3 25.0563 32.4188 25.1156 32.4188V32.3ZM16.625 4.92813C16.6844 4.86875 16.6844 4.80937 16.7438 4.80937H16.8031L16.6844 4.92813H16.625ZM23.9281 3.38437C23.8688 3.38437 23.8688 3.50313 23.9281 3.50313V3.38437ZM17.9906 33.7844C17.9313 33.7844 17.9313 33.9031 17.9906 33.9031V33.7844ZM23.9281 15.0813C23.8688 15.0813 23.8688 15.2 23.9281 15.2V15.0813ZM8.7875 34.7344C8.96563 34.7344 8.72813 34.4969 8.72813 34.675C8.66875 34.675 8.66875 34.7938 8.72813 34.7938L8.7875 34.7344ZM12.6469 35.6844C12.5875 35.6844 12.5875 35.5656 12.6469 35.5656V35.6844ZM31.5875 8.7875C31.5875 8.96562 31.35 8.72812 31.5281 8.72812V8.7875C31.5281 8.55 31.7656 8.7875 31.5875 8.7875ZM11.1625 36.4563V36.5156H10.7469L11.1625 36.4563ZM2.55313 15.7344C2.49375 15.7344 2.49375 15.6156 2.55313 15.6156V15.7344ZM12.0531 8.84687C11.9938 8.84687 11.9938 8.72812 12.0531 8.72812V8.84687ZM18.5844 15.7938C18.525 15.7938 18.525 15.675 18.5844 15.675V15.7938ZM15.0219 5.225C14.9625 5.225 14.9625 5.10625 15.0219 5.10625V5.225ZM22.7406 16.0906C22.6812 16.0906 22.6812 15.9719 22.7406 15.9719V16.0906ZM14.4281 16.4469C14.3688 16.4469 14.3688 16.3281 14.4281 16.3281V16.4469ZM31.825 9.2625C31.825 9.20312 31.825 9.14375 31.8844 9.14375V9.20312C31.8844 9.32188 31.8844 9.38125 31.825 9.38125V9.2625ZM24.4625 16.8031C24.4031 16.7438 24.4031 16.6844 24.4031 16.625C24.4625 16.625 24.5219 16.625 24.5219 16.6844L24.4625 16.8031ZM31.0531 1.72187V1.60313C30.9938 1.60313 30.9938 1.72187 31.0531 1.72187ZM16.2094 17.6938C16.15 17.6938 16.15 17.575 16.2094 17.575V17.6938ZM28.6781 10.0938C28.6188 10.0938 28.6188 9.975 28.6781 9.975V10.0938ZM8.84688 10.45C8.84688 10.6281 8.60938 10.3906 8.7875 10.3906V10.45C8.7875 10.2125 9.025 10.45 8.84688 10.45ZM28.2031 30.0438C28.1438 29.9844 28.0844 29.9844 28.025 29.9844C28.025 30.0438 28.025 30.0437 28.0844 30.1031L28.2031 30.0438ZM24.7594 22.2063C24.7594 22.1469 24.7594 22.1469 24.8188 22.1469V22.0875C24.8781 22.0875 24.8781 22.0875 24.8781 22.1469L24.9375 22.2063H24.7594ZM17.1 4.63125C17.1594 4.57188 17.2188 4.5125 17.2781 4.5125C17.2781 4.57187 17.2188 4.63125 17.1594 4.63125H17.1ZM14.9031 13.5375C14.9031 13.4188 14.9031 13.3594 14.9625 13.3594V13.4188C14.9625 13.4781 14.9625 13.5375 14.9031 13.6562V13.5375ZM22.9781 32.0031C23.0375 32.0031 23.0969 31.9437 23.1563 31.8844H23.0969C23.0375 31.8844 22.9781 31.9438 22.9781 32.0031ZM32.6562 26.9563C32.5969 26.8969 32.5969 26.8375 32.5969 26.7781C32.6563 26.7781 32.7156 26.8375 32.7156 26.8969L32.6562 26.9563ZM22.9781 33.9031H23.0375C23.0969 33.9031 23.1563 33.9625 23.1563 34.0219V34.0813L22.9781 33.9031ZM19.1781 4.0375C19.1781 3.97813 19.2375 3.91875 19.3563 3.91875H19.4156L19.1781 4.0375ZM19.475 8.13437C19.4156 8.075 19.2969 8.075 19.2969 8.13437H19.475ZM29.2125 28.0844H29.3906V28.1438H29.2125V28.0844ZM33.0719 29.8656L33.1313 29.7469L33.0719 29.6875L33.0125 29.7469L33.0719 29.8656ZM31.35 29.7469H31.4688L31.4094 29.8062V29.8656H31.35V29.7469ZM11.1625 30.2813H11.2219C11.2219 30.4 11.2219 30.4594 11.1625 30.5188V30.2813ZM11.8156 31.825H11.875C11.875 31.9438 11.875 32.0031 11.8156 32.0625V31.825ZM26.125 32.2406V32.0625H26.0656V32.2406H26.125ZM22.2656 32.7156L22.1469 32.6562V32.8344L22.2656 32.7156ZM2.375 16.8031C2.375 16.6844 2.375 16.625 2.43438 16.5656V16.8031H2.375ZM19.5344 3.85938C19.5344 3.8 19.5938 3.8 19.7125 3.8H19.7719L19.5938 3.85938H19.5344ZM31.35 12.5281L31.4688 12.4094V12.4688C31.4688 12.5281 31.4688 12.5281 31.4094 12.5875L31.35 12.6469V12.5281ZM11.4594 7.54062C11.5188 7.48125 11.5188 7.42188 11.4594 7.3625L11.5188 7.42188H11.5781V7.48125L11.5188 7.54062H11.4594ZM17.9906 13.0625L18.05 13.1219H17.9906C17.9906 13.1812 17.9906 13.1813 17.9313 13.2406H17.8719L17.9906 13.0625ZM7.6 24.7594C7.65938 24.7594 7.65938 24.5813 7.6 24.5813V24.7594ZM33.1313 6.94687C33.1906 6.94687 33.1906 7.125 33.1313 7.125V6.94687ZM24.2844 32.4188L24.4031 32.3L24.3438 32.2406L24.2844 32.3594V32.4188ZM18.1688 5.16562C18.1688 5.10625 18.3469 5.10625 18.3469 5.16562H18.1688ZM22.325 22.2063C22.325 22.1469 22.3844 22.0875 22.4438 22.0875V22.2063H22.325ZM31.2906 28.9156V28.7969C31.2313 28.7969 31.1719 28.8562 31.1719 28.9156H31.2906ZM32.1813 7.6H32.3C32.3 7.65938 32.2406 7.71875 32.1813 7.71875V7.6ZM21.7313 32.3C21.7313 32.2406 21.7906 32.1813 21.85 32.1813V32.3H21.7313ZM25.3531 32.3V32.1813C25.2938 32.1813 25.2344 32.2406 25.2344 32.3H25.3531ZM22.8594 32.5375C22.8594 32.4781 22.8 32.4188 22.7406 32.4188V32.5375H22.8594ZM31.2313 10.6875C31.2313 10.6281 31.2906 10.6281 31.4094 10.6281V10.6875H31.2313ZM2.85 22.1469C2.96875 21.7906 2.96875 22.4438 2.85 22.1469V22.1469ZM28.5594 31.5875C28.6781 31.2312 28.6781 31.8844 28.5594 31.5875V31.5875ZM33.3094 22.6812C33.4281 22.325 33.4281 22.9781 33.3094 22.6812V22.6812ZM14.9031 6.11562C15.0219 5.75937 15.0219 6.4125 14.9031 6.11562V6.11562ZM33.8438 22.7406C33.725 22.3844 33.725 23.0375 33.8438 22.7406V22.7406ZM28.3813 23.3344C28.2625 22.9781 28.2625 23.6313 28.3813 23.3344V23.3344ZM32.9531 23.9281C33.0719 23.5719 33.0719 24.225 32.9531 23.9281V23.9281ZM31.2906 11.4C31.4094 11.0437 31.4094 11.6969 31.2906 11.4V11.4ZM13.7156 27.4906C13.5969 27.1344 13.5969 27.7875 13.7156 27.4906V27.4906ZM22.8594 33.9625C22.9781 33.6656 22.9781 34.3188 22.8594 33.9625V33.9625ZM29.0344 12.0531C29.1531 11.6969 29.1531 12.35 29.0344 12.0531V12.0531ZM17.1 4.275C17.2188 3.91875 17.2188 4.57187 17.1 4.275V4.275ZM13.4781 28.0844C13.3594 27.7281 13.3594 28.3813 13.4781 28.0844V28.0844ZM11.8156 7.18437V7.30313L11.7563 7.3625H11.6969L11.8156 7.18437ZM27.3719 28.6187C27.4906 28.2625 27.4906 28.9156 27.3719 28.6187V28.6187ZM27.2531 28.6781C27.3719 28.3219 27.3719 28.975 27.2531 28.6781V28.6781ZM21.375 2.90937H21.6719H21.375ZM9.38125 29.2719C9.5 28.9156 9.5 29.5688 9.38125 29.2719V29.2719ZM26.0656 29.8062C26.1844 29.45 26.1844 30.1031 26.0656 29.8062V29.8062ZM31.4094 13.4781L31.5281 13.3594V13.3L31.35 13.4781H31.4094ZM10.6875 7.8375C10.8063 7.48125 10.8063 8.13437 10.6875 7.8375V7.8375ZM32.3594 7.89688C32.4781 7.54063 32.4781 8.19375 32.3594 7.89688V7.89688ZM14.7844 13.775C14.9031 13.4188 14.9031 14.0719 14.7844 13.775V13.775ZM15.7344 13.775C15.8531 13.4188 15.8531 14.0719 15.7344 13.775V13.775ZM17.7531 14.0125C17.7531 13.9531 17.7531 13.8937 17.8125 13.8937L17.8719 14.0125H17.7531ZM23.6906 31.6469C23.5719 31.2906 23.5719 31.9438 23.6906 31.6469V31.6469ZM24.6406 14.4281C24.7594 14.0719 24.7594 14.725 24.6406 14.4281V14.4281ZM20.7219 32.775C20.6031 32.4188 20.6031 33.0719 20.7219 32.775V32.775ZM10.0344 8.49063C10.1531 8.13437 10.1531 8.7875 10.0344 8.49063V8.49063ZM20.2469 8.49063C20.1281 8.13437 20.1281 8.7875 20.2469 8.49063V8.49063ZM21.7906 33.25C21.85 33.25 21.9094 33.25 21.9094 33.1906H21.7313V33.25H21.7906ZM15.3188 4.92813C15.4375 4.57187 15.4375 5.225 15.3188 4.92813V4.92813ZM28.025 3.38437L27.8469 3.325H27.7875C27.7875 3.38437 27.8469 3.38437 27.9656 3.38437H28.025ZM7.06563 38.1188C7.18438 37.8219 7.18438 38.475 7.06563 38.1188V38.1188ZM7.18438 38.7125C7.30313 38.4156 7.30313 39.0688 7.18438 38.7125V38.7125ZM25.2344 16.0312C25.2344 15.9719 25.2938 15.9719 25.3531 15.9719C25.3531 16.0313 25.3531 16.0906 25.2938 16.0906L25.2344 16.0312ZM11.7563 9.08438C11.875 8.72812 11.875 9.38125 11.7563 9.08438V9.08438ZM21.85 16.15C21.9688 15.7938 21.9688 16.4469 21.85 16.15V16.15ZM2.1375 16.2094C2.25625 15.8531 2.25625 16.5063 2.1375 16.2094V16.2094ZM23.8688 16.2094C23.75 15.8531 23.75 16.5063 23.8688 16.2094V16.2094ZM31.8844 9.08438C32.0031 8.72812 32.0031 9.38125 31.8844 9.08438V9.08438ZM21.1375 16.7437C21.2563 16.3875 21.2563 17.0406 21.1375 16.7437V16.7437ZM8.25313 9.61875C8.37188 9.2625 8.37188 9.91562 8.25313 9.61875V9.61875ZM26.125 17.3969C26.2438 17.0406 26.2438 17.6938 26.125 17.3969V17.3969ZM17.6344 5.4625C17.7531 5.10625 17.7531 5.75938 17.6344 5.4625V5.4625ZM33.1906 5.4625C33.3094 5.10625 33.3094 5.75938 33.1906 5.4625V5.4625ZM0.296875 17.9313C0.415625 17.575 0.415625 18.2281 0.296875 17.9313V17.9313ZM18.1688 18.2281V18.2875L18.1094 18.3469H17.9906L18.1688 18.2281ZM17.8125 18.525C17.9313 18.1688 17.9313 18.8219 17.8125 18.525V18.525ZM19.6531 3.0875C19.7719 2.73125 19.7719 3.38437 19.6531 3.0875V3.0875ZM8.49063 21.9688L8.55 21.9094H8.60938V21.9688C8.55 22.0281 8.55 22.0281 8.49063 22.0281V21.9688ZM16.15 5.40312L16.2094 5.34375L16.2688 5.40312H16.2094C16.2094 5.4625 16.2094 5.4625 16.15 5.52188V5.40312ZM28.7969 23.6906C28.7375 23.6313 28.6781 23.6313 28.5594 23.6313H28.5C28.5594 23.6906 28.6188 23.6906 28.6781 23.6906H28.7969ZM32.3594 27.9656L32.4781 27.8469H32.4188C32.3594 27.8469 32.3594 27.8469 32.3594 27.9063L32.3 27.9656H32.3594ZM31.1719 13.7156L31.2906 13.5969H31.2313C31.1719 13.5969 31.1719 13.5969 31.1719 13.6562L31.1125 13.7156H31.1719ZM23.4531 3.44375C23.4531 3.50313 23.275 3.50313 23.275 3.44375C23.3344 3.38437 23.3938 3.38437 23.4531 3.44375ZM34.3188 24.4031H34.2L34.2594 24.5219L34.3188 24.4031ZM30.875 11.2812H30.9344C30.9344 11.3406 30.9344 11.3406 30.875 11.3406V11.4C30.8156 11.4 30.8156 11.4 30.8156 11.3406L30.875 11.2812ZM23.4531 0.475001V0.534375H23.2156L23.4531 0.475001ZM29.45 27.8469H29.5094V27.9656H29.45V27.8469ZM30.5188 12.1719H30.5781H30.6375L30.4594 12.2906V12.2313L30.5188 12.1719ZM12.2906 28.975V28.8563H12.2313V28.975H12.2906ZM29.0344 29.3313V29.1531C28.975 29.2125 28.975 29.2719 28.975 29.3313H29.0344ZM29.0344 13.1219H29.0938V13.2406H29.0344V13.1219ZM33.4281 29.8656V29.7469H33.3688V29.8656H33.4281ZM30.6375 7.95625C30.5781 7.95625 30.5781 7.95625 30.5781 7.89688L30.5188 7.8375L30.5781 7.77812L30.6375 7.95625ZM10.5094 30.5781L10.5688 30.6969L10.5094 30.8156V30.5781ZM25.65 32.5375C25.7094 32.4781 25.7688 32.4781 25.8281 32.4781V32.5375H25.65ZM33.0719 4.80937H33.1313C33.1313 4.86875 33.1313 4.92813 33.0719 4.9875V4.80937ZM10.6281 32.3V32.4781L10.5688 32.4188V32.3594L10.6281 32.3ZM23.1563 32.9531V32.8344H23.0969V32.9531H23.1563ZM32.3 8.60938H32.3594V8.66875L32.3 8.72812H32.2406V8.66875L32.3 8.60938ZM23.6906 35.7438L23.75 35.6844H23.8094V35.7438L23.75 35.8031H23.6906V35.7438ZM19.5938 5.16562L19.7125 5.10625H19.5344V5.16562H19.5938ZM18.2281 3.68125L18.2875 3.62187H18.3469V3.68125L18.2875 3.74062H18.2281V3.68125ZM24.2844 16.8625V16.9813H24.1656L24.2844 16.8625ZM14.5469 5.40312H14.6063V5.52188H14.5469V5.40312ZM10.3906 35.6844H10.45V35.8031H10.3906V35.6844ZM14.1906 5.58125V5.7L14.0719 5.64062L14.1906 5.58125ZM21.3156 3.97813C21.3156 3.91875 21.4344 3.91875 21.4344 3.97813H21.3156ZM20.6031 2.85C20.6031 2.79062 20.7219 2.79062 20.7219 2.85H20.6031ZM23.6313 32.6562C23.6313 32.5969 23.6313 32.5969 23.5719 32.5375V32.5969C23.5719 32.6563 23.5719 32.7156 23.6313 32.7156V32.6562ZM13.4781 37.7625C13.3594 37.525 13.3594 38 13.4781 37.7625V37.7625ZM2.96875 22.2063C3.0875 21.9688 3.0875 22.4438 2.96875 22.2063V22.2063ZM8.19375 22.2063C8.3125 21.9688 8.3125 22.4438 8.19375 22.2063V22.2063ZM5.9375 22.2656C6.05625 22.0281 6.05625 22.5031 5.9375 22.2656V22.2656ZM27.2531 31.8844C27.3719 31.6469 27.3719 32.1219 27.2531 31.8844V31.8844ZM19.3563 13.0031C19.2969 13.0031 19.2969 13.2406 19.3563 13.2406V13.0031ZM17.5156 4.0375C17.6344 3.8 17.6344 4.275 17.5156 4.0375V4.0375ZM31.2906 10.925C31.4094 10.6875 31.4094 11.1625 31.2906 10.925V10.925ZM18.3469 3.5625C18.4656 3.325 18.4656 3.8 18.3469 3.5625V3.5625ZM34.2594 23.0375C34.1406 22.8 34.1406 23.275 34.2594 23.0375V23.0375ZM13.5375 5.9375C13.6563 5.7 13.6563 6.175 13.5375 5.9375V5.9375ZM19.1187 11.1031C19 10.8656 19 11.3406 19.1187 11.1031V11.1031ZM14.6656 6.29375C14.7844 6.05625 14.7844 6.53125 14.6656 6.29375V6.29375ZM33.6656 24.0469C33.7844 23.8094 33.7844 24.2844 33.6656 24.0469V24.0469ZM10.9844 30.6969C11.1031 30.4594 11.1031 30.9344 10.9844 30.6969V30.6969ZM16.0906 24.7C15.9719 24.4625 15.9719 24.9375 16.0906 24.7V24.7ZM19.6531 8.66875C19.7719 8.43125 19.7719 8.90625 19.6531 8.66875V8.66875ZM15.9125 24.8188C15.7938 24.5812 15.7938 25.0562 15.9125 24.8188V24.8188ZM2.43438 15.7938C2.55313 15.5563 2.55313 16.0313 2.43438 15.7938V15.7938ZM9.2625 37.2281C9.38125 36.9906 9.38125 37.4656 9.2625 37.2281V37.2281ZM30.6375 11.5781C30.7563 11.3406 30.7563 11.8156 30.6375 11.5781V11.5781ZM19.475 3.20625C19.5938 2.96875 19.5938 3.44375 19.475 3.20625V3.20625ZM23.8094 0.415624C23.9281 0.178123 23.9281 0.653124 23.8094 0.415624V0.415624ZM8.3125 25.3531C8.19375 25.1156 8.19375 25.5906 8.3125 25.3531V25.3531ZM32.3594 25.7688C32.4781 25.5313 32.4781 26.0063 32.3594 25.7688V25.7688ZM8.7875 36.7531C8.66875 36.5156 8.66875 36.9906 8.7875 36.7531V36.7531ZM30.1031 25.8281C30.2219 25.5906 30.2219 26.0656 30.1031 25.8281V25.8281ZM31.35 26.125C31.4688 25.8875 31.4688 26.3625 31.35 26.125V26.125ZM29.1531 12.7656C29.2719 12.5281 29.2719 13.0031 29.1531 12.7656V12.7656ZM31.1719 26.3625C31.2906 26.125 31.2906 26.6 31.1719 26.3625V26.3625ZM30.6969 26.6594C30.8156 26.4219 30.8156 26.8969 30.6969 26.6594V26.6594ZM27.6094 11.8156C27.7281 11.5781 27.7281 12.0531 27.6094 11.8156V11.8156ZM25.9469 11.875C26.0656 11.6375 26.0656 12.1125 25.9469 11.875V11.875ZM12.35 6.76875C12.4688 6.53125 12.4688 7.00625 12.35 6.76875V6.76875ZM13.5375 6.94687C13.6563 6.70938 13.6563 7.18438 13.5375 6.94687V6.94687ZM32.775 27.6094C32.8344 27.6094 32.8344 27.6094 32.8344 27.55H32.7156V27.6094H32.775ZM29.0938 27.7281C29.2125 27.4906 29.2125 27.9656 29.0938 27.7281V27.7281ZM33.1906 10.6875C33.0719 10.45 33.0719 10.925 33.1906 10.6875V10.6875ZM30.6375 12.1125C30.7563 11.875 30.7563 12.35 30.6375 12.1125V12.1125ZM14.1313 15.0813C14.25 14.8438 14.25 15.3187 14.1313 15.0813V15.0813ZM16.6844 12.2313C16.5656 11.9938 16.5656 12.4688 16.6844 12.2313V12.2313ZM24.3438 14.1313C24.4625 13.8937 24.4625 14.3688 24.3438 14.1313V14.1313ZM30.6969 14.25C30.5781 14.0125 30.5781 14.4875 30.6969 14.25V14.25ZM13.5375 27.9063C13.4188 27.6688 13.4188 28.1438 13.5375 27.9063V27.9063ZM32.7156 3.20625C32.5969 2.96875 32.5969 3.44375 32.7156 3.20625V3.20625ZM32.8344 28.5C32.7156 28.2625 32.7156 28.7375 32.8344 28.5V28.5ZM28.5 12.7656C28.3813 12.5281 28.3813 13.0031 28.5 12.7656V12.7656ZM30.9344 14.0125C30.8156 13.775 30.8156 14.25 30.9344 14.0125V14.0125ZM4.57188 12.825C4.69062 12.5875 4.69062 13.0625 4.57188 12.825V12.825ZM13.1813 28.7375C13.0625 28.5 13.0625 28.975 13.1813 28.7375V28.7375ZM27.075 28.7969C27.1938 28.5594 27.1938 29.0344 27.075 28.7969V28.7969ZM26.125 12.825C26.2438 12.5875 26.2438 13.0625 26.125 12.825V12.825ZM16.0906 4.45312C16.2094 4.21562 16.2094 4.69063 16.0906 4.45312V4.45312ZM23.8688 32.5375C23.75 32.3 23.75 32.775 23.8688 32.5375V32.5375ZM29.6281 28.9156C29.5094 28.6781 29.5094 29.1531 29.6281 28.9156V28.9156ZM26.6594 28.975C26.7781 28.7375 26.7781 29.2125 26.6594 28.975V28.975ZM12.825 7.48125C12.9438 7.24375 12.9438 7.71875 12.825 7.48125V7.48125ZM15.9719 34.1406C16.0906 33.9031 16.0906 34.3781 15.9719 34.1406V34.1406ZM9.5 36.5156C9.61875 36.2781 9.61875 36.7531 9.5 36.5156V36.5156ZM33.6656 29.6281C33.5469 29.3906 33.5469 29.8656 33.6656 29.6281V29.6281ZM9.20312 29.6875C9.32188 29.45 9.32188 29.925 9.20312 29.6875V29.6875ZM26.6594 29.925C26.6594 29.8656 26.6594 29.8656 26.7188 29.8656L26.7781 29.8062V29.8656L26.7188 29.925H26.6594ZM27.4906 30.0438C27.3719 29.8063 27.3719 30.2813 27.4906 30.0438V30.0438ZM30.1625 29.45C30.0438 29.2125 30.0438 29.6875 30.1625 29.45V29.45ZM30.8156 30.1625C30.9344 29.925 30.9344 30.4 30.8156 30.1625V30.1625ZM23.6906 0.534375C23.4531 0.415623 23.9281 0.415623 23.6906 0.534375V0.534375ZM25.3531 13.4781C25.4719 13.2406 25.4719 13.7156 25.3531 13.4781V13.4781ZM24.7594 3.325C24.6406 3.0875 24.6406 3.5625 24.7594 3.325V3.325ZM12.1719 7.95625C12.2906 7.71875 12.2906 8.19375 12.1719 7.95625V7.95625ZM8.37188 10.9844C8.49063 10.7469 8.49063 11.2219 8.37188 10.9844V10.9844ZM29.6875 29.925C29.5688 29.6875 29.5688 30.1625 29.6875 29.925V29.925ZM9.5 30.6969C9.38125 30.4594 9.38125 30.9344 9.5 30.6969V30.6969ZM30.2219 29.925C30.1031 29.6875 30.1031 30.1625 30.2219 29.925V29.925ZM16.6844 7.95625C16.5656 7.71875 16.5656 8.19375 16.6844 7.95625V7.95625ZM10.1531 8.19375C10.2719 7.95625 10.2719 8.43125 10.1531 8.19375V8.19375ZM25.5312 13.6562C25.65 13.4188 25.65 13.8938 25.5312 13.6562V13.6562ZM27.3719 31.35C27.4906 31.1125 27.4906 31.5875 27.3719 31.35V31.35ZM25.5312 3.325C25.4125 3.0875 25.4125 3.5625 25.5312 3.325V3.325ZM10.0938 31.7063C10.2125 31.4688 10.2125 31.9438 10.0938 31.7063V31.7063ZM26.6 31.7656C26.7188 31.5281 26.7188 32.0031 26.6 31.7656V31.7656ZM8.90625 30.1625C9.025 29.925 9.025 30.4 8.90625 30.1625V30.1625ZM33.6656 4.9875C33.5469 4.75 33.5469 5.225 33.6656 4.9875V4.9875ZM22.7406 32.0031C22.6219 31.7656 22.6219 32.2406 22.7406 32.0031V32.0031ZM10.6281 32.0625C10.7469 31.825 10.7469 32.3 10.6281 32.0625V32.0625ZM18.7031 15.1406C18.8219 14.9031 18.8219 15.3781 18.7031 15.1406V15.1406ZM24.8188 14.25C24.9375 14.0125 24.9375 14.4875 24.8188 14.25V14.25ZM29.7469 32.0031C29.8656 31.7656 29.8656 32.2406 29.7469 32.0031V32.0031ZM20.1875 8.3125C20.0687 8.075 20.0687 8.55 20.1875 8.3125V8.3125ZM4.09688 14.4875C4.21562 14.25 4.21562 14.725 4.09688 14.4875V14.4875ZM8.7875 30.8156C8.90625 30.5781 8.90625 31.0531 8.7875 30.8156V30.8156ZM30.4 14.5469C30.2812 14.3094 30.2812 14.7844 30.4 14.5469V14.5469ZM30.3406 14.6656C30.2219 14.4281 30.2219 14.9031 30.3406 14.6656V14.6656ZM30.2812 14.725C30.1625 14.4875 30.1625 14.9625 30.2812 14.725V14.725ZM20.8406 33.1906C20.7219 32.9531 20.7219 33.4281 20.8406 33.1906V33.1906ZM11.2812 33.0719C11.4 32.8344 11.4 33.3094 11.2812 33.0719V33.0719ZM30.6969 13.3C30.8156 13.0625 30.8156 13.5375 30.6969 13.3V13.3ZM15.1406 4.9875C15.2594 4.75 15.2594 5.225 15.1406 4.9875V4.9875ZM27.1344 33.5469C27.0156 33.3094 27.0156 33.7844 27.1344 33.5469V33.5469ZM19 8.55C19.1188 8.3125 19.1188 8.7875 19 8.55V8.55ZM26.4813 15.0813C26.4813 15.0219 26.4813 15.0219 26.5406 15.0219V14.9625L26.6 15.0219L26.5406 15.0813H26.4813ZM20.3656 8.55C20.2469 8.3125 20.2469 8.7875 20.3656 8.55V8.55ZM20.7219 3.44375C20.4844 3.325 20.9594 3.325 20.7219 3.44375V3.44375ZM9.44063 34.675C9.32188 34.4375 9.32188 34.9125 9.44063 34.675V34.675ZM23.8094 14.5469C23.9281 14.3094 23.9281 14.7844 23.8094 14.5469V14.5469ZM17.575 15.3781C17.6938 15.1406 17.6938 15.6156 17.575 15.3781V15.3781ZM20.6625 33.4875C20.5438 33.25 20.5438 33.725 20.6625 33.4875V33.4875ZM18.2281 13.0625C18.3469 12.825 18.3469 13.3 18.2281 13.0625V13.0625ZM18.4656 5.04687C18.5844 4.80938 18.5844 5.28437 18.4656 5.04687V5.04687ZM24.2844 3.38437C24.1656 3.14687 24.1656 3.62187 24.2844 3.38437V3.38437ZM8.84688 37.6438C8.96563 37.4063 8.96563 37.8813 8.84688 37.6438V37.6438ZM32.0031 26.125C32.1219 25.8875 32.1219 26.3625 32.0031 26.125V26.125ZM32.0031 5.04687C32.1219 4.80938 32.1219 5.28437 32.0031 5.04687V5.04687ZM24.6406 15.7938C24.7594 15.5563 24.7594 16.0313 24.6406 15.7938V15.7938ZM19.475 3.5625C19.5938 3.325 19.5938 3.8 19.475 3.5625V3.5625ZM21.9094 16.0312C22.0281 15.7937 22.0281 16.2687 21.9094 16.0312V16.0312ZM25.9469 2.96875C26.0656 2.73125 26.0656 3.20625 25.9469 2.96875V2.96875ZM12.825 6.47187C12.9438 6.23437 12.9438 6.70937 12.825 6.47187V6.47187ZM27.6688 16.0312C27.7875 15.7937 27.7875 16.2687 27.6688 16.0312V16.0312ZM26.1844 2.96875C26.3031 2.73125 26.3031 3.20625 26.1844 2.96875V2.96875ZM17.1 9.14375C17.2188 8.90625 17.2188 9.38125 17.1 9.14375V9.14375ZM10.1531 30.7563C10.2719 30.5188 10.2719 30.9938 10.1531 30.7563V30.7563ZM14.1906 16.8625C14.3094 16.625 14.3094 17.1 14.1906 16.8625V16.8625ZM26.6594 16.9219C26.7781 16.6844 26.7781 17.1594 26.6594 16.9219V16.9219ZM14.1313 17.0406C14.25 16.8031 14.25 17.2781 14.1313 17.0406V17.0406ZM18.1094 3.8C18.2281 3.5625 18.2281 4.0375 18.1094 3.8V3.8ZM32.5375 9.7375C32.6563 9.5 32.6563 9.975 32.5375 9.7375V9.7375ZM30.6375 30.2219C30.7563 29.9844 30.7563 30.4594 30.6375 30.2219V30.2219ZM25.8281 17.6344C25.9469 17.3969 25.9469 17.8719 25.8281 17.6344V17.6344ZM29.3906 14.5469C29.5094 14.3094 29.5094 14.7844 29.3906 14.5469V14.5469ZM15.8531 5.58125C15.9719 5.34375 15.9719 5.81875 15.8531 5.58125V5.58125ZM17.8719 3.85938C17.9906 3.62187 17.9906 4.09688 17.8719 3.85938V3.85938ZM34.4375 23.4531C34.3188 23.2156 34.3188 23.6906 34.4375 23.4531V23.4531ZM19.6531 11.6969C19.5344 11.4594 19.5344 11.9344 19.6531 11.6969V11.6969ZM32.1219 10.3312C32.2406 10.0937 32.2406 10.5687 32.1219 10.3312V10.3312ZM18.2281 4.09688C18.2281 4.0375 18.2875 4.0375 18.3469 4.0375V4.09688H18.2281ZM8.96563 24.9375H9.025L8.96563 25.1156V24.9375ZM31.9438 8.3125V8.49063L31.8844 8.37188L31.9438 8.3125ZM9.5 28.6781C9.44063 28.6781 9.44063 28.5594 9.5 28.5594C9.55938 28.6188 9.55938 28.6188 9.5 28.6781ZM31.4094 27.9656C31.35 27.9656 31.35 27.9063 31.35 27.8469H31.4094V27.9656ZM13.4188 7.06562L13.4781 7.00625H13.5375L13.4188 7.125V7.06562ZM16.2094 24.6406H16.2688L16.3281 24.5813H16.2094L16.15 24.6406H16.2094ZM10.45 8.01562H10.5094C10.5688 8.01562 10.6281 8.01562 10.6281 8.075H10.5688L10.45 8.01562ZM21.3156 4.45312L21.4344 4.39375H21.375C21.3156 4.39375 21.2563 4.39375 21.2563 4.45312H21.3156ZM11.2812 28.5594C11.3406 28.5594 11.3406 28.5 11.2812 28.4406V28.5594ZM30.5781 13.4781C30.5781 13.5375 30.4594 13.5375 30.4594 13.4781C30.5187 13.4188 30.5188 13.4188 30.5781 13.4781ZM31.8844 12.8844L32.0031 12.7656H31.9438L31.8844 12.825V12.8844ZM21.9094 31.825L22.0281 31.7063H21.9688L21.9094 31.7656V31.825ZM21.1969 4.5125C21.1375 4.45312 21.0781 4.45312 21.0781 4.5125H21.1969ZM25.2344 3.325C25.175 3.26563 25.175 3.26563 25.1156 3.325C25.1156 3.38437 25.2344 3.38437 25.2344 3.325ZM27.2531 23.0969H27.075H27.2531ZM19.2969 4.69063C19.2969 4.63125 19.3563 4.63125 19.4156 4.63125H19.475L19.3563 4.69063H19.2969ZM17.5156 4.69063H17.6344L17.575 4.75H17.5156V4.69063ZM28.8563 31.4094V31.4688H28.6781L28.8563 31.4094ZM15.4375 14.1313C15.4375 14.0719 15.4375 14.0125 15.4969 14.0125V14.0719L15.4375 14.1906V14.1313ZM27.8469 13.2406C27.7875 13.2406 27.7875 13.1219 27.8469 13.1219C27.9063 13.1812 27.9063 13.1813 27.8469 13.2406ZM16.4469 4.5125V4.57187L16.3875 4.63125H16.3281L16.4469 4.5125ZM32.2406 28.9156C32.2406 28.8562 32.1812 28.8563 32.1219 28.8563V28.9156H32.2406ZM17.6938 15.6156C17.7531 15.6156 17.7531 15.675 17.7531 15.7344H17.6938V15.6156ZM24.9375 14.6062V14.6656L24.8781 14.725H24.8188L24.9375 14.6062ZM31.5281 7.24375V7.18437V7.30313L31.4688 7.3625V7.30313L31.5281 7.24375ZM9.85625 9.67813H9.975L9.91562 9.7375H9.85625V9.67813ZM23.6906 17.3969C23.6313 17.3969 23.6313 17.2781 23.6906 17.2781C23.75 17.3375 23.75 17.3375 23.6906 17.3969ZM15.6156 13.5375C15.675 13.5969 15.675 13.7156 15.6156 13.7156V13.5375ZM15.4969 14.3688L15.5562 14.3094V14.4281L15.4969 14.4875V14.4281V14.3688ZM33.0719 3.14687C33.0719 3.0875 33.0719 3.0875 33.0125 3.02812C32.9531 3.0875 32.9531 3.14687 33.0719 3.14687ZM25.65 22.325L25.5906 22.2656H25.65C25.7094 22.2656 25.7094 22.2656 25.7094 22.325H25.65ZM31.9438 11.875L32.0031 11.8156V11.875C32.0031 11.9344 32.0031 11.9344 31.9438 11.9344V11.875ZM19.4156 12.5281C19.3563 12.5281 19.3563 12.7062 19.4156 12.7062V12.5281ZM24.7 13.8937H24.7594L24.7 13.9531H24.6406L24.7 13.8937ZM24.225 2.96875C24.2844 2.96875 24.2844 2.96875 24.3438 3.02812H24.225V2.96875ZM26.7188 14.8438L26.7781 14.7844V14.8438C26.7781 14.9031 26.7781 14.9031 26.7188 14.9031V14.8438ZM8.60938 35.6844C8.55 35.6844 8.55 35.8625 8.60938 35.8625V35.6844ZM31.4094 8.90625L31.4688 8.84687V8.90625C31.4688 8.96562 31.4688 8.96563 31.4094 8.96563V8.90625ZM33.6656 9.14375V9.20312L33.725 9.14375V9.08438C33.6656 9.08438 33.6656 9.08438 33.6656 9.14375ZM28.6188 28.1438H28.6781L28.6188 28.2031H28.5594L28.6188 28.1438ZM30.6375 10.3312C30.6375 10.2719 30.6375 10.2719 30.6969 10.2719V10.3312L30.6375 10.3906V10.3312ZM32.1219 8.7875H32.1813V8.84687H32.1219V8.7875ZM1.95938 16.3875H2.07813L1.95938 16.4469V16.3875ZM18.3469 33.1312H18.4062L18.3469 33.1906H18.2875L18.3469 33.1312ZM3.74063 22.5625C3.8 22.6219 3.8 22.6813 3.74063 22.7406V22.5625ZM24.8188 32.5969V32.5375H24.7594V32.5969H24.8188ZM5.16563 13.3594V13.4188L5.10625 13.4781V13.4188L5.16563 13.3594ZM14.0125 5.7V5.81875L13.9531 5.75937L14.0125 5.7ZM27.6688 11.2219V11.3406L27.6094 11.2812L27.6688 11.2219ZM32.4188 11.2219V11.3406H32.3594L32.4188 11.2219ZM15.2 14.7844L15.2594 14.725V14.7844L15.2 14.8438V14.7844ZM9.025 32.4781C9.08437 32.4781 9.08437 32.3594 9.025 32.3594V32.4781ZM12.1719 35.5062H12.2313V35.5656H12.1719V35.5062ZM10.2719 8.075H10.3906L10.2719 8.13437V8.075ZM27.4313 11.4594V11.5781L27.3719 11.5188L27.4313 11.4594ZM22.4438 15.7938H22.5031L22.4438 15.8531H22.3844L22.4438 15.7938ZM9.61875 28.7375H9.67813L9.61875 28.8563V28.7375ZM29.1531 11.7562H29.2125V11.8156H29.1531V11.7562ZM11.875 29.0344L11.8156 28.9156V28.975L11.875 29.0938V29.0344ZM23.1563 15.7938L23.2156 15.7344H23.1563L23.0969 15.7938H23.1563ZM33.9625 27.55V27.4906H33.9031V27.55H33.9625ZM26.4219 15.1406V15.2H26.3031L26.4219 15.1406ZM13.6563 34.675H13.7156V34.7344H13.6563V34.675ZM18.9406 14.0125H18.8813V14.1313L18.9406 14.0125ZM24.9375 32.4781L24.9969 32.4188H24.9375L24.8781 32.4781H24.9375ZM32.9531 22.5625H33.0125V22.6219H32.9531V22.5625ZM34.1406 28.7375V28.6781L34.0219 28.7375H34.1406ZM32.0625 30.4594V30.5781L32.0031 30.5188L32.0625 30.4594ZM26.2437 3.26563C26.2437 3.20625 26.125 3.20625 26.125 3.26563H26.2437ZM30.9344 31.2313H30.9938L30.9344 31.2906H30.875L30.9344 31.2313ZM11.6969 27.6688V27.55L11.6375 27.6094L11.6969 27.6688ZM30.1031 13.9531H30.1625L30.1031 14.0125H30.0438L30.1031 13.9531ZM23.9281 35.625H24.0469L23.9281 35.6844V35.625ZM8.25313 25.8875V25.8281L8.37188 26.0063L8.25313 25.8875ZM1.06875 20.0094V19.95L1.12813 20.0094V20.0688L1.06875 20.0094ZM33.0125 27.9656H32.9531L33.0125 28.0844V27.9656ZM20.1281 32.8344V32.8938H20.0094L20.1281 32.8344ZM30.4 31.6469V31.7656L30.3406 31.7063L30.4 31.6469ZM30.0438 29.1531H29.9844L30.0438 29.2719V29.1531ZM17.8125 15.8531L17.8719 15.9719H17.8125V15.8531ZM30.5781 11.6375H30.6375L30.5781 11.7562V11.6375ZM0.178125 18.8219H0.296875L0.178125 18.8813V18.8219ZM24.3438 16.2687V16.2094H24.2844V16.2687H24.3438ZM14.725 5.225H14.7844L14.725 5.28437H14.6656L14.725 5.225ZM13.1813 7.125C13.2406 7.18437 13.2406 7.24375 13.1813 7.30313V7.125ZM21.4938 16.4469H21.5531V16.5063H21.4938V16.4469ZM25.7094 2.85L25.8281 2.90937H25.7094V2.85ZM30.9344 9.44063H30.9938V9.5H30.9344V9.44063ZM20.0094 16.8625H20.0688L20.0094 16.9219H19.95L20.0094 16.8625ZM17.9313 5.28437H17.9906V5.34375H17.9313V5.28437ZM9.20312 33.6656H9.08438L9.20312 33.725V33.6656ZM1.9 17.8125C1.9 17.7531 1.95938 17.7531 1.95938 17.6938V17.8125H1.9ZM14.8438 6.175H14.9031L14.8438 6.23438H14.7844L14.8438 6.175ZM25.4719 17.8719V17.9906H25.4125L25.4719 17.8719ZM30.7563 25.2938H30.8156V25.3531H30.7563V25.2938ZM17.575 3.85938L17.6938 3.91875H17.575V3.85938ZM1.78125 17.8125L1.84063 17.8719V17.9906L1.78125 17.8125ZM18.525 8.19375V8.25312H18.4062L18.525 8.19375ZM0.95 19.7719H1.00938V19.8313H0.95V19.7719ZM19.95 2.96875H20.0688L20.0094 3.02812L19.95 2.96875ZM23.8688 15.2594V15.2H23.8094V15.2594H23.8688ZM15.3188 5.81875V5.9375H15.2594L15.3188 5.81875ZM12.1719 30.8156V30.9344V30.8156ZM26.8375 14.725C26.8969 14.6656 26.8969 14.6656 26.8969 14.725H26.8375ZM20.0688 33.3094C20.1281 33.3094 20.1281 33.3094 20.0688 33.25V33.3094ZM21.1375 2.96875H21.2563H21.1375ZM29.2125 13.5375C29.2719 13.4781 29.2719 13.4781 29.2719 13.5375H29.2125ZM20.0094 8.25312H19.8906H20.0094ZM22.5031 32.6562H22.3844H22.5031ZM20.1875 3.5625H20.3063H20.1875ZM10.0344 34.4375C10.0938 34.4969 10.0938 34.4969 10.0344 34.4969V34.4375ZM10.0938 33.8438C10.1531 33.9031 10.1531 33.9031 10.0938 33.9031V33.8438ZM8.60938 10.6875C8.60938 10.7469 8.49063 10.7469 8.49063 10.6875H8.60938ZM14.0719 17.3969C14.0125 17.3969 14.0125 17.2781 14.0719 17.2781V17.3969ZM34.1406 5.99687C34.0813 5.99687 34.0813 6.11562 34.1406 6.11562V5.99687ZM16.5656 14.7844V14.8438V14.7844ZM25.0563 16.0906C25.1156 16.15 25.1156 16.15 25.0563 16.2094V16.0906ZM10.9844 8.84687C10.9844 8.90625 10.8656 8.90625 10.8656 8.84687H10.9844ZM8.72813 35.9813C8.66875 35.9813 8.66875 36.1 8.72813 36.1V35.9813ZM10.6875 30.2813V30.3406V30.2813ZM12.1719 8.72812H12.2313H12.1719ZM19.8906 5.04687C19.8313 4.9875 19.8313 4.9875 19.7719 5.04687H19.8906ZM9.08438 30.3406C9.14375 30.4 9.14375 30.4 9.08438 30.4594V30.3406ZM32.5375 4.9875V5.04687V4.9875ZM15.2 18.2281H15.1406H15.2ZM30.4594 8.01562C30.5187 7.95625 30.5188 7.95625 30.5781 8.01562H30.4594ZM22.6219 33.9031C22.6812 33.9625 22.6812 33.9625 22.6219 34.0219V33.9031ZM7.71875 24.9969V24.9375V24.9969ZM8.7875 31.0531V31.1125V31.0531ZM13.0625 19.5938V19.6531V19.5938ZM18.2875 13.3V13.3594V13.3ZM27.9656 30.4594V30.3406C28.025 30.4 28.025 30.4 27.9656 30.4594ZM33.3688 9.67813C33.4281 9.61875 33.4281 9.61875 33.3688 9.55937V9.67813ZM1.95938 20.9594C2.01875 20.9594 2.01875 21.0187 1.95938 21.0781V20.9594ZM27.7281 30.4594C27.6688 30.4 27.6094 30.4 27.6094 30.4594H27.7281ZM9.08438 33.3094C9.14375 33.3094 9.14375 33.25 9.08438 33.1906V33.3094ZM17.6344 10.0344H17.6938V10.0938L17.6344 10.0344ZM20.9 2.67188H20.9594L20.9 2.73125V2.67188ZM16.9813 5.81875H17.0406H16.9813ZM9.61875 30.3406L9.55937 30.2813V30.3406H9.61875ZM27.7875 11.0437H27.8469L27.7875 11.1031V11.0437ZM32.5969 27.7875V27.7281L32.5375 27.7875H32.5969ZM33.0719 5.10625V5.16562H33.0125L33.0719 5.10625ZM14.5469 15.3781V15.4375V15.3781ZM0.534375 17.5156V17.575V17.5156ZM9.61875 10.7469H9.67813H9.61875ZM26.4813 15.4375V15.4969V15.4375ZM21.7906 34.9125L21.85 34.9719H21.7906V34.9125ZM32.1219 8.37188H32.1813H32.1219ZM26.7188 15.7344V15.7938H26.6594L26.7188 15.7344ZM13.0625 6.23438H13.1219L13.0625 6.29375V6.23438ZM3.44375 20.4844V20.5438V20.4844ZM17.1594 8.84687H17.2188V8.90625L17.1594 8.84687ZM20.4844 17.2781H20.5438H20.4844ZM33.725 29.5688V29.5094L33.6656 29.5688H33.725ZM13.3594 7.95625V8.01562V7.95625ZM11.875 7.125L11.8156 7.06562L11.9344 7.125H11.875ZM0.415625 17.7531H0.475L0.415625 17.8125V17.7531ZM3.68125 14.3094H3.74063H3.68125ZM30.1031 14.9031V14.8438V14.9031ZM13.8344 6.82812V6.8875H13.775L13.8344 6.82812ZM18.1094 33.25H18.1688H18.1094ZM26.4813 12.35H26.5406H26.4813ZM7.00625 11.1031H7.06563H7.00625ZM30.3406 12.35H30.4L30.3406 12.4094V12.35ZM27.0156 29.1531H27.075H27.0156ZM7.06563 38.475L7.125 38.5344V38.5938L7.06563 38.475ZM29.45 11.6375H29.5094H29.45ZM30.2812 29.0344V28.975V29.0344ZM18.8813 3.38437H18.9406H18.8813ZM28.8563 28.3813V28.4406H28.7969L28.8563 28.3813ZM31.1719 31.1125H31.2313L31.1719 31.1719V31.1125ZM3.97813 22.5625V22.6219V22.5625ZM30.9938 13.8937H30.9344V13.9531L30.9938 13.8937ZM9.5 28.975V29.0344V28.975ZM26.0656 33.4875V33.5469V33.4875ZM29.1531 32.4781H29.2125L29.1531 32.5375V32.4781ZM27.2531 29.0344V29.0938H27.1938L27.2531 29.0344ZM26.6594 12.7062H26.7188L26.6594 12.7656V12.7062ZM15.9719 24.7594H15.9125H15.9719ZM9.44063 39.0094V39.0687H9.38125L9.44063 39.0094ZM28.8563 27.4906V27.55H28.7969L28.8563 27.4906ZM29.8062 9.38125H29.8656L29.8062 9.44063V9.38125ZM13.2406 6.11562V6.175H13.1813L13.2406 6.11562ZM19.7125 32.5969H19.7719H19.7125ZM16.0313 4.5125H16.0906H16.0313ZM20.3063 2.90937H20.3656H20.3063ZM17.6344 9.5V9.55937V9.5ZM9.32188 31.35V31.2906L9.2625 31.35H9.32188ZM29.0344 32.5969V32.6562V32.5969ZM27.1938 16.5063V16.5656V16.5063ZM24.1063 31.825V31.7656L24.0469 31.825H24.1063ZM9.5 8.66875H9.55937H9.5ZM14.0719 16.5063H14.1313L14.0719 16.5656V16.5063ZM28.9156 9.7375V9.79688V9.7375ZM15.7938 13.4188V13.4781H15.7344L15.7938 13.4188ZM17.3375 33.9031H17.2781H17.3375ZM19.475 5.225H19.4156H19.475ZM16.5063 5.225H16.5656H16.5063ZM32.0625 23.9281H32.1219L32.0625 23.9875V23.9281ZM22.6219 32.0625H22.5625V32.1219L22.6219 32.0625ZM27.2531 14.725H27.3125H27.2531ZM1.6625 21.0781V21.0188L1.72188 21.1375L1.6625 21.0781ZM2.19688 21.0188L2.25625 21.0781V21.1375L2.19688 21.0188ZM33.0125 6.53125V6.59063H32.9531L33.0125 6.53125ZM33.6656 27.3125H33.6063V27.3719L33.6656 27.3125ZM29.5094 13.3V13.3594H29.45L29.5094 13.3ZM31.5875 12.2906H31.6469L31.5875 12.35V12.2906ZM13.5969 18.3469V18.4062V18.3469ZM29.3906 26.8969V26.9563V26.8969ZM28.8563 12.1125H28.9156V12.1719L28.8563 12.1125ZM29.6875 1.06875H29.7469V1.12813L29.6875 1.06875ZM27.9063 12.8844V12.825V12.8844ZM28.3813 28.2625V28.3219V28.2625ZM28.025 28.975H28.0844L28.025 29.0344V28.975ZM14.725 14.0125V14.0719H14.6656L14.725 14.0125ZM18.1094 4.45312H18.1688L18.1094 4.5125V4.45312ZM9.44063 8.72812V8.7875H9.38125L9.44063 8.72812ZM13.5375 27.7875V27.7281V27.7875ZM27.075 11.7562V11.8156H27.0156L27.075 11.7562ZM30.7563 14.1313H30.6969V14.1906L30.7563 14.1313ZM33.9625 7.125C34.0219 7.18437 34.0219 7.18437 33.9625 7.18437V7.125ZM25.65 32.9531C25.7094 32.8937 25.7094 32.8937 25.7094 32.9531H25.65ZM32.0031 8.96563H32.0625H32.0031ZM14.0125 18.7031V18.6438V18.7031ZM14.0125 17.4563V17.5156V17.4563ZM8.96563 10.3312H9.025H8.96563ZM19.95 4.45312H20.0094H19.95ZM15.7938 5.64062H15.8531H15.7938ZM8.37188 22.2656H8.43125H8.37188ZM17.3375 14.5469V14.6062V14.5469ZM24.3438 31.1719H24.4031H24.3438ZM27.4313 32.6562V32.7156V32.6562ZM28.3813 15.4969H28.4406H28.3813ZM31.4688 9.7375H31.5281H31.4688ZM10.0344 8.25312H10.0938H10.0344ZM9.55937 36.3969H9.61875H9.55937ZM17.6938 16.0312H17.7531H17.6938ZM26.8969 31.7063V31.7656V31.7063ZM6.94688 12.1719V12.2313V12.1719ZM29.2125 10.0344V10.0938V10.0344ZM19.3563 33.6656V33.6063V33.6656ZM16.4469 4.33437H16.5063H16.4469ZM22.6812 33.6656V33.725V33.6656ZM18.3469 4.33437H18.4062H18.3469ZM21.2563 3.26563H21.3156H21.2563ZM30.5781 8.49063H30.6375H30.5781ZM15.1406 5.04687V5.10625V5.04687ZM13.8344 27.075V27.0156V27.075ZM9.2625 8.84687V8.90625V8.84687ZM25.5906 3.26563V3.20625V3.26563ZM29.6281 32.1219H29.6875H29.6281ZM18.7031 14.1906V14.1313V14.1906ZM33.0719 27.7281V27.6688V27.7281ZM11.1625 30.875H11.2219H11.1625ZM10.8062 31.1719V31.2313V31.1719ZM28.2625 10.5094V10.5688V10.5094ZM26.8969 15.6156V15.675V15.6156ZM16.8031 16.8625V16.9219V16.8625ZM9.2625 39.3656H9.20312H9.2625ZM29.2125 13.0031V13.0625V13.0031ZM24.2844 33.1906H24.3438H24.2844ZM18.1094 12.9438V13.0031V12.9438ZM32.1813 5.87813V5.9375V5.87813ZM1.06875 18.5844H1.12813H1.06875ZM4.0375 21.0781H4.09688H4.0375ZM9.79688 32.8938V32.9531V32.8938ZM30.6969 2.1375V2.19688V2.1375ZM25.4719 13.7156H25.5312H25.4719ZM9.08438 34.0813V34.0219V34.0813ZM31.4094 6.47187H31.4688H31.4094ZM25.8281 22.7406H25.8875H25.8281ZM24.1656 16.3281H24.1063H24.1656ZM25.4719 2.90937H25.5312H25.4719ZM20.7219 4.69063H20.6625H20.7219ZM15.4375 25.1156H15.3781H15.4375ZM21.1375 18.3469V18.2875V18.3469ZM11.6969 35.8625H11.7563H11.6969ZM21.2563 4.09688H21.1969H21.2563ZM33.1906 28.2031H33.1313H33.1906ZM18.7625 4.92813H18.8219H18.7625ZM14.3094 7.42188L14.3688 7.3625L14.3094 7.42188ZM12.0531 31.0531V31.1125V31.0531ZM17.2781 8.66875V8.72812V8.66875ZM21.9688 34.9719H22.0281H21.9688ZM20.0094 4.9875H19.95H20.0094ZM13.5375 7.77812H13.5969H13.5375ZM21.6719 3.14687H21.7313H21.6719ZM33.6656 23.1563H33.6063H33.6656ZM24.8781 31.0531H24.8188H24.8781ZM31.6469 9.5V9.55937V9.5ZM16.0906 6.29375V6.35312V6.29375ZM24.7 17.3969H24.7594H24.7ZM16.625 4.45312H16.6844H16.625ZM32.1813 8.01562V8.075V8.01562ZM17.8125 33.3094H17.8719H17.8125ZM29.1531 12.825V12.8844V12.825ZM11.3406 8.55H11.4H11.3406ZM11.9344 28.8563V28.7969V28.8563ZM24.7594 14.3094H24.8188H24.7594ZM33.1906 5.87813H33.25H33.1906ZM22.325 34.0813H22.3844H22.325ZM20.8406 4.15625H20.9594H20.8406Z" fill="white"/>
<path d="M47.6094 33.1469C48.3094 33.1469 48.6595 32.8406 48.6595 32.2281V30.2156C48.6595 29.5594 48.3094 29.2531 47.6094 29.2531H41.7907V20.3719H45.4657C46.1657 20.3719 46.5157 20.0656 46.5157 19.4094V17.3969C46.5157 16.7406 46.1657 16.4344 45.4657 16.4344H41.7907V6.54688H47.3907C48.0469 6.54688 48.3969 6.24062 48.3969 5.62812V3.61562C48.3969 2.95937 48.0469 2.65313 47.3907 2.65313H37.8094C37.0657 2.65313 36.7157 2.95937 36.7157 3.61562V32.2281C36.7157 32.8406 37.0657 33.1469 37.8094 33.1469H47.6094Z" fill="white"/>
<path d="M64.6825 19.2781C64.6825 18.6219 64.3325 18.3156 63.5888 18.3156H58.645C57.8575 18.3156 57.4638 18.6219 57.4638 19.2781V21.1594C57.4638 21.7719 57.8575 22.0781 58.645 22.0781H59.52V28.1594C59.52 28.8156 58.82 29.3406 57.8138 29.3406C56.6325 29.3406 56.0638 29.0344 56.0638 28.3781C56.02 27.1969 56.02 25.2719 56.02 22.5594V6.37187C56.02 5.75937 56.6325 5.45313 57.8138 5.45313C58.9075 5.45313 59.4763 5.80312 59.4763 6.50313V8.07813C59.4763 8.73438 59.8263 9.04062 60.57 9.04062H63.5888C64.3325 9.04062 64.6825 8.73438 64.6825 8.07813V7.02812C64.6825 3.87813 62.0138 1.60312 57.8138 1.60312C53.4825 1.60312 50.77 3.61562 50.77 6.89688V27.8531C50.77 31.1781 53.6138 33.1469 57.8138 33.1469C60.045 33.1469 61.7075 32.5781 62.8888 31.3969C64.07 30.2156 64.6825 29.0344 64.6825 27.7656V19.2781Z" fill="white"/>
<path d="M80.747 19.2781C80.747 18.6219 80.397 18.3156 79.6533 18.3156H74.7095C73.922 18.3156 73.5282 18.6219 73.5282 19.2781V21.1594C73.5282 21.7719 73.922 22.0781 74.7095 22.0781H75.5845V28.1594C75.5845 28.8156 74.8845 29.3406 73.8783 29.3406C72.697 29.3406 72.1283 29.0344 72.1283 28.3781C72.0845 27.1969 72.0845 25.2719 72.0845 22.5594V6.37187C72.0845 5.75937 72.697 5.45313 73.8783 5.45313C74.972 5.45313 75.5407 5.80312 75.5407 6.50313V8.07813C75.5407 8.73438 75.8907 9.04062 76.6345 9.04062H79.6533C80.397 9.04062 80.747 8.73438 80.747 8.07813V7.02812C80.747 3.87813 78.0782 1.60312 73.8783 1.60312C69.547 1.60312 66.8345 3.61562 66.8345 6.89688V27.8531C66.8345 31.1781 69.6783 33.1469 73.8783 33.1469C76.1095 33.1469 77.772 32.5781 78.9532 31.3969C80.1345 30.2156 80.747 29.0344 80.747 27.7656V19.2781Z" fill="white"/>
</svg>
