<svg width="1920" height="164" viewBox="0 0 1920 164" fill="none" xmlns="http://www.w3.org/2000/svg">
<g clip-path="url(#clip0_334_459)">
<path d="M0 79.6802V772.436H1920V75.287C1892.43 59.8301 1849.82 40.4887 1815.52 39.3453C1772.25 37.9027 1765.03 80.8214 1766.84 102.461C1768.04 115.084 1753.49 141.052 1685.69 143.937C1614.88 146.95 1515.12 103.389 1482.11 88.9745C1475.61 86.1361 1471.7 84.4279 1471.1 84.4279C1470.8 84.4279 1470.47 84.4019 1470.11 84.3654C1469.93 84.3474 1469.75 84.3268 1469.56 84.3054C1465.61 83.8612 1458.91 83.1076 1449.47 98.8544C1438.65 116.887 1411.6 125.904 1400.78 125.904C1389.96 125.904 1375.53 124.101 1346.68 89.8379C1327.72 67.3166 1308.75 69.8689 1291.32 72.2145C1282.24 73.4373 1273.57 74.604 1265.54 72.1321C1253.16 68.3244 1245.31 55.9739 1238.26 44.8958C1231.97 34.9878 1226.31 26.0976 1218.65 25.2462C1207.55 24.0128 1204.89 31.216 1203.16 35.8917C1202.36 38.0519 1201.76 39.6726 1200.62 39.6726C1199.06 39.6726 1196.49 37.6531 1193.21 35.0684C1188.89 31.6701 1183.32 27.2947 1177.18 25.2462C1171.89 23.4823 1168.75 24.7377 1164.4 26.481C1159.85 28.3022 1153.97 30.6561 1142.91 30.6561C1131 30.6561 1121.28 21.3654 1112.53 13.0133L1112.53 13.0126L1112.53 13.0111C1105.39 6.19287 1098.91 0 1092.42 0C1081.69 0 1075.94 3.99712 1065.53 11.2476L1065.52 11.2505C1061.95 13.7394 1057.82 16.6113 1052.75 19.8363C1032.92 32.4594 919.313 48.6891 901.28 50.4924C886.113 52.0092 873.497 48.4227 865.578 46.1718C864.083 45.7466 862.755 45.3691 861.609 45.0826C860.403 44.7812 858.414 43.6915 855.684 42.1958L855.676 42.1914L855.671 42.1885L855.669 42.1874L855.667 42.1863C842.058 34.7279 810.088 17.2065 765.053 36.7223C735.804 49.3975 683.121 40.8423 634.054 32.8744L634.053 32.874C592.37 26.1051 553.297 19.7601 533.419 27.2147C516.953 33.3897 497.615 47.6574 476.598 63.1642C442.376 88.4137 403.701 116.949 365.718 119.183C333.841 121.058 316.588 119.034 298.499 116.911H298.498C281.796 114.951 264.38 112.907 234.081 113.773C209.064 114.488 172.582 102.938 135.521 91.2047C79.0831 73.3367 21.3016 55.0434 0.620605 78.9907C0.539506 79.0846 0.457735 79.1778 0.375275 79.2701C0.251709 79.4086 0.126617 79.5453 0 79.6802Z" fill="#F4B30C"/>
</g>
<defs>
<clipPath id="clip0_334_459">
<rect width="1920" height="164" fill="white"/>
</clipPath>
</defs>
</svg>
