<svg width="45" height="42" viewBox="0 0 45 42" fill="none" xmlns="http://www.w3.org/2000/svg">
<path d="M7.86289 11.0649L16.0653 15.6581C16.1757 15.72 16.295 15.75 16.4144 15.75C16.6619 15.75 16.9005 15.6228 17.0341 15.3949C17.8639 13.9569 18.8683 12.1531 19.8763 10.3476C20.658 8.9449 21.4434 7.53866 22.145 6.30201L24.8518 11.1073L22.7701 12.3404C22.4958 12.5047 22.3641 12.8297 22.4495 13.1354C22.5368 13.441 22.8164 13.653 23.1369 13.653H32.2974C32.5521 13.653 32.7871 13.5187 32.9154 13.2997C34.4148 10.7221 35.9143 8.14108 37.4048 5.56355C37.5633 5.29149 37.5205 4.94876 37.3015 4.72263C37.0825 4.4965 36.7441 4.44174 36.4592 4.58307L34.267 5.71372L31.8629 1.59215C31.2076 0.443831 29.9913 0.373166 29.555 0.348433C27.0654 0.332533 24.5723 0.321933 22.0791 0.3131L19.0482 0.3025C17.3493 -0.227492 13.7823 -0.39179 11.9926 2.67686L7.59933 10.0915C7.50139 10.2557 7.47468 10.4501 7.52454 10.6338C7.5744 10.8158 7.6955 10.9712 7.86289 11.0649ZM13.2214 3.38882C14.7457 0.77596 17.8372 1.43668 18.5353 1.62571C18.5674 1.64338 18.6012 1.65928 18.6386 1.67165C19.3616 1.93134 19.8674 2.32 20.211 2.86413L21.333 4.85513C20.528 6.25961 19.5789 7.96088 18.6297 9.66039C17.7642 11.215 16.8987 12.7644 16.149 14.0823L9.19316 10.1886L13.2214 3.38882Z" fill="#F4B30C"/>
<path d="M37.6242 12.8473C34.9597 14.3514 32.2934 15.8466 29.6345 17.3401L29.2076 17.5779C28.8584 17.7734 28.7401 18.2031 28.9434 18.5377C29.8821 20.084 31.0628 22.0125 32.2287 23.9146L34.3943 27.4546L28.7679 27.3824L28.7365 24.9854C28.7328 24.6667 28.5073 24.3919 28.184 24.3109C27.8514 24.2281 27.5225 24.3655 27.3562 24.6402L22.5982 32.4898C22.467 32.7082 22.467 32.9777 22.6 33.1943L27.2841 40.8978C27.4171 41.1197 27.6629 41.25 27.9234 41.25C27.9807 41.25 28.0398 41.243 28.1008 41.2289C28.4205 41.1549 28.6496 40.8872 28.6625 40.5737L28.7771 38.1327C30.4327 38.1274 32.0975 38.1257 33.7531 38.1257C35.1778 38.1433 35.8263 37.1271 36.0758 36.766L41.5637 27.8051C42.4635 27.3859 43.2433 26.8065 43.7293 26.0069C44.5977 24.5751 44.3797 22.7452 43.077 20.5666C41.5969 18.0816 40.1187 15.5948 38.646 13.108C38.5481 12.9424 38.3837 12.8227 38.1933 12.7751C37.9975 12.724 37.7942 12.7522 37.6242 12.8473ZM41.7928 21.2623C42.8146 22.9759 43.0363 24.3338 42.4488 25.3007C41.8722 26.2482 40.6028 26.7836 39.2909 27.0865C38.3116 27.2556 36.9997 27.3965 36.1054 27.4529L33.5074 23.2049C32.4893 21.5458 31.4601 19.8657 30.5898 18.4373C32.966 17.1041 35.3478 15.7674 37.7277 14.4253C39.0803 16.7043 40.4347 18.9851 41.7928 21.2623Z" fill="#F4B30C"/>
<path d="M0.986412 25.2223C1.35595 26.3027 2.13873 27.1506 3.30925 27.7425L8.71222 36.9717C9.00166 37.5219 9.63698 38.1774 11.0059 38.1774C12.7153 38.1955 14.8088 38.2082 16.8422 38.2209L21.0163 38.25C21.0182 38.25 21.02 38.25 21.0218 38.25C21.2148 38.25 21.4005 38.1737 21.537 38.0376C21.6753 37.8996 21.7518 37.7107 21.75 37.5165L21.6517 27.9223C21.648 27.5228 21.3222 27.2032 20.9235 27.2032H20.9217L10.478 27.2196L13.1158 22.5042L15.2602 23.7044C15.5442 23.8642 15.9028 23.817 16.134 23.5827C16.3652 23.3503 16.4107 22.9926 16.2487 22.7094L11.5648 14.6131C11.4337 14.388 11.1934 14.25 10.9331 14.25L1.72732 14.2645C1.40329 14.2645 1.1193 14.4788 1.02828 14.7893C0.939082 15.0998 1.06651 15.432 1.33957 15.6045L3.47127 16.9572L1.97671 19.5446C0.800731 21.8015 0.469417 23.7116 0.986412 25.2223ZM20.2044 28.6558L20.2864 36.792L16.8513 36.7684C14.8197 36.7557 12.728 36.743 11.0132 36.7248C10.2286 36.7248 10.0648 36.4143 9.98832 36.2691L5.35357 28.3526C6.95006 28.6032 8.89062 28.6667 9.19827 28.674C9.21283 28.674 9.22557 28.6758 9.25106 28.674L20.2044 28.6558Z" fill="#F4B30C"/>
</svg>
