<svg width="41" height="41" viewBox="0 0 41 41" fill="none" xmlns="http://www.w3.org/2000/svg">
<path fill-rule="evenodd" clip-rule="evenodd" d="M18.9982 19.6078C18.6524 19.6078 18.3066 19.4754 18.0432 19.212L16.1344 17.3019C15.6062 16.7738 15.6062 15.92 16.1344 15.3918L17.0895 14.4368C16.8355 14.1842 16.6937 13.8411 16.6937 13.4817C16.6937 13.1224 16.8355 12.7807 17.0895 12.5267L27.3397 2.27516C27.8462 1.76859 28.7432 1.76859 29.2497 2.27516L29.7279 2.75336L32.1014 0.379924C32.6079 -0.126641 33.5049 -0.126641 34.0115 0.379924L34.9665 1.33497C35.4947 1.86315 35.4947 2.71688 34.9665 3.24506L32.5931 5.61984L33.0686 6.09669C33.5968 6.62487 33.5968 7.4786 33.0686 8.00678L22.8184 18.257C22.555 18.5204 22.2092 18.6528 21.8633 18.6528C21.5175 18.6528 21.1717 18.5204 20.9083 18.257L19.9532 19.212C19.6898 19.4754 19.344 19.6078 18.9982 19.6078ZM36.711 32.4051H32.618C36.7164 29.6048 39.4127 24.8985 39.4127 19.5721C39.4127 15.7452 38.0078 12.0669 35.4588 9.21657C35.453 9.21008 35.4461 9.2059 35.4392 9.20176C35.4333 9.19816 35.4274 9.19459 35.4223 9.18956C35.4209 9.18785 35.4197 9.18607 35.4185 9.18427C35.4173 9.18232 35.4161 9.18033 35.415 9.17834C35.4122 9.17341 35.4093 9.16844 35.4048 9.16389C35.3779 9.13706 35.346 9.11899 35.3139 9.1008C35.2911 9.08784 35.2681 9.07482 35.2467 9.05853C35.2303 9.04624 35.2139 9.03371 35.1976 9.02118C35.1297 8.96897 35.062 8.91695 34.9847 8.88427C34.9377 8.864 34.8888 8.85441 34.8397 8.84479L34.8397 8.84478C34.8168 8.8403 34.794 8.83581 34.7712 8.83023C34.7542 8.82593 34.7374 8.82146 34.7205 8.81699C34.6421 8.79624 34.5647 8.77572 34.4835 8.7735C34.4325 8.77259 34.3827 8.78213 34.3324 8.79175C34.3082 8.79639 34.2839 8.80105 34.2593 8.80457C34.2514 8.80567 34.2436 8.80673 34.2358 8.80776C34.2259 8.80907 34.2159 8.81034 34.206 8.81161C34.1284 8.82156 34.052 8.83135 33.9783 8.85995C33.9224 8.88078 33.8725 8.91422 33.8226 8.94771L33.8225 8.94777C33.8012 8.96204 33.7799 8.97632 33.7581 8.98963C33.7338 9.00438 33.7087 9.01696 33.6837 9.02948C33.6377 9.0525 33.5921 9.07533 33.5528 9.11121C33.548 9.11594 33.5447 9.12134 33.5413 9.12674C33.5394 9.12982 33.5374 9.13289 33.5353 9.13584C33.5336 9.13807 33.5318 9.14024 33.5298 9.14228C33.5275 9.14457 33.525 9.14646 33.5223 9.14815C33.5195 9.14995 33.5165 9.15152 33.5136 9.15308C33.5078 9.15612 33.5021 9.15916 33.4974 9.16389L30.9132 11.7467C30.385 12.2749 30.385 13.1286 30.9132 13.6568C31.1766 13.9202 31.5224 14.0526 31.8683 14.0526C32.2141 14.0526 32.5599 13.9202 32.8233 13.6568L34.3349 12.1452C35.8722 14.3065 36.7124 16.8921 36.7124 19.5708C36.7124 26.6465 30.9551 32.4038 23.8794 32.4038C20.9818 32.4038 18.2396 31.4379 16.0121 29.7021H25.9043C26.65 29.7021 27.2551 29.0983 27.2551 28.3513C27.2551 27.6042 26.65 27.0004 25.9043 27.0004H1.58912C0.843459 27.0004 0.238281 27.6042 0.238281 28.3513C0.238281 29.0983 0.843459 29.7021 1.58912 29.7021H12.1325C13.0294 30.7436 14.0412 31.6487 15.1489 32.4038H4.29081C2.05652 32.4038 0.238281 34.222 0.238281 36.4563C0.238281 38.6906 2.05652 40.5088 4.29081 40.5088H36.711C38.9453 40.5088 40.7636 38.6906 40.7636 36.4563C40.7636 34.222 38.9453 32.4051 36.711 32.4051ZM21.8539 25.6509H5.64381C4.89815 25.6509 4.29297 25.0471 4.29297 24.3001C4.29297 23.553 4.89815 22.9492 5.64381 22.9492H21.8539C22.5996 22.9492 23.2048 23.553 23.2048 24.3001C23.2048 25.0471 22.5996 25.6509 21.8539 25.6509Z" fill="#F4B30C"/>
</svg>
