<svg width="38" height="48" viewBox="0 0 38 48" fill="none" xmlns="http://www.w3.org/2000/svg">
<path fill-rule="evenodd" clip-rule="evenodd" d="M3.08302 13.4056C3.66726 9.55528 4.58319 7.00162 6.56771 5.94031C6.39541 5.81565 6.23546 5.67935 6.09066 5.53139C4.78692 4.20097 4.2936 2.52862 4.9884 1.79526C5.62708 1.12131 7.04812 1.47605 8.2862 2.57231C8.486 1.09276 9.1881 0 10.0226 0C10.8578 0 11.5599 1.09276 11.7597 2.57231C12.9977 1.47605 14.4188 1.12072 15.0575 1.79526C15.7523 2.52804 15.2584 4.20097 13.9552 5.53081C13.6606 5.83196 13.3053 6.08418 12.9091 6.28806C14.3402 7.07676 15.3852 8.31049 16.4611 9.70615C18.3126 12.1084 21.877 17.9217 25.3488 17.8256C27.8888 17.7553 33.0553 13.9818 35.6455 11.9614C36.1916 11.5355 36.9492 11.9933 36.7712 12.6626C36.4601 13.8322 35.9641 15.3322 35.2345 16.5892C34.9887 17.0126 34.7318 17.8816 35.1682 17.6599V17.6599C35.6221 17.4293 37.0783 17.4634 36.9439 17.9544C36.6144 19.1582 36.1107 20.6733 35.392 22.0484C35.123 22.5632 35.8434 23.4566 36.3719 23.2157V23.2157C36.7913 23.0246 37.2263 23.4323 37.049 23.8577C34.0222 31.1232 28.4252 35.5833 22.56 37.3474C22.4702 38.6988 21.8102 39.83 20.9044 40.3071V43.131L22.5707 43.6116C22.9315 43.7158 23.1448 44.1073 23.0444 44.4824C22.9439 44.8569 22.5667 45.0777 22.2059 44.9734L20.9521 44.6123L18.2335 47.057C17.5347 47.685 16.5733 46.633 17.2715 46.005L19.0416 44.4137L16.1014 44.5704C15.1781 44.6199 15.0434 43.1764 15.9661 43.1269L19.5832 42.9341C19.6074 42.9329 19.6315 42.9329 19.6545 42.9335V40.5284C18.6376 40.3793 17.7957 39.4531 17.4663 38.2019C15.8045 38.2637 14.1758 38.1075 12.6318 37.7388C12.4023 38.7827 11.8214 39.6244 11.0722 40.0187V42.8427L12.7384 43.3232C13.0993 43.4275 13.3126 43.8195 13.2121 44.1941C13.1117 44.5686 12.7345 44.79 12.3736 44.6857L11.1204 44.324L8.40125 46.7687C7.70308 47.3966 6.74113 46.3446 7.4393 45.7167L9.20943 44.1253L6.26913 44.282C5.34591 44.3315 5.21177 42.8881 6.13444 42.8386L9.75101 42.6464C9.77571 42.6446 9.79928 42.6446 9.82229 42.6458V40.2401C8.50789 40.0473 7.48476 38.5549 7.48476 36.7428C7.48476 36.3274 7.53864 35.9296 7.63685 35.5597C4.86549 33.6648 2.80016 30.7634 1.99535 26.8817C1.20851 23.0861 2.55041 16.2161 2.55041 16.2161L0.506993 15.0404C-0.123355 14.6777 0.079627 13.7201 0.802917 13.6444L3.08302 13.4056ZM7.23052 10.5467C8.23681 10.5467 9.05284 11.3936 9.05284 12.4381C9.05284 13.4831 8.23681 14.33 7.23052 14.33C6.22367 14.33 5.40764 13.4831 5.40764 12.4381C5.40764 11.3936 6.22367 10.5467 7.23052 10.5467ZM20.4599 19.1572C21.3272 21.6517 23.8209 22.2449 25.7139 22.3132C26.2202 22.3314 26.5058 23.1541 26.0749 23.4206C25.9983 23.468 25.9218 23.515 25.846 23.5613C25.5317 23.753 25.6317 24.2619 25.9969 24.3088V24.3088C26.3453 24.3536 26.4435 24.7994 26.141 24.978C25.5589 25.3217 24.7785 25.7558 24.0937 26.0463C23.8075 26.1677 23.7557 26.6195 24.0264 26.7723V26.7723C24.2285 26.8863 24.2473 27.1741 24.0679 27.3212C13.9779 35.5875 6.6343 18.5854 13.1201 15.8486C15.3987 14.8869 19.6242 16.7538 20.4599 19.1572Z" fill="#F4B30C"/>
</svg>
