<svg width="55" height="55" viewBox="0 0 55 55" fill="none" xmlns="http://www.w3.org/2000/svg">
<path fill-rule="evenodd" clip-rule="evenodd" d="M25.0102 26.1438C24.5491 26.1438 24.0881 25.9672 23.7368 25.616L21.1919 23.0692C20.4876 22.365 20.4876 21.2267 21.1919 20.5225L22.4652 19.2491C22.1266 18.9122 21.9375 18.4548 21.9375 17.9757C21.9375 17.4966 22.1266 17.0409 22.4652 16.7023L36.1322 3.03354C36.8076 2.35812 38.0035 2.35812 38.679 3.03354L39.3166 3.67114L42.4811 0.506566C43.1566 -0.168855 44.3525 -0.168855 45.0279 0.506566L46.3013 1.77996C47.0056 2.4842 47.0056 3.62251 46.3013 4.32675L43.1367 7.49312L43.7707 8.12892C44.475 8.83316 44.475 9.97147 43.7707 10.6757L30.1038 24.3426C29.7526 24.6939 29.2915 24.8704 28.8304 24.8704C28.3693 24.8704 27.9082 24.6939 27.557 24.3426L26.2836 25.616C25.9324 25.9672 25.4713 26.1438 25.0102 26.1438ZM48.6303 43.2042H43.1729C48.6375 39.4705 52.2326 33.1954 52.2326 26.0936C52.2326 20.991 50.3594 16.0865 46.9607 12.2862C46.953 12.2775 46.9438 12.2719 46.9346 12.2664C46.9267 12.2616 46.9188 12.2569 46.9121 12.2501C46.9081 12.2454 46.9052 12.2403 46.9023 12.2352C46.8985 12.2286 46.8947 12.222 46.8886 12.2159C46.8529 12.1801 46.8103 12.1561 46.7675 12.1318C46.737 12.1145 46.7064 12.0972 46.6779 12.0754C46.6612 12.063 46.6447 12.0504 46.6282 12.0377L46.6125 12.0256C46.5219 11.956 46.4316 11.8867 46.3285 11.8431C46.2658 11.8161 46.2007 11.8033 46.1353 11.7904C46.1048 11.7845 46.0743 11.7785 46.0439 11.771C46.0213 11.7653 45.9988 11.7593 45.9763 11.7534C45.8718 11.7257 45.7685 11.6984 45.6603 11.6954C45.5922 11.6942 45.5258 11.7069 45.4588 11.7197C45.4265 11.7259 45.3941 11.7321 45.3613 11.7368C45.3376 11.7402 45.3139 11.7432 45.2903 11.7462C45.1868 11.7595 45.0849 11.7725 44.9867 11.8107C44.9122 11.8384 44.8456 11.883 44.779 11.9277C44.7506 11.9467 44.7222 11.9658 44.6931 11.9836C44.6607 12.0032 44.6272 12.02 44.5939 12.0367C44.5326 12.0674 44.4718 12.0978 44.4193 12.1457C44.413 12.152 44.4085 12.1592 44.404 12.1664C44.3995 12.1736 44.395 12.1808 44.3887 12.1871C44.3824 12.1934 44.3747 12.1975 44.3671 12.2015C44.3594 12.2056 44.3518 12.2096 44.3455 12.2159L40.8999 15.6597C40.1957 16.3639 40.1957 17.5022 40.8999 18.2065C41.2511 18.5577 41.7122 18.7342 42.1733 18.7342C42.6344 18.7342 43.0955 18.5577 43.4467 18.2065L45.4622 16.191C47.5118 19.0728 48.6321 22.5201 48.6321 26.0918C48.6321 35.5261 40.9557 43.2024 31.5215 43.2024C27.6581 43.2024 24.0018 41.9146 21.0317 39.6002H34.2213C35.2156 39.6002 36.0225 38.7951 36.0225 37.7991C36.0225 36.8031 35.2156 35.998 34.2213 35.998H1.80112C0.806903 35.998 0 36.8031 0 37.7991C0 38.7951 0.806903 39.6002 1.80112 39.6002H15.8589C17.0548 40.9889 18.4039 42.1956 19.8808 43.2024H5.40337C2.42431 43.2024 0 45.6268 0 48.6058C0 51.5849 2.42431 54.0092 5.40337 54.0092H48.6303C51.6094 54.0092 54.0337 51.5849 54.0337 48.6058C54.0337 45.6268 51.6094 43.2042 48.6303 43.2042ZM28.8169 34.1999H7.20347C6.20925 34.1999 5.40234 33.3948 5.40234 32.3988C5.40234 31.4028 6.20925 30.5977 7.20347 30.5977H28.8169C29.8112 30.5977 30.6181 31.4028 30.6181 32.3988C30.6181 33.3948 29.8112 34.1999 28.8169 34.1999Z" fill="black"/>
</svg>
