<svg width="58" height="55" viewBox="0 0 58 55" fill="none" xmlns="http://www.w3.org/2000/svg">
<path d="M9.48386 14.7532L20.4204 20.8775C20.5676 20.96 20.7267 21 20.8858 21C21.2158 21 21.534 20.8304 21.7121 20.5265C22.8186 18.6091 24.1578 16.2042 25.5017 13.7968C26.544 11.9265 27.5912 10.0515 28.5267 8.40268L32.1358 14.8097L29.3601 16.4538C28.9944 16.6729 28.8187 17.1063 28.9327 17.5138C29.0491 17.9213 29.4218 18.204 29.8492 18.204H42.0632C42.4028 18.204 42.7162 18.025 42.8872 17.7329C44.8864 14.2962 46.8857 10.8548 48.8731 7.41807C49.0844 7.05532 49.0274 6.59835 48.7353 6.29684C48.4433 5.99534 47.9921 5.92232 47.6122 6.11076L44.6893 7.61829L41.4839 2.12286C40.6101 0.591775 38.9884 0.497554 38.4066 0.464577C35.0872 0.443377 31.763 0.429244 28.4388 0.417466L24.3976 0.403333C22.1324 -0.303323 17.3764 -0.522387 14.9901 3.56915L9.13244 13.4553C9.00185 13.6743 8.96624 13.9334 9.03272 14.1784C9.0992 14.421 9.26066 14.6283 9.48386 14.7532ZM16.6285 4.51843C18.661 1.03461 22.783 1.91558 23.7137 2.16762C23.7565 2.19117 23.8016 2.21237 23.8515 2.22886C24.8155 2.57512 25.4898 3.09334 25.9481 3.81884L27.4439 6.47351C26.3707 8.34615 25.1051 10.6145 23.8396 12.8805C22.6856 14.9534 21.5317 17.0192 20.532 18.7764L11.2575 13.5848L16.6285 4.51843Z" fill="black"/>
<path d="M49.1656 17.1298C45.613 19.1352 42.0579 21.1288 38.5126 23.1202L37.9435 23.4372C37.4779 23.6978 37.3202 24.2708 37.5912 24.717C38.8428 26.7787 40.4171 29.3501 41.9717 31.8862L44.8591 36.6062L37.3572 36.5099L37.3153 33.3139C37.3103 32.8889 37.0098 32.5225 36.5786 32.4145C36.1352 32.3042 35.6966 32.4873 35.4749 32.8536L29.1309 43.3198C28.956 43.611 28.956 43.9703 29.1333 44.2591L35.3788 54.5303C35.5562 54.8262 35.8839 55 36.2312 55C36.3076 55 36.3865 54.9906 36.4678 54.9718C36.894 54.8732 37.1995 54.5163 37.2167 54.0983L37.3695 50.8436C39.5769 50.8365 41.7967 50.8342 44.0042 50.8342C45.9037 50.8577 46.7685 49.5027 47.1011 49.0214L54.4182 37.0735C55.618 36.5146 56.6577 35.742 57.3057 34.6759C58.4636 32.7668 58.1729 30.3269 56.436 27.4221C54.4626 24.1088 52.4916 20.793 50.5281 17.4773C50.3975 17.2566 50.1782 17.0969 49.9244 17.0335C49.6633 16.9654 49.3923 17.003 49.1656 17.1298ZM54.7237 28.3497C56.0861 30.6346 56.3818 32.4451 55.5983 33.7342C54.8297 34.9976 53.1371 35.7115 51.3879 36.1154C50.0821 36.3408 48.3329 36.5287 47.1405 36.6038L43.6765 30.9398C42.319 28.7278 40.9468 26.4875 39.7864 24.5831C42.9547 22.8055 46.1304 21.0232 49.3036 19.2338C51.107 22.2724 52.9129 25.3134 54.7237 28.3497Z" fill="black"/>
<path d="M0.315216 33.6297C0.80794 35.0702 1.85164 36.2008 3.41233 36.99L10.6163 49.2957C11.0022 50.0292 11.8493 50.9032 13.6746 50.9032C15.9537 50.9274 18.745 50.9443 21.4562 50.9613L27.0218 51C27.0242 51 27.0266 51 27.0291 51C27.2864 51 27.5339 50.8983 27.716 50.7167C27.9004 50.5328 28.0024 50.281 28 50.0219L27.8689 37.2297C27.864 36.6971 27.4296 36.271 26.898 36.271H26.8956L12.9707 36.2928L16.4877 30.0056L19.347 31.6058C19.7256 31.8189 20.2038 31.7559 20.512 31.4436C20.8203 31.1338 20.881 30.6568 20.6649 30.2792L14.4197 19.4842C14.245 19.184 13.9246 19 13.5775 19L1.30309 19.0194C0.871047 19.0194 0.492403 19.305 0.371042 19.719C0.252109 20.133 0.422013 20.576 0.786095 20.806L3.62836 22.6096L1.63562 26.0595C0.0676409 29.0687 -0.374111 31.6155 0.315216 33.6297ZM25.9393 38.2077L26.0485 49.056L21.4683 49.0245C18.7596 49.0076 15.9707 48.9906 13.6843 48.9664C12.6382 48.9664 12.4197 48.5524 12.3178 48.3588L6.13809 37.8034C8.26675 38.1375 10.8542 38.2223 11.2644 38.232C11.2838 38.232 11.3008 38.2344 11.3347 38.232L25.9393 38.2077Z" fill="black"/>
</svg>
