<svg width="50" height="63" viewBox="0 0 50 63" fill="none" xmlns="http://www.w3.org/2000/svg">
<path fill-rule="evenodd" clip-rule="evenodd" d="M4.11069 17.8741C4.88968 12.7404 6.11092 9.33549 8.75694 7.92041C8.52721 7.7542 8.31394 7.57246 8.12088 7.37519C6.38256 5.60129 5.7248 3.37149 6.6512 2.39368C7.50278 1.49508 9.3975 1.96806 11.0483 3.42974C11.3147 1.45702 12.2508 0 13.3635 0C14.477 0 15.4132 1.45702 15.6796 3.42974C17.3303 1.96806 19.225 1.4943 20.0766 2.39368C21.003 3.37072 20.3445 5.60129 18.6069 7.37441C18.2141 7.77595 17.7404 8.11224 17.2121 8.38408C19.1203 9.43568 20.5136 11.0806 21.9481 12.9415C24.4168 16.1445 29.1693 23.8956 33.7984 23.7674C37.1851 23.6737 44.0738 18.6424 47.5274 15.9485C48.2555 15.3806 49.2656 15.9911 49.0283 16.8834C48.6135 18.4429 47.9521 20.443 46.9793 22.1189C46.6516 22.6834 46.309 23.8421 46.891 23.5465C47.4962 23.2391 49.4378 23.2845 49.2585 23.9392C48.8192 25.5443 48.1475 27.5643 47.1893 29.3978C46.8306 30.0842 47.7912 31.2755 48.4959 30.9543C49.055 30.6995 49.635 31.2431 49.3987 31.8103C45.3629 41.4976 37.9003 47.4444 30.08 49.7965C29.9603 51.5984 29.0803 53.1067 27.8725 53.7427V57.508L30.0942 58.1487C30.5754 58.2878 30.8597 58.8097 30.7258 59.3099C30.5919 59.8093 30.089 60.1036 29.6078 59.9646L27.9361 59.4831L24.3113 62.7427C23.3797 63.58 22.0978 62.1773 23.0287 61.3401L25.3889 59.2182L21.4685 59.4271C20.2375 59.4932 20.0579 57.5686 21.2881 57.5026L26.111 57.2455C26.1432 57.2439 26.1753 57.2439 26.206 57.2447V54.0379C24.8501 53.839 23.7276 52.6042 23.2884 50.9359C21.0726 51.0182 18.901 50.8101 16.8424 50.3184C16.5364 51.7102 15.7619 52.8325 14.7629 53.3583V57.1236L16.9846 57.7643C17.4658 57.9033 17.7501 58.426 17.6162 58.9254C17.4822 59.4248 16.9794 59.7199 16.4982 59.5809L14.8272 59.0986L11.2017 62.3583C10.2708 63.1955 8.98817 61.7929 9.91907 60.9556L12.2792 58.8338L8.35884 59.0427C7.12787 59.1087 6.94903 57.1841 8.17925 57.1181L13.0014 56.8618C13.0343 56.8595 13.0657 56.8595 13.0964 56.861V53.6534C11.3438 53.3963 9.97968 51.4065 9.97968 48.9903C9.97968 48.4366 10.0515 47.9061 10.1825 47.4129C6.48732 44.8865 3.73354 41.0179 2.66047 35.8422C1.61134 30.7815 3.40055 21.6215 3.40055 21.6215L0.675992 20.0538C-0.164472 19.5702 0.10617 18.2935 1.07056 18.1925L4.11069 17.8741ZM9.6407 14.0623C10.9824 14.0623 12.0705 15.1915 12.0705 16.5841C12.0705 17.9774 10.9824 19.1067 9.6407 19.1067C8.29823 19.1067 7.21019 17.9774 7.21019 16.5841C7.21019 15.1915 8.29823 14.0623 9.6407 14.0623ZM27.2798 25.5429C28.4363 28.8689 31.7612 29.6598 34.2852 29.7509C34.9602 29.7753 35.3411 30.8721 34.7666 31.2274C34.6644 31.2906 34.5624 31.3533 34.4613 31.415C34.0423 31.6707 34.1756 32.3492 34.6625 32.4118C35.127 32.4714 35.258 33.0658 34.8547 33.304C34.0786 33.7623 33.0381 34.3411 32.1249 34.7285C31.7434 34.8903 31.6743 35.4927 32.0353 35.6964C32.3047 35.8484 32.3298 36.2322 32.0905 36.4282C18.6372 47.45 8.84574 24.7805 17.4935 21.1314C20.5316 19.8492 26.1656 22.3384 27.2798 25.5429Z" fill="black"/>
</svg>
