<svg width="46" height="42" viewBox="0 0 46 42" fill="none" xmlns="http://www.w3.org/2000/svg">
<path d="M44.4803 4.07962C39.0343 4.07962 31.3406 4.53956 27.4089 8.50575C25.7066 10.2238 24.8565 13.0247 25.0772 16.1948C25.1058 16.6134 25.3817 16.9702 25.7781 17.1022C26.1725 17.2322 26.6058 17.1105 26.8755 16.7908C29.062 14.1941 31.7799 12.1131 34.9596 10.6054C35.2293 10.4754 35.5481 10.4651 35.8383 10.5683C36.0937 10.6611 36.294 10.8364 36.3982 11.0612C36.6148 11.5232 36.5454 12.1316 35.826 12.474C35.7852 12.4946 35.7484 12.5214 35.7075 12.54C35.6932 12.5462 35.6769 12.5441 35.6646 12.5503C27.8298 16.2669 23.9778 22.7514 22.2286 29.4195C20.9534 21.0705 18.2601 16.1556 15.7159 13.1381C13.8747 10.7291 12.0642 9.45244 11.0179 8.73056C10.8238 8.5965 10.2373 8.19225 9.99412 7.94681C9.59563 7.54463 9.59563 6.89081 9.99412 6.48862C10.3926 6.0885 11.0424 6.0885 11.4859 6.534C11.5942 6.63094 11.7679 6.75469 11.9886 6.90319L12.1704 7.02694C13.6499 8.04994 16.4046 9.9495 18.8486 14.0394C19.0673 14.4045 19.4903 14.6004 19.901 14.5221C20.3179 14.4478 20.6449 14.124 20.7266 13.7053C21.26 10.956 21.0209 6.87637 18.5911 4.42406C14.6594 0.459937 6.96565 0 1.52175 0C0.957745 0 0.5 0.462 0.5 1.03125C0.5 6.52781 0.955701 14.2931 4.88536 18.2614C6.52425 19.9155 9.05206 20.658 11.5635 20.658C13.6132 20.658 15.6219 20.1403 17.1607 19.2431C19.2594 23.6321 20.935 30.1888 20.935 40.2188C20.935 40.788 21.3928 41.25 21.9568 41.25C22.5208 41.25 22.9785 40.788 22.9785 40.2188C22.9785 34.6232 23.9288 27.9077 27.462 22.3802C28.8781 23.7765 31.316 24.6613 34.0175 24.7438C34.1524 24.7479 34.2852 24.75 34.4181 24.75C37.1625 24.75 39.5881 23.8817 41.1146 22.3389C45.0463 18.3707 45.5 10.6054 45.5 5.10881C45.502 4.53956 45.0463 4.07962 44.4803 4.07962Z" fill="#F4B30C"/>
</svg>
