<svg width="60" height="55" viewBox="0 0 60 55" fill="none" xmlns="http://www.w3.org/2000/svg">
<path d="M58.6404 5.4395C51.3791 5.4395 41.1207 6.05275 35.8785 11.341C33.6088 13.6318 32.4754 17.3663 32.7696 21.593C32.8078 22.1513 33.1756 22.627 33.7042 22.803C34.23 22.9762 34.8077 22.814 35.1673 22.3877C38.0827 18.9255 41.7065 16.1508 45.9461 14.1405C46.3058 13.9673 46.7308 13.9535 47.1177 14.091C47.4583 14.2148 47.7253 14.4485 47.8643 14.7483C48.1531 15.3643 48.0605 16.1755 47.1014 16.632C47.0469 16.6595 46.9979 16.6952 46.9434 16.72C46.9243 16.7283 46.9025 16.7255 46.8861 16.7337C36.4398 21.6893 31.3037 30.3352 28.9714 39.226C27.2712 28.094 23.6801 21.5408 20.2879 17.5175C17.833 14.3055 15.4189 12.6032 14.0239 11.6407C13.765 11.462 12.9831 10.923 12.6588 10.5958C12.1275 10.0595 12.1275 9.18775 12.6588 8.6515C13.1901 8.118 14.0566 8.118 14.6478 8.712C14.7922 8.84125 15.0238 9.00625 15.3181 9.20425L15.5606 9.36925C17.5333 10.7333 21.2061 13.266 24.4648 18.7192C24.7564 19.206 25.3204 19.4673 25.868 19.3628C26.4239 19.2638 26.8598 18.832 26.9688 18.2738C27.6799 14.608 27.3611 9.1685 24.1215 5.89875C18.8792 0.61325 8.62086 0 1.36234 0C0.610326 0 0 0.616 0 1.375C0 8.70375 0.607602 19.0575 5.84714 24.3485C8.03233 26.554 11.4028 27.544 14.7514 27.544C17.4842 27.544 20.1626 26.8538 22.2142 25.6575C25.0125 31.5095 27.2467 40.2518 27.2467 53.625C27.2467 54.384 27.857 55 28.609 55C29.3611 55 29.9714 54.384 29.9714 53.625C29.9714 46.1642 31.2384 37.2103 35.9493 29.8403C37.8375 31.702 41.088 32.8817 44.6901 32.9917C44.8699 32.9972 45.047 33 45.2241 33C48.8833 33 52.1175 31.8423 54.1528 29.7853C59.3951 24.4943 60 14.1405 60 6.81175C60.0027 6.05275 59.3951 5.4395 58.6404 5.4395Z" fill="black"/>
</svg>
