<svg width="31" height="45" viewBox="0 0 31 45" fill="none" xmlns="http://www.w3.org/2000/svg">
<path d="M15.4765 7.75606C11.6647 7.75606 8.60588 10.8403 8.60588 14.5788C8.60588 18.364 11.7118 21.4015 15.4765 21.4015C19.2882 21.4015 22.3471 18.3172 22.3471 14.5788C22.3471 10.8403 19.2882 7.75606 15.4765 7.75606ZM15.9941 16.3545L14.4412 17.8966L12.8882 16.3545L11.3824 14.8591L12.9353 13.317L14.4412 14.8124L18.0176 11.2609L19.5706 12.803L15.9941 16.3545ZM29.2176 12.6628C28.6059 12.102 28.3706 11.2141 28.7 10.4664L28.9824 9.76548C29.4529 8.69068 28.8412 7.47567 27.7118 7.14856L26.9588 6.96164C26.1588 6.72798 25.5941 6.02702 25.5471 5.18587V4.39144C25.5 3.22317 24.4176 2.38202 23.2882 2.56894L22.5353 2.70913C21.6882 2.84932 20.8882 2.47548 20.5118 1.72779L20.1353 1.07355C19.5706 0.0454768 18.2529 -0.234908 17.3118 0.419323L16.7 0.8399C16.0412 1.30721 15.1 1.30721 14.4412 0.8399L13.8294 0.372592C12.8882 -0.32837 11.5235 -0.00125397 10.9588 1.02682L10.5824 1.68105C10.1588 2.42875 9.35882 2.80259 8.51176 2.6624L7.75882 2.52221C6.58235 2.33529 5.54706 3.17644 5.45294 4.34471L5.40588 5.0924C5.35882 5.93356 4.79412 6.63452 3.99412 6.86817L3.24118 7.10183C2.11176 7.42894 1.5 8.64394 1.97059 9.71875L2.25294 10.4197C2.58235 11.1674 2.34706 12.0553 1.73529 12.6161L1.17059 13.1301C0.276471 13.8778 0.276471 15.2797 1.17059 16.0274L1.73529 16.5415C2.34706 17.1022 2.58235 17.9901 2.25294 18.7378L1.97059 19.4388C1.5 20.5136 2.11176 21.7286 3.24118 22.0557L3.99412 22.2426C4.79412 22.4763 5.35882 23.1772 5.40588 24.0184L5.45294 24.7661C5.5 25.9343 6.58235 26.7755 7.71176 26.5886L8.4647 26.4484C9.31176 26.3082 10.1118 26.682 10.4882 27.4297L10.8647 28.084C11.4294 29.112 12.7471 29.3924 13.6882 28.7382L14.3 28.3176C14.9588 27.8503 15.9 27.8503 16.5588 28.3176L17.1706 28.7849C18.1118 29.4859 19.4765 29.1588 20.0412 28.1307L20.4176 27.4765C20.8412 26.7288 21.6412 26.3549 22.4882 26.4951L23.2412 26.6353C24.4176 26.8222 25.4529 25.9811 25.5471 24.8128L25.5941 24.0651C25.6412 23.224 26.2059 22.523 27.0059 22.2893L27.7588 22.1024C28.8882 21.7753 29.5 20.5603 29.0294 19.4855L28.7471 18.7845C28.4176 18.0368 28.6529 17.149 29.2647 16.5882L29.8294 16.0741C30.7235 15.3264 30.7235 13.9245 29.8294 13.1768L29.2176 12.6628ZM15.4765 24.0651C10.2059 24.0651 5.97059 19.8126 5.97059 14.6255C5.97059 9.39164 10.2529 5.18587 15.4765 5.18587C20.7471 5.18587 24.9824 9.43837 24.9824 14.6255C24.9824 19.8126 20.7471 24.0651 15.4765 24.0651ZM0.7 40.5144L5.31176 29.0653C5.92353 29.3457 6.62941 29.5326 7.33529 29.5326C7.61765 29.5326 7.9 29.4859 8.18235 29.4392H8.27647L8.32353 29.5326C9.12353 31.028 10.7706 31.9626 12.5588 31.9626C13.0294 31.9626 13.5471 31.8692 13.9706 31.729L9.12353 43.8322C8.98235 44.2061 8.46471 44.2528 8.27647 43.879L5.97059 39.8601C5.87647 39.7199 5.73529 39.6732 5.59412 39.7199L1.26471 41.0751C0.888235 41.2153 0.558824 40.8415 0.7 40.5144ZM21.8294 43.9724L16.9353 31.8224C17.4059 31.9626 17.8765 32.0561 18.3471 32.0561C20.1353 32.0561 21.7353 31.1215 22.5824 29.5793L22.6294 29.4859H22.7235C23.0059 29.5326 23.2882 29.5793 23.5706 29.5793C24.3235 29.5793 24.9824 29.3924 25.6412 29.112L30.2529 40.6545C30.3941 41.0284 30.0647 41.4022 29.6882 41.262L25.3588 39.9069C25.2176 39.8601 25.0765 39.9069 24.9824 40.047L22.6765 44.0659C22.4882 44.3463 21.9706 44.2995 21.8294 43.9724Z" fill="#F4B30C"/>
</svg>
