<svg width="40" height="59" viewBox="0 0 40 59" fill="none" xmlns="http://www.w3.org/2000/svg">
<path d="M19.9686 10.3414C14.8863 10.3414 10.8078 14.4537 10.8078 19.4383C10.8078 24.4853 14.949 28.5353 19.9686 28.5353C25.051 28.5353 29.1294 24.423 29.1294 19.4383C29.1294 14.4537 25.051 10.3414 19.9686 10.3414ZM20.6588 21.806L18.5882 23.8622L16.5176 21.806L14.5098 19.8122L16.5804 17.756L18.5882 19.7499L23.3569 15.0145L25.4275 17.0706L20.6588 21.806ZM38.2902 16.8837C37.4745 16.136 37.1608 14.9522 37.6 13.9553L37.9765 13.0206C38.6039 11.5876 37.7882 9.96757 36.2824 9.53141L35.2784 9.28218C34.2118 8.97064 33.4588 8.03603 33.3961 6.91449V5.85526C33.3333 4.29756 31.8902 3.17602 30.3843 3.42525L29.3804 3.61218C28.251 3.7991 27.1843 3.30064 26.6824 2.30371L26.1804 1.43141C25.4275 0.0606357 23.6706 -0.313211 22.4157 0.559098L21.6 1.11987C20.7216 1.74294 19.4667 1.74294 18.5882 1.11987L17.7725 0.49679C16.5176 -0.437826 14.698 -0.00167197 13.9451 1.3691L13.4431 2.24141C12.8784 3.23833 11.8118 3.73679 10.6824 3.54987L9.67843 3.36295C8.1098 3.11371 6.72941 4.23525 6.60392 5.79295L6.54118 6.78987C6.47843 7.91141 5.72549 8.84603 4.65882 9.15757L3.6549 9.4691C2.14902 9.90526 1.33333 11.5253 1.96078 12.9583L2.33725 13.893C2.77647 14.8899 2.46274 16.0737 1.64706 16.8214L0.894118 17.5068C-0.298039 18.5037 -0.298039 20.373 0.894118 21.3699L1.64706 22.0553C2.46274 22.803 2.77647 23.9868 2.33725 24.9837L1.96078 25.9183C1.33333 27.3514 2.14902 28.9714 3.6549 29.4076L4.65882 29.6568C5.72549 29.9684 6.47843 30.903 6.54118 32.0245L6.60392 33.0214C6.66667 34.5791 8.1098 35.7007 9.61569 35.4514L10.6196 35.2645C11.749 35.0776 12.8157 35.576 13.3176 36.573L13.8196 37.4453C14.5725 38.8161 16.3294 39.1899 17.5843 38.3176L18.4 37.7568C19.2784 37.1337 20.5333 37.1337 21.4118 37.7568L22.2275 38.3799C23.4824 39.3145 25.302 38.8784 26.0549 37.5076L26.5569 36.6353C27.1216 35.6384 28.1882 35.1399 29.3176 35.3268L30.3216 35.5137C31.8902 35.763 33.2706 34.6414 33.3961 33.0837L33.4588 32.0868C33.5216 30.9653 34.2745 30.0307 35.3412 29.7191L36.3451 29.4699C37.851 29.0337 38.6667 27.4137 38.0392 25.9807L37.6627 25.046C37.2235 24.0491 37.5373 22.8653 38.3529 22.1176L39.1059 21.4322C40.298 20.4353 40.298 18.566 39.1059 17.5691L38.2902 16.8837ZM19.9686 32.0868C12.9412 32.0868 7.29412 26.4168 7.29412 19.5007C7.29412 12.5222 13.0039 6.91449 19.9686 6.91449C26.9961 6.91449 32.6431 12.5845 32.6431 19.5007C32.6431 26.4168 26.9961 32.0868 19.9686 32.0868ZM0.266667 54.0191L6.41569 38.7537C7.23137 39.1276 8.17255 39.3768 9.11373 39.3768C9.4902 39.3768 9.86667 39.3145 10.2431 39.2522H10.3686L10.4314 39.3768C11.498 41.3707 13.6941 42.6168 16.0784 42.6168C16.7059 42.6168 17.3961 42.4922 17.9608 42.3053L11.498 58.443C11.3098 58.9414 10.6196 59.0038 10.3686 58.5053L7.29412 53.1468C7.16863 52.9599 6.98039 52.8976 6.79216 52.9599L1.01961 54.7668C0.517646 54.9538 0.0784314 54.4553 0.266667 54.0191ZM28.4392 58.6299L21.9137 42.4299C22.5412 42.6168 23.1686 42.7414 23.7961 42.7414C26.1804 42.7414 28.3137 41.4953 29.4431 39.4391L29.5059 39.3145H29.6314C30.0078 39.3768 30.3843 39.4391 30.7608 39.4391C31.7647 39.4391 32.6431 39.1899 33.5216 38.8161L39.6706 54.2061C39.8588 54.7045 39.4196 55.203 38.9176 55.0161L33.1451 53.2091C32.9569 53.1468 32.7686 53.2091 32.6431 53.3961L29.5686 58.7545C29.3176 59.1284 28.6275 59.0661 28.4392 58.6299Z" fill="black"/>
</svg>
